<svg xmlns="http://www.w3.org/2000/svg" xmlns:xlink="http://www.w3.org/1999/xlink" viewBox="0 0 498.726 64" width="498.726" height="64" color="#FFFFFF" role="img" aria-label="Oakland Tribune">
<title>Oakland Tribune</title>
<defs>
<clipPath id="oakland-tribune-clip1">
  <path d="M 469 20 L 498.726562 20 L 498.726562 64 L 469 64 Z M 469 20 "/>
</clipPath>
</defs>
<g id="oakland-tribune-surface1">
<path style=" stroke:none;fill-rule:nonzero;fill:currentColor;fill-opacity:1;" d="M 34.078125 61.910156 L 34.078125 43.589844 L 34.269531 43.925781 C 37.125 42.292969 45.316406 42.710938 46.894531 43.894531 L 47.03125 43.710938 C 45.378906 57.28125 38.863281 60.8125 34.078125 61.910156 M 18.367188 57.71875 C 22.179688 56.015625 28.867188 51.710938 28.867188 46.535156 L 28.867188 10.953125 L 33.132812 8.40625 L 33.132812 62.097656 C 31.953125 62.304688 30.921875 62.390625 30.15625 62.472656 C 28.222656 62.6875 22.976562 61.976562 18.367188 57.71875 M 46.25 24.761719 L 45.816406 24.179688 C 44.28125 25.335938 37.09375 25.761719 34.078125 24.277344 L 34.078125 7.84375 L 35.609375 6.929688 C 38.730469 8.574219 43.9375 14.101562 46.25 24.761719 M 47.390625 34.46875 C 47.484375 37.648438 47.375 40.449219 47.113281 42.933594 C 44.824219 41.765625 37.320312 41.375 34.078125 42.960938 L 34.078125 25.308594 C 37.59375 26.726562 44.480469 26.222656 46.300781 24.984375 C 46.894531 27.789062 47.285156 30.941406 47.390625 34.46875 M 40.929688 2.585938 L 34.464844 6.464844 C 34.484375 6.46875 34.5 6.476562 34.519531 6.480469 L 33.324219 7.191406 L 33.132812 7.191406 L 33.132812 7.304688 L 16.265625 17.371094 L 16.746094 18.179688 L 19.386719 16.605469 L 19.386719 50.839844 C 19.386719 50.839844 18.570312 54.089844 17.160156 56.511719 C 13.398438 52.378906 10.339844 45.558594 10.339844 34.46875 C 10.339844 8.1875 24.558594 1.296875 24.558594 1.296875 C 18.957031 3.019531 0 12.898438 0 35.332031 C 0 45.671875 8.183594 63.652344 29.726562 63.335938 C 36.1875 63.238281 55.792969 56.398438 56.441406 34.46875 C 57.136719 10.785156 40.929688 2.585938 40.929688 2.585938 "/>
<path style=" stroke:none;fill-rule:nonzero;fill:currentColor;fill-opacity:1;" d="M 69.035156 56.980469 C 61.972656 49.984375 63.65625 44.859375 65.070312 42.496094 L 74.210938 38.371094 L 74.210938 53.472656 Z M 62.363281 31.691406 C 66.402344 32.292969 69.902344 27.25 69.902344 27.25 L 74.210938 33.285156 L 74.210938 37.332031 L 69.4375 39.488281 L 69.652344 39.285156 Z M 89.628906 53.003906 L 88.953125 52.34375 L 86.683594 54.667969 C 85.054688 53.960938 83.257812 51.8125 83.257812 51.8125 L 83.257812 29.734375 L 85.738281 27.378906 L 85.089844 26.695312 L 82.996094 28.683594 L 76.367188 21.222656 C 76.367188 21.222656 71.195312 26.390625 67.316406 27.25 C 64.761719 27.820312 62.148438 24.667969 62.148438 24.667969 L 58.269531 28.546875 C 58.269531 28.546875 58.40625 28.789062 58.660156 29.136719 L 58.632812 29.167969 L 58.886719 29.433594 C 59.167969 29.792969 59.542969 30.210938 59.996094 30.589844 L 68.8125 39.773438 L 65.800781 41.132812 C 49.230469 47.425781 61.210938 63.347656 61.71875 63.011719 C 61.761719 62.984375 61.800781 62.957031 61.84375 62.929688 L 61.875 62.972656 L 74.210938 54.613281 L 74.210938 56.980469 L 79.382812 62.582031 C 79.382812 62.582031 79.421875 62.542969 79.492188 62.476562 L 79.933594 62.914062 Z M 89.628906 53.003906 "/>
<path style=" stroke:none;fill-rule:nonzero;fill:currentColor;fill-opacity:1;" d="M 134.691406 63.335938 L 128.394531 56.199219 L 125.96875 58.507812 L 125.316406 57.824219 L 129.949219 53.421875 L 129.949219 10.207031 L 127.8125 11.398438 L 127.351562 10.578125 L 138.554688 4.332031 L 138.835938 4.835938 L 139 4.742188 L 139 5.125 L 139.011719 5.152344 L 139 5.160156 L 139 52.996094 L 141.464844 55.105469 L 143.160156 53.390625 L 143.832031 54.054688 L 135.335938 62.652344 Z M 134.691406 63.335938 "/>
<path style=" stroke:none;fill-rule:nonzero;fill:currentColor;fill-opacity:1;" d="M 157.425781 57.210938 C 150.414062 50.203125 152.175781 45.085938 153.59375 42.757812 L 162.910156 38.550781 L 162.910156 53.273438 Z M 151.101562 31.59375 C 155.125 32.15625 158.601562 27.144531 158.601562 27.144531 L 162.910156 33.175781 L 162.910156 37.367188 L 158.546875 39.335938 Z M 177.488281 53.222656 L 176.820312 52.554688 L 174.960938 54.414062 C 172.617188 53.460938 171.957031 51.703125 171.957031 51.703125 L 171.957031 29.628906 L 174.328125 27.378906 L 173.679688 26.695312 L 171.699219 28.574219 L 165.066406 21.113281 C 165.066406 21.113281 159.894531 26.28125 156.015625 27.144531 C 153.457031 27.714844 150.847656 24.558594 150.847656 24.558594 L 146.96875 28.4375 C 146.96875 28.4375 147.09375 28.660156 147.328125 28.984375 L 147.300781 29.007812 L 147.472656 29.1875 C 147.789062 29.601562 148.246094 30.121094 148.8125 30.574219 L 157.636719 39.75 L 152.347656 42.136719 L 152.410156 42.273438 C 138.679688 49.023438 149.714844 63.65625 150.199219 63.335938 C 150.292969 63.273438 150.386719 63.210938 150.480469 63.148438 L 150.582031 63.289062 L 162.910156 54.4375 L 162.910156 56.875 L 168.082031 62.476562 C 168.082031 62.476562 168.316406 62.242188 168.691406 61.871094 L 168.761719 61.945312 Z M 177.488281 53.222656 "/>
<path style=" stroke:none;fill-rule:nonzero;fill:currentColor;fill-opacity:1;" d="M 211.660156 55.824219 L 213.789062 53.648438 L 213.113281 52.988281 L 210.320312 55.847656 C 209.464844 55.664062 208.550781 55.007812 208.550781 52.992188 L 208.550781 31.335938 L 211.246094 28.78125 L 210.597656 28.097656 L 208.046875 30.515625 L 199.933594 22.40625 L 199.546875 22.722656 L 199.441406 22.808594 L 192.609375 28.4375 L 192.773438 28.589844 L 190.457031 30.597656 L 190.457031 30.160156 L 183.816406 22.382812 L 183.886719 22.316406 L 183.238281 21.632812 L 174.621094 29.816406 L 175.269531 30.503906 L 177.238281 28.632812 C 180.550781 29.285156 181.410156 32.636719 181.410156 32.636719 L 181.410156 53.828125 L 177.207031 57.824219 L 177.855469 58.507812 L 179.789062 56.671875 L 186.148438 63.332031 L 193.902344 56.007812 L 190.457031 53.425781 L 190.457031 31.820312 L 190.46875 31.835938 L 193.464844 29.238281 L 199.933594 35.332031 L 199.933594 54.289062 L 197.351562 56.871094 L 204.242188 63.332031 L 204.488281 63.089844 L 204.527344 63.125 L 207.71875 59.859375 L 211.78125 55.796875 C 211.78125 55.796875 211.738281 55.808594 211.660156 55.824219 "/>
<path style=" stroke:none;fill-rule:nonzero;fill:currentColor;fill-opacity:1;" d="M 341.675781 15.832031 L 340.984375 15.191406 L 349.496094 6.035156 L 350.1875 6.679688 L 350.171875 6.691406 L 355.542969 12.058594 L 357.59375 10.105469 L 358.242188 10.792969 L 349.410156 19.191406 L 349.035156 18.796875 L 348.976562 18.851562 L 343.738281 13.613281 Z M 341.675781 15.832031 "/>
<path style=" stroke:none;fill-rule:nonzero;fill:currentColor;fill-opacity:1;" d="M 358.988281 52.96875 L 358.304688 52.320312 L 356.25 54.476562 L 354.148438 52.027344 L 354.148438 30.179688 L 357.929688 26.402344 L 357.261719 25.734375 L 355.472656 27.523438 L 348.976562 21.4375 L 341.65625 27.898438 L 344.671875 30.484375 L 344.671875 53.082031 L 340.566406 57.1875 L 341.230469 57.851562 L 343.277344 55.804688 L 349.839844 62.367188 L 350.054688 62.136719 L 350.152344 62.234375 Z M 358.988281 52.96875 "/>
<path style=" stroke:none;fill-rule:nonzero;fill:currentColor;fill-opacity:1;" d="M 335.597656 27.46875 C 332.207031 26.703125 329.996094 23.160156 329.996094 23.160156 L 324.339844 30.433594 L 316.207031 22.730469 L 316.203125 22.734375 L 315.785156 22.273438 L 306.738281 30.457031 L 307.371094 31.15625 L 309.648438 29.09375 L 315.777344 35.222656 L 315.777344 55.042969 L 314.054688 56.765625 L 320.519531 63.226562 L 321.128906 62.691406 L 321.175781 62.75 L 329.441406 55.558594 L 328.824219 54.847656 L 326.855469 56.5625 L 324.394531 53.75 L 324.394531 31.277344 C 325.597656 32.269531 329.070312 34.949219 331.289062 34.792969 C 337.320312 34.359375 339.902344 30.914062 340.335938 26.175781 C 340.335938 26.175781 338.207031 28.058594 335.597656 27.46875 "/>
<path style=" stroke:none;fill-rule:nonzero;fill:currentColor;fill-opacity:1;" d="M 430.570312 55.816406 L 421.953125 64 L 421.304688 63.316406 L 421.371094 63.253906 L 414.980469 55.761719 L 405.5 63.378906 L 405.328125 63.167969 L 405.257812 63.226562 L 396.953125 54.921875 L 395.136719 56.648438 L 394.484375 55.964844 L 396.644531 53.914062 L 396.644531 32.636719 C 396.644531 30.390625 395.503906 29.832031 394.578125 29.738281 L 392.503906 31.8125 L 391.839844 31.144531 L 400.667969 22.3125 L 400.800781 22.445312 L 400.949219 22.296875 L 407.84375 28.757812 L 405.257812 31.347656 L 405.257812 50.304688 L 412.171875 56.808594 L 414.738281 54.746094 L 414.738281 32.207031 L 411.289062 29.621094 L 419.046875 22.296875 L 425.402344 28.964844 L 427.335938 27.125 L 427.988281 27.808594 L 423.78125 31.804688 L 423.78125 52.996094 C 423.78125 52.996094 424.476562 54.863281 428.101562 56.859375 L 429.921875 55.128906 Z M 430.570312 55.816406 "/>
<g clip-path="url(#oakland-tribune-clip1)" clip-rule="nonzero">
<path style=" stroke:none;fill-rule:nonzero;fill:currentColor;fill-opacity:1;" d="M 480.832031 25.605469 L 488.183594 41.527344 L 480.597656 46.953125 L 480.597656 25.722656 Z M 487.636719 57.554688 L 480.597656 50.519531 L 480.597656 48.109375 L 498.726562 35.148438 L 498.175781 34.382812 L 496.277344 35.742188 L 489.417969 21.21875 L 489.429688 21.210938 L 489 20.371094 L 469.613281 30.28125 L 470.042969 31.121094 L 471.980469 30.128906 L 471.980469 54.632812 L 470.046875 56.121094 C 470.046875 56.121094 470.988281 55.464844 472.1875 55.019531 L 481.03125 63.441406 L 481.328125 63.8125 L 496.40625 51.75 L 495.8125 51.011719 Z M 487.636719 57.554688 "/>
</g>
<path style=" stroke:none;fill-rule:nonzero;fill:currentColor;fill-opacity:1;" d="M 459.148438 63.347656 L 458.976562 63.175781 L 458.921875 63.226562 L 452.03125 56.765625 L 454.613281 54.179688 L 454.613281 35.222656 L 447.597656 28.617188 L 445.136719 30.546875 L 445.136719 53.320312 L 448.582031 55.902344 L 440.828125 63.226562 L 434.46875 56.5625 L 432.535156 58.398438 L 431.886719 57.714844 L 436.089844 53.726562 L 436.089844 32.527344 C 436.089844 32.527344 435.230469 29.179688 431.917969 28.527344 L 429.949219 30.394531 L 429.300781 29.710938 L 437.917969 21.523438 L 438.570312 22.210938 L 438.496094 22.273438 L 444.777344 29.632812 L 454.320312 22.144531 L 454.511719 22.382812 L 454.613281 22.296875 L 462.730469 30.417969 L 465.0625 28.203125 L 465.710938 28.886719 L 463.230469 31.242188 L 463.230469 52.886719 C 463.230469 55.222656 464.460938 55.738281 465.402344 55.796875 L 468.070312 53.144531 L 468.734375 53.8125 Z M 459.148438 63.347656 "/>
<path style=" stroke:none;fill-rule:nonzero;fill:currentColor;fill-opacity:1;" d="M 374.683594 26.753906 L 381.15625 33.714844 L 381.15625 55.492188 L 378.527344 57.257812 L 372.542969 50.949219 L 372.542969 28.179688 Z M 389.773438 29.621094 L 381.15625 21.4375 L 380.84375 21.640625 L 380.785156 21.554688 L 372.542969 27.046875 L 372.542969 5.589844 L 372.75 5.488281 L 372.332031 4.640625 L 359.945312 10.78125 L 360.363281 11.628906 L 363.0625 10.289062 L 363.0625 53.082031 L 360.683594 55.460938 L 361.351562 56.128906 L 363.386719 54.089844 L 371.679688 62.796875 L 372.011719 62.566406 L 372.105469 62.703125 L 389.769531 50.855469 L 389.714844 50.773438 L 389.773438 50.734375 Z M 389.773438 29.621094 "/>
<path style=" stroke:none;fill-rule:nonzero;fill:currentColor;fill-opacity:1;" d="M 117.21875 62.488281 L 117.210938 62.476562 L 116.808594 62.90625 L 105.175781 43.085938 C 105.175781 43.085938 109.714844 41.035156 111.640625 40.070312 C 116.707031 37.535156 115.558594 30.046875 111.046875 27.316406 L 102.59375 33.234375 L 102.59375 52.996094 L 105.25 55.273438 L 107 53.523438 L 107.667969 54.191406 L 98.617188 63.238281 L 97.953125 62.570312 L 97.964844 62.554688 L 93.113281 57.304688 C 93.113281 57.304688 91.726562 56.339844 89.238281 57.085938 C 89.039062 57.148438 93.976562 52.566406 93.976562 52.566406 L 93.976562 9.527344 L 91.175781 10.976562 L 90.742188 10.136719 L 102.375 4.105469 L 102.808594 4.941406 L 102.59375 5.054688 L 102.59375 32.082031 L 116.96875 22.019531 L 117.046875 22.128906 L 117.242188 21.972656 C 122.839844 25.421875 122.328125 29.28125 121.980469 31.023438 C 121.121094 35.332031 115.734375 38.242188 112.933594 39.640625 C 112.757812 39.726562 121.652344 52.609375 123.40625 55.144531 L 125.960938 52.65625 L 126.617188 53.332031 Z M 117.21875 62.488281 "/>
<path style=" stroke:none;fill-rule:nonzero;fill:currentColor;fill-opacity:1;" d="M 302.566406 57.949219 C 300.578125 58.65625 298.464844 59.039062 296.269531 59.039062 C 292.417969 59.039062 288.8125 57.863281 285.699219 55.820312 C 287.820312 54.832031 292.359375 52.089844 294.621094 49.871094 C 296.839844 47.691406 298.496094 44.269531 298.496094 40.824219 L 298.496094 14.722656 L 298.574219 14.671875 C 299.917969 14.855469 301.269531 15.003906 302.566406 15.085938 Z M 309.699219 14.542969 C 316.59375 11.957031 318.746094 6.355469 320.039062 1.617188 C 320.105469 1.367188 315.730469 7.21875 308.835938 7.648438 C 304.871094 7.894531 292.902344 1.789062 282.554688 1.617188 C 276.09375 1.507812 268.984375 3.34375 265.96875 7.21875 C 263.722656 10.101562 261.875 17.128906 264.890625 21.003906 C 264.890625 21.003906 264.890625 15.402344 267.042969 12.820312 C 269.199219 10.234375 274.15625 8.078125 286.648438 12.171875 C 288.09375 12.644531 292.484375 13.742188 297.191406 14.46875 L 284.902344 22.847656 L 285.433594 23.628906 L 288.15625 21.773438 L 288.15625 50.300781 C 288.15625 50.300781 287.949219 52.804688 285.160156 55.460938 C 279.082031 51.199219 275.027344 43.550781 275.027344 34.816406 C 275.027344 25.03125 280.117188 16.601562 287.445312 12.78125 L 285.757812 13.011719 L 283.945312 13.398438 L 282.636719 13.695312 L 281.300781 14.195312 C 271.683594 17.867188 264.851562 27.15625 264.851562 38.039062 C 264.851562 52.132812 276.3125 63.558594 290.445312 63.558594 C 300.355469 63.558594 308.949219 57.945312 313.207031 49.734375 L 313.0625 49.65625 C 310.621094 53.242188 307.320312 56.019531 303.511719 57.59375 L 303.511719 15.136719 C 305.984375 15.246094 308.199219 15.105469 309.699219 14.542969 "/>
<path style=" stroke:none;fill-rule:nonzero;fill:currentColor;fill-opacity:1;" d="M 231.773438 57.539062 L 225.113281 51.273438 L 225.113281 26.9375 L 226.574219 25.832031 C 230.386719 29.527344 234.160156 33.175781 234.160156 33.175781 L 234.160156 56.027344 Z M 238.957031 54.105469 L 245.480469 49.976562 L 244.976562 49.175781 L 243.207031 50.296875 L 243.207031 29.730469 L 225.976562 13.789062 C 225.976562 13.789062 220.625 8.9375 220.375 6.894531 C 219.875 2.835938 222.3125 -0.0898438 222.097656 0.00390625 C 216.433594 2.394531 214.773438 6.894531 214.773438 10.773438 C 214.773438 14.648438 216.925781 16.375 219.082031 18.527344 C 220 19.449219 222.886719 22.253906 225.890625 25.167969 L 214.058594 34.09375 L 214.625 34.84375 L 216.066406 33.761719 L 216.066406 54.71875 L 225.113281 62.90625 L 227.402344 61.425781 L 234.160156 57.144531 L 234.160156 57.304688 Z M 238.957031 54.105469 "/>
</g>
</svg>
