<svg xmlns="http://www.w3.org/2000/svg" xmlns:xlink="http://www.w3.org/1999/xlink" viewBox="117.055 67.702 365.89 272.596" width="365.89" height="272.596" color="#000000" role="img" aria-label="Fakeville Daily News (placeholder)">
<title>Fakeville Daily News (placeholder)</title>
<path transform="translate(117.055 67.702)" d="M 45.89645876055172 0 L 46.39836502075195 14.746989822773973 L 44.33498207260626 14.746989822773973 C 43.94461119707595 11.507121361118141 42.996568924326354 8.825849061644021 41.60238723193952 6.759036336203998 C 40.20820553955268 4.6363638613656555 38.70248426596084 3.351588168546451 37.19676797835127 2.79299013351891 C 35.691051690741695 2.2343920984913686 33.069992442494154 2.0109509783394866 29.389352628337427 2.0109509783394866 L 17.84552991725637 2.0109509783394866 L 17.84552991725637 27.092001098809877 L 23.36648814269678 27.092001098809877 C 26.935593195431366 27.092001098809877 29.333579015148516 26.47754493751707 30.504691600189588 25.304489118063668 C 31.67580418523066 24.075573465974355 32.28925310132497 21.673606073073667 32.28925310132497 18.042719032679233 L 34.46417313768453 18.042719032679233 L 34.46417313768453 38.87842287167146 L 32.28925310132497 38.87842287167146 C 32.28925310132497 36.36473181809452 32.010409549793245 34.35378050680466 31.508504120590057 32.90142569064689 C 31.006598691386866 31.449070874489117 30.225857854422998 30.443589267356327 29.22204699601662 29.884991232328787 C 28.21823613761024 29.326393197301247 26.266385956493778 29.102957404355276 23.36648814269678 29.102957404355276 L 17.84552991725637 29.102957404355276 L 17.84552991725637 43.794080818723536 C 17.84552991725637 48.430444347138824 17.95706147933989 51.50274088550783 18.180130545135803 52.955095701665606 C 18.403199610931715 54.40745051782338 19.01663784871399 55.4687851321095 19.964681409509005 56.13910274917127 C 20.91272497030402 56.80942036623304 22.75304230129154 57.20044198314377 25.42987109084248 57.20044198314377 L 27.43749613164342 57.20044198314377 L 27.43749613164342 59.21138763427734 L 0 59.21138763427734 L 0 57.20044198314377 L 1.8403194084801364 57.20044198314377 C 4.349846388296678 57.20044198314377 6.134401989353036 56.86528273761552 7.08244555014805 56.25082491157087 C 8.030489110943062 55.63636708552621 8.699697160102769 54.63088552001222 8.978533502735122 53.234390453252765 C 9.257369845367474 51.83789538649331 9.368902674721486 48.70974342708079 9.368902674721486 43.794080818723536 L 9.368902674721486 14.746989822773973 C 9.368902674721486 10.054766544960366 9.257369845367474 6.98247658236116 8.978533502735122 5.641841348237617 C 8.699697160102769 4.301206114114073 8.1420274456525 3.351588168546451 7.249751182468855 2.79299013351891 C 6.357474919285209 2.2343920984913686 4.405615264802431 2.0109509783394866 1.4499502364937709 2.0109509783394866 L 0.39036917198636534 2.0109509783394866 L 0.39036917198636534 0 L 45.95222730465865 0 L 45.89645876055172 0 Z" fill="currentColor"/>
<path transform="translate(159.104 84.851)" d="M 26.935589748085818 26.756845311065533 L 11.209222031866563 26.756845311065533 L 10.149640972211738 29.382262859816517 C 8.532390262985393 33.18072948775064 7.751646770406565 35.69442012937118 7.751646770406565 36.811616201306954 C 7.751646770406565 38.040531855465034 8.197782323864374 38.990149802631244 9.034291368705382 39.66046742082143 C 9.870800413546391 40.33078503901162 10.986145280369612 40.610073839581084 12.268792454759257 40.610073839581084 L 12.268792454759257 42.006568908691406 L 0 42.006568908691406 L 0 40.610073839581084 C 1.8403198986502198 40.33077482159714 3.1787317112053013 39.66046575606958 4.071007970302575 38.654989266356104 C 4.963284229399848 37.64951277664263 6.022861881966803 35.526832973322826 7.305509056356449 32.28696450621298 C 7.417043588743608 32.00766548822904 7.918950241368851 30.778754599423138 8.75545928620986 28.767801619996185 L 20.74541965847359 0 L 21.916527169069347 0 L 35.746806941385074 32.90142574603332 L 37.6428948852886 37.25849419724579 C 38.089033014837234 38.20811085422932 38.64671338427059 38.990147222265875 39.371687834399665 39.548745258233765 C 40.09666228452874 40.107343294201655 41.15622938343326 40.44249443503354 42.606178283691406 40.610073839581084 L 42.606178283691406 42.006568908691406 L 26.322146402481106 42.006568908691406 L 26.322146402481106 40.610073839581084 C 28.32976811009953 40.610073839581084 29.66818927137133 40.4424948616262 30.337396465694283 40.16319584364226 C 31.062370915823355 39.88389682565831 31.396966888586977 39.269442015942 31.396966888586977 38.43154494118077 C 31.396966888586977 37.984666529053975 30.95082875903834 36.64403512160286 30.0027852025851 34.40964297773131 L 26.824052660382755 26.756845311065533 L 26.935589748085818 26.756845311065533 Z M 26.377904309570507 25.36035024195521 L 19.07240588997619 7.708653420753688 L 11.766886196857609 25.36035024195521 L 26.377904309570507 25.36035024195521 Z" fill="currentColor"/>
<path transform="translate(205.781 85.41)" d="M 12.54763472940086 21.11500333137874 L 25.151027363915382 9.71960944338899 C 28.10669227395616 7.0941987974532115 29.556646441217325 5.194964290865047 29.556646441217325 4.07776825183677 C 29.556646441217325 2.4019741516755584 28.10669227395616 1.5082146277168977 25.151027363915382 1.3964950279759494 L 25.151027363915382 0 L 40.71009953401809 0 L 40.71009953401809 1.3964950279759494 C 39.427452405078085 1.3964950279759494 38.14479173088679 1.6757918943650743 36.86214460194678 2.234389913879213 C 35.579497473006775 2.7929879333933516 34.40838834191432 3.4633048659383205 33.2930430160143 4.301201916018926 C 32.177697690114286 5.139098966099532 30.225854318174886 6.982479135284072 27.270189408134108 9.71960944338899 L 19.74159580637949 16.702084583268736 L 35.24491007136854 32.39868571448318 C 38.758247769008875 36.0295726540405 41.15624279993963 38.20810548367562 42.327355338119844 38.93428287158708 C 43.55423517167995 39.71632009058312 45.05995223003685 40.05147250132092 47.0118064880371 40.05147250132092 L 47.0118064880371 41.447967529296875 L 25.541396520281527 41.447967529296875 L 25.541396520281527 40.05147250132092 L 26.37791401165099 40.05147250132092 C 28.720139088011415 40.05147250132092 30.114313993535713 39.88390162315779 30.727753910315766 39.49288301365977 C 31.285426573265774 39.10186440416175 31.564271401685225 38.65498471501531 31.564271401685225 38.040526906035396 C 31.564271401685225 37.20262985595479 30.114317234424057 35.303393934327595 27.15865232438328 32.342824634834756 L 15.50329299146554 20.556403189306057 L 12.54763472940086 23.125959581075797 L 12.54763472940086 30.66703486302823 C 12.54763472940086 33.906903234706334 12.603385830726484 36.085433400738566 12.77068762337901 37.09090986083529 C 12.937989416031535 38.09638632093201 13.328367100504517 38.82256154466614 13.997574271114617 39.3252997747145 C 14.666781441724718 39.82803800476287 15.8936629788287 40.05147250132092 17.78975002454876 40.05147250132092 L 18.57048833728105 40.05147250132092 L 18.57048833728105 41.447967529296875 L 0 41.447967529296875 L 0 40.05147250132092 L 1.2826445528492671 40.05147250132092 C 3.0671970078095327 40.05147250132092 4.29407605192248 39.828039253326715 4.96328322253258 39.381160854362925 C 5.632490393142679 38.934282455399135 6.078616623625474 38.208100322945036 6.301685680495507 37.31434352501745 C 6.468987473148032 36.364726896005294 6.580539026634332 34.18620363869304 6.580539026634332 30.72289594267665 L 6.580539026634332 10.389921090346988 C 6.580539026634332 6.982473142177585 6.46899683225188 4.8039405622552405 6.245927775381847 3.8543239332430836 C 6.022858718511814 2.9047073042309273 5.632490393142679 2.29025396927148 4.96328322253258 1.955095170048635 C 4.349843305752525 1.6199363708257901 2.8441220093108637 1.452356107624371 0.5576641452306352 1.452356107624371 L 0.5576641452306352 0.0558610796484215 L 18.849320409896368 0.0558610796484215 L 18.849320409896368 1.452356107624371 L 18.068582097164075 1.452356107624371 C 16.00519324840403 1.452356107624371 14.722539346838378 1.6199363708257901 14.053332176228277 1.955095170048635 C 13.384125005618177 2.29025396927148 12.993756680249042 2.9047073042309273 12.77068762337901 3.8543239332430836 C 12.547618566508977 4.8039405622552405 12.436097645650031 6.926613394330605 12.436097645650031 10.389921090346988 L 12.436097645650031 21.17086441102716 L 12.54763472940086 21.11500333137874 Z" fill="currentColor"/>
<path transform="translate(257.199 85.354)" d="M 33.68343370752264 28.600218461973537 L 35.13337326049805 28.600218461973537 L 34.24109785708464 41.50382995605469 L 0 41.50382995605469 L 0 40.107334882752035 L 0.8365174978666783 40.107334882752035 C 2.899906362653032 40.107334882752035 4.238315603637011 39.82803800729764 4.795988270918453 39.26943996965282 C 5.409428192463086 38.710841932008 5.79979395516091 38.04053030491218 5.967095749112865 37.20263322763555 C 6.13439754306482 36.36473615035892 6.190169918347135 34.18620474829081 6.190169918347135 30.722896939864214 L 6.190169918347135 10.38992142757757 C 6.190169918347135 7.261772450061622 6.078639637518089 5.139105958384305 5.911337843566134 4.133629465652353 C 5.744036049614179 3.128152972920401 5.353670286916355 2.4578347284359507 4.740230365371723 2.0109563149676144 C 4.12679044382709 1.6199376927781208 2.788371771026952 1.3964950733026489 0.8365174978666783 1.3964950733026489 L 0.8365174978666783 0 L 30.39316416865 0 L 31.396976656680543 10.33406034611604 L 29.94703710370513 10.33406034611604 C 29.27782992789731 7.429350700190649 28.497086498469375 5.418406204961208 27.549042968245907 4.189490547113884 C 26.600999438022438 2.9605748892665606 25.48564138920517 2.234392962145805 24.202994250302865 1.8992341520445526 C 22.92034711140056 1.5640753419433002 20.801206241146307 1.45235615476418 17.901308520862266 1.45235615476418 L 12.15726566746 1.45235615476418 L 12.15726566746 18.824752948854993 L 16.562884778980315 18.824752948854993 C 18.57050643105333 18.824752948854993 19.964678605116003 18.65717268021434 20.801187626813093 18.32201387011309 C 21.58192935269714 17.986855060011838 22.13961647932671 17.428263827040226 22.362685537929316 16.757946206837723 C 22.585754596531924 16.031768795356374 22.753054697327453 14.691134803515258 22.753054697327453 12.624322068391308 L 24.202994250302865 12.624322068391308 L 24.202994250302865 26.812706472852046 L 22.753054697327453 26.812706472852046 C 22.753054697327453 24.522454572612723 22.529972862145684 22.958380500042715 22.195369274241774 22.176343255663728 C 21.80499841129975 21.39430601128474 21.247329982103103 20.891565226172183 20.522355552032092 20.668126019438017 C 19.79738112196108 20.44468681270385 18.51473223796504 20.332970185080704 16.730179769144183 20.332970185080704 L 12.213044846530405 20.332970185080704 L 12.213044846530405 30.164296779660777 C 12.213044846530405 35.07995941105007 12.547638233945912 37.984664895095825 13.161078155490545 38.822561972372455 C 13.774518077035177 39.660459049649084 15.503302419045975 40.107334882752035 18.23589850119 40.107334882752035 L 21.303093870828366 40.107334882752035 C 23.478017161041397 40.107334882752035 25.262585917403815 39.82803800729764 26.656767564832496 39.26943996965282 C 28.050949212261177 38.710841932008 29.389349104528698 37.5377920585462 30.671996243431003 35.806138154332906 C 31.95464338233331 34.07448425011961 32.95845927745163 31.672507689829438 33.68343370752264 28.600218461973537 Z" fill="currentColor"/>
<path transform="translate(294.618 85.354)" d="M 24.147215368904934 42.509307861328125 L 22.25112745408714 42.509307861328125 L 7.974699549957623 9.552026457805589 C 7.695863212879573 8.937568632527544 7.305506825248514 7.932096390878353 6.747834151092415 6.479741576532569 C 5.9670924155838465 4.524648518803586 5.130579145489925 3.1840076678151696 4.238302900080048 2.513690051589701 C 3.3460266546701702 1.8433724353642322 1.95185429722157 1.5082159474993828 0 1.4523561461472605 L 0 0.055861081130103706 L 17.789750382022895 0.055861081130103706 L 17.789750382022895 1.4523561461472605 C 15.559059685398498 1.4523561461472605 14.10911504546722 1.6199364137936476 13.328373309958652 1.955095221906382 C 12.547631574450083 2.290254030019116 12.15724454380359 2.904711459918598 12.15724454380359 3.7984682815525566 C 12.15724454380359 4.412926106830602 12.659161846266544 5.7535655011611535 13.607205388176927 7.9320977226798295 L 25.485639127286177 35.41512102839395 L 35.02183660760924 12.512599831230213 C 36.63908729202718 8.658273465100876 37.4198307726295 6.20044124837518 37.4198307726295 5.0273854303853085 C 37.4198307726295 2.6812737944055662 35.74681603259947 1.4523548663692791 32.456547450362784 1.3964950650171568 L 32.456547450362784 0 L 45.059940338134766 0 L 45.059940338134766 1.3964950650171568 C 43.77729318342075 1.3964950650171568 42.661944511120446 1.8992333084003554 41.65813367270955 2.7929901300343136 C 40.65432283429866 3.6867469516682716 39.81780960575459 4.971520020900406 39.148602421697184 6.647314165511068 L 36.36023909246654 13.182911495967835 L 24.091457462670853 42.45344678019802 L 24.147215368904934 42.509307861328125 Z" fill="currentColor"/>
<path transform="translate(344.028 85.466)" d="M 0.05577917833625139 1.3964950279759494 L 0.05577917833625139 0 L 18.960857391357422 0 L 18.960857391357422 1.3964950279759494 L 18.06860327321133 1.3964950279759494 C 16.06098164756217 1.3964950279759494 14.722560540936817 1.5640752911773688 14.053353373936947 1.8992340904002134 C 13.43991346046627 2.234392889623058 12.993777883673896 2.848846224582506 12.770708828007272 3.7984628535946623 C 12.547639772340649 4.748079482606819 12.436097578559943 6.870752314682184 12.436097578559943 10.334060010698567 L 12.436097578559943 30.66703486302823 C 12.436097578559943 33.906903234706334 12.491869953108196 36.085433400738566 12.659171744858163 37.09090986083529 C 12.82647353660813 38.09638632093201 13.216851218975108 38.82256154466614 13.886058385974978 39.3252997747145 C 14.555265552974848 39.82803800476287 15.837914295439411 40.05147250132092 17.678234118951142 40.05147250132092 L 18.905120760067955 40.05147250132092 L 18.905120760067955 41.447967529296875 L 0 41.447967529296875 L 0 40.05147250132092 L 1.2268866411168153 40.05147250132092 C 3.011439086449802 40.05147250132092 4.238318123943999 39.828039253326715 4.907525290943869 39.381160854362925 C 5.576732457943739 38.934282455399135 6.022868045123575 38.208100322945036 6.190169836873542 37.31434352501745 C 6.357471628623509 36.364726896005294 6.46900190798462 34.186192984281504 6.46900190798462 30.72288528826512 L 6.46900190798462 10.389921090346988 C 6.46900190798462 7.094192970821906 6.357471628623509 4.9715238012005045 6.190169836873542 4.021907172188349 C 6.022868045123575 3.072290543176192 5.576744382750796 2.4019695319893097 4.96330446928012 2.010950922491292 C 4.349864555809443 1.6199323129932743 2.95566422929799 1.452356107624371 0.8922753916694858 1.452356107624371 L 0 1.452356107624371 L 0.05577917833625139 1.3964950279759494 Z" fill="currentColor"/>
<path transform="translate(368.064 85.466)" d="M 35.412208557128906 29.214677804609817 L 35.133397730504996 41.39210510253906 L 0 41.39210510253906 L 0 39.99561012001215 L 1.226886768888606 39.99561012001215 C 3.0114394000704348 39.99561012001215 4.238297291810022 39.7721768792896 4.907504528503208 39.3252984948695 C 5.576711765196394 38.8784201104494 6.022880586784622 38.15223800162895 6.2459496656823505 37.25848123278875 C 6.4690187445800795 36.308864634681946 6.524760492306259 34.1303414482699 6.524760492306259 30.667033864967145 L 6.524760492306259 10.334059674375762 C 6.524760492306259 7.038331662110414 6.413251474855647 4.915662561571449 6.2459496656823505 3.9660459634646417 C 6.078647856509054 3.016429365357834 5.632502874149962 2.346108375986602 5.019062896793745 1.955089779214316 C 4.405622919437528 1.5640711824420301 3.067189665516829 1.3964949825269077 0.9480333952134804 1.3964949825269077 L 0.05577918414526851 1.3964949825269077 L 0.05577918414526851 0 L 19.908914034739173 0 L 19.908914034739173 1.3964949825269077 L 18.068583881406262 1.3964949825269077 C 16.06096204667714 1.3964949825269077 14.722540800664454 1.564075240274414 14.053333563971268 1.899234028589489 C 13.439893586615051 2.234392816904564 12.993779236886338 2.848846131866579 12.77071015798861 3.798462729973387 C 12.547641079090882 4.748079328080195 12.436120147219432 6.870752091073003 12.436120147219432 10.334059674375762 L 12.436120147219432 32.007667769663634 C 12.436120147219432 35.02409705178388 12.491849980524778 36.86747158405711 12.659151789698074 37.64950877760168 C 12.82645359887137 38.43154597114626 13.272622430847061 38.99014097592763 13.997596926877216 39.381159572699914 C 14.722571422907372 39.7721781694722 16.284022774054076 39.99561012001215 18.6262480817053 39.99561012001215 L 21.749244188072083 39.99561012001215 C 24.3145386992706 39.99561012001215 26.154870514597697 39.7721768792896 27.38175046931013 39.3252984948695 C 28.608630424022564 38.8784201104494 29.779727787501642 37.928801015214965 30.89507322354014 36.420586374154844 C 32.01041865957864 34.91237173309472 33.01423464602548 32.51040581687516 33.90651096161639 29.214677804609817 L 35.356429372983634 29.214677804609817 L 35.412208557128906 29.214677804609817 Z" fill="currentColor"/>
<path transform="translate(407.882 85.466)" d="M 35.412208557128906 29.214677804609817 L 35.133397730504996 41.39210510253906 L 0 41.39210510253906 L 0 39.99561012001215 L 1.226886768888606 39.99561012001215 C 3.0114394000704348 39.99561012001215 4.238297291810022 39.7721768792896 4.907504528503208 39.3252984948695 C 5.576711765196394 38.8784201104494 6.022880586784622 38.15223800162895 6.2459496656823505 37.25848123278875 C 6.413251474855647 36.308864634681946 6.524760492306259 34.1303414482699 6.524760492306259 30.667033864967145 L 6.524760492306259 10.334059674375762 C 6.524760492306259 7.038331662110414 6.413251474855647 4.915662561571449 6.2459496656823505 3.9660459634646417 C 6.022880586784622 3.016429365357834 5.632502874149962 2.346108375986602 5.019062896793745 1.955089779214316 C 4.405622919437528 1.5640711824420301 3.067189665516829 1.3964949825269077 0.9480333952134804 1.3964949825269077 L 0.05577918414526851 1.3964949825269077 L 0.05577918414526851 0 L 19.908914034739173 0 L 19.908914034739173 1.3964949825269077 L 18.068583881406262 1.3964949825269077 C 16.005194828890026 1.3964949825269077 14.722583347715672 1.564075240274414 14.053376111022486 1.899234028589489 C 13.3841688743293 2.234392816904564 12.993779236886338 2.848846131866579 12.77071015798861 3.798462729973387 C 12.547641079090882 4.692219498813587 12.436120147219432 6.870752091073003 12.436120147219432 10.334059674375762 L 12.436120147219432 32.007667769663634 C 12.436120147219432 35.02409705178388 12.491892527575995 36.86747158405711 12.659194336749291 37.64950877760168 C 12.826496145922587 38.43154597114626 13.272622430847061 38.99014097592763 13.997596926877216 39.381159572699914 C 14.722571422907372 39.7721781694722 16.28406532110529 39.99561012001215 18.626290628756514 39.99561012001215 L 21.749244188072083 39.99561012001215 C 24.3145386992706 39.99561012001215 26.154870514597697 39.7721768792896 27.38175046931013 39.3252984948695 C 28.608630424022564 38.8784201104494 29.779727787501642 37.928801015214965 30.89507322354014 36.420586374154844 C 32.01041865957864 34.91237173309472 33.01423464602548 32.51040581687516 33.90651096161639 29.214677804609817 L 35.35647192003485 29.214677804609817 L 35.412208557128906 29.214677804609817 Z" fill="currentColor"/>
<path transform="translate(447.811 85.354)" d="M 33.68338961245272 28.600218461973537 L 35.13335037231445 28.600218461973537 L 34.24109628343096 41.50382995605469 L 0 41.50382995605469 L 0 40.107334882752035 L 0.8364749123765849 40.107334882752035 C 2.899863682333635 40.107334882752035 4.2383154088523405 39.82803800729764 4.795988050504242 39.26943996965282 C 5.409427943856379 38.710841932008 5.799793688613758 38.04053030491218 5.967095474876851 37.20263322763555 C 6.134397261139944 36.36473615035892 6.190169633859071 34.18620474829081 6.190169633859071 30.722896939864214 L 6.190169633859071 10.38992142757757 C 6.190169633859071 7.261772450061622 6.078618084633042 5.139105958384305 5.911316298369949 4.133629465652353 C 5.744014512106856 3.128152972920401 5.353648767349476 2.4578347284359507 4.740208873997339 2.0109563149676144 C 4.126768980645203 1.6199376927781208 2.7883290958334657 1.3964950733026489 0.8364749123765849 1.3964950733026489 L 0.8364749123765849 0 L 30.39314149831711 0 L 31.3411747637075 10.33406034611604 L 29.89125655089116 10.33406034611604 C 29.22204940583879 7.429350700190649 28.441306012292287 5.418406204961208 27.49326252563904 4.189490547113884 C 26.545219038985792 2.9605748892665606 25.429839767905495 2.234392962145805 24.147192687951136 1.8992341520445526 C 22.864545607996778 1.5640753419433002 20.74540483513408 1.45235615476418 17.845507248123653 1.45235615476418 L 12.10148593222902 1.45235615476418 L 12.10148593222902 18.824752948854993 L 16.507104841275726 18.824752948854993 C 18.51472640108239 18.824752948854993 19.908877237548946 18.65717268021434 20.745386220801723 18.32201387011309 C 21.526127910804416 17.986855060011838 22.08383628532647 17.428263827040226 22.30690533367726 16.757946206837723 C 22.58574165450321 16.031768795356374 22.697274475134797 14.691134803515258 22.697274475134797 12.624322068391308 L 24.147192687951136 12.624322068391308 L 24.147192687951136 26.812706472852046 L 22.697274475134797 26.812706472852046 C 22.697274475134797 24.522454572612723 22.5299386491579 22.958380500042715 22.139567804156552 22.176343255663728 C 21.749196959155206 21.39430601128474 21.1915498291106 20.891565226172183 20.466575432357992 20.668126019438017 C 19.741601035605385 20.44468681270385 18.458964176913884 20.332970185080704 16.730179000257944 20.332970185080704 L 12.157265108735922 20.332970185080704 L 12.157265108735922 30.164296779660777 C 12.157265108735922 35.07995941105007 12.491858480774175 37.984664895095825 13.105298374126312 38.822561972372455 C 13.718738267478448 39.660459049649084 15.447501256515016 40.107334882752035 18.180097213074287 40.107334882752035 L 21.247313715273066 40.107334882752035 C 23.422236905530887 40.107334882752035 25.20678430635533 39.82803800729764 26.60096588971016 39.26943996965282 C 27.99514747306499 38.710841932008 29.333568577344973 37.5377920585462 30.616215657299332 35.806138154332906 C 31.89886273725369 34.07448425011961 32.9026785862386 31.672507689829438 33.62765298299121 28.600218461973537 L 33.68338961245272 28.600218461973537 Z" fill="currentColor"/>
<path transform="translate(140.199 143.225)" d="M 93.57746887207031 46.19605688727417 C 93.57746887207031 52.61993371657864 92.46214385516892 58.42935633201733 90.28722048351179 63.56845799523112 C 88.11229711185466 68.70755965844491 85.32392174622424 73.06463153104163 81.86635110453396 76.47207939105024 C 78.40878046284368 79.87952725105886 74.72814328873854 82.50493433308878 70.82443459623626 84.23658813629396 C 62.57087882802089 87.92333506126155 52.42123243816842 89.71084594726562 40.431269289456885 89.71084594726562 L 0 89.71084594726562 L 0 83.67797735426267 C 3.73640704809734 83.67797735426267 6.580540155163024 83.34282620076006 8.476627286612517 82.61664883163695 C 10.37271441806201 81.89047146251384 11.65536197894413 80.82912496056916 12.213034667108678 79.37677022232296 C 12.770707355273226 77.92441548407676 13.105310103935023 75.91347110614659 13.105310103935023 73.23220078173624 L 13.105310103935023 17.20481787334757 C 13.105310103935023 13.350491709174813 12.324567933316102 10.669227710821152 10.763084423075307 9.105153313296325 C 9.201600912834513 7.541078915771498 5.576726798545777 6.759041300821145 0 6.759041300821145 L 0 0.6144612058231733 L 19.01663753210012 0.2234443128125189 C 19.685844732967666 0.2234443128125189 22.30690819137957 0.22344175325669036 26.99135855590254 0.11172215640625945 C 31.67580892042551 0.0000025595558285212983 34.352642211279765 0 35.07761666849881 0 C 42.327361240689264 0 48.517526404856696 0.3910241346808033 53.59234793778883 1.1730613334432167 C 58.667169470720964 1.9550985322056302 63.29585262044229 3.239875612760837 67.53416493415327 4.971529415966009 C 71.43787362665554 6.535603813490836 75.00696872598454 8.714127097675824 78.24147017606941 11.56297682776651 C 81.47597162615429 14.411826557857196 84.26435380596051 17.595842091265958 86.4950445586187 21.17086919047975 C 88.72573531127689 24.74589628969354 90.45452229411615 28.711944277322203 91.68140218314824 32.90142925285565 C 92.90828207218033 37.090914228389096 93.52171096443561 41.559693607576584 93.52171096443561 46.19605688727417 L 93.57746887207031 46.19605688727417 Z M 72.38591129230124 45.80503999426351 C 72.38591129230124 36.588173181270065 70.65713361662895 28.879524182428074 67.14379576013702 22.67908633873049 C 63.63045790364509 16.478648495032903 58.890232679147616 12.177436368837924 52.86736749739103 9.775464942911373 C 50.24630590872249 8.714128762427581 47.45795430960771 8.043818402185748 44.55805648073152 7.764519399654972 C 41.65815865185534 7.485220397124197 37.419843678953804 7.317641428441188 31.898884095209674 7.317641428441188 L 31.898884095209674 69.71302743581784 C 31.898884095209674 73.28805453503162 32.066186757586 75.91347376974939 32.400790358019776 77.53340791367594 C 32.73539395845355 79.1533420576025 33.794967736471555 80.43810723518263 35.467985842515056 81.27600426358435 C 37.141003948558556 82.11390129198608 39.817822613864735 82.56077709902257 43.38692768515831 82.56077709902257 C 53.982708469435764 82.56077709902257 61.45553685877969 78.874042493218 65.86115114929443 71.4446888968811 C 70.26676543980916 64.01533530054421 72.44169047346041 55.46877612176159 72.44169047346041 45.86089041805539 L 72.38591129230124 45.80503999426351 Z" fill="currentColor"/>
<path transform="translate(237.903 169.702)" d="M 62.84971237182617 63.289154052734375 L 33.627655145319665 63.289154052734375 L 33.627655145319665 59.09966898131486 C 36.08141487651009 59.09966898131486 37.92174148907858 58.932088718613784 39.03708684410142 58.5969299203916 C 40.152432199124256 58.26177112216942 40.71010059700095 57.423869808664 40.71010059700095 56.08323461577529 C 40.71010059700095 55.189477820516146 40.54280730731213 54.23986119433921 40.152436437209126 53.29024456816228 L 37.19677809796915 45.972624281062906 L 17.064791336032997 45.972624281062906 L 15.559072576366198 49.994536768449 C 14.722563539324144 52.28478858751465 14.276427990025752 53.904707452800615 14.276427990025752 54.910183909895345 C 14.276427990025752 56.75355741456901 15.001387143050309 57.926628513658464 16.39556881605393 58.37350691128803 C 17.789750489057553 58.8762451398354 19.462786346478186 59.09966898131486 21.35887344170704 59.09966898131486 L 21.35887344170704 63.289154052734375 L 0 63.289154052734375 L 0 59.09966898131486 C 1.728785287820444 59.09966898131486 3.1787274434844273 58.76452040050683 4.3498400122436 58.150062593361476 C 5.520952581002773 57.47974499691712 6.692068639949488 56.30668059845365 7.751646698136288 54.519167007935366 C 8.811224756323089 52.73165341741708 9.982343308260905 50.21795877870149 11.264990470692155 46.922230669016294 L 29.166278046412884 0 L 33.51611805865649 0 L 52.42123941434581 48.37459742671594 C 53.815421087349435 51.7820453647119 54.819215727357744 54.1281450284824 55.43265566015535 55.301200811855324 C 56.101862848239136 56.530116426146044 56.93839062426431 57.42387326302398 58.10950319302348 58.094190859468334 C 59.22484854804632 58.76450845591269 60.84209068292524 59.09966898131486 62.84971237182617 59.09966898131486 L 62.84971237182617 63.289154052734375 Z M 35.579522251639176 41.44797273275355 L 27.047115946860643 19.77436399680614 L 18.905100082165266 41.44797273275355 L 35.579522251639176 41.44797273275355 Z" fill="currentColor"/>
<path transform="translate(306.33 170.819)" d="M 31.45273522405277 62.171958923339844 L 0 62.171958923339844 L 0 57.982473504789894 C 2.6210615456700763 57.982473504789894 4.628681494893503 57.75903770020295 5.9670958746719345 57.20043963607253 C 7.305510254450366 56.69770136586951 8.197793363361534 55.91566500002425 8.588164234517706 54.91018845961821 C 8.978535105673878 53.904711919212176 9.20160757605813 52.45235453025902 9.20160757605813 50.60898087284796 L 9.20160757605813 11.562988704904267 C 9.20160757605813 8.881718096963368 8.643917903152806 6.982471452465821 7.528572545120928 5.865275324204981 C 6.413227187089051 4.748079195944141 3.9037086284620175 4.189485418549952 0 4.189485418549952 L 0 0 L 31.45273522405277 0 L 31.45273522405277 4.189485418549952 C 28.831673678382693 4.189485418549952 26.824053729159267 4.468781017064297 25.485639349380836 4.971519287267315 C 24.147224969602405 5.474257557470332 23.254941860691236 6.256293923315598 22.864570989535064 7.261770463721632 C 22.474200118378892 8.267247004127666 22.25112764799464 9.663755295184599 22.25112764799464 11.562988704904267 L 22.25112764799464 50.60898087284796 C 22.25112764799464 52.39649461147523 22.474200118378892 53.79298975099187 22.864570989535064 54.79846629139791 C 23.254941860691236 55.803942831803944 24.091467062882423 56.58599114224433 25.429881442660854 57.144589206374754 C 26.768295822439285 57.703187270505175 28.720151050767033 57.982473504789894 31.508514404296875 57.982473504789894 L 31.508514404296875 62.171958923339844 L 31.45273522405277 62.171958923339844 Z" fill="currentColor"/>
<path transform="translate(343.973 170.931)" d="M 55.711490631103516 41.33625363082797 L 55.32112144428688 62.11610794067383 L 0.05575790946301817 62.11610794067383 L 0.05575790946301817 57.92662255941939 C 3.8479322967091134 57.92662255941939 6.301690410139334 57.36801938114955 7.417035823041109 56.30668309788311 C 8.532381235942886 55.18948697956774 9.034291753295808 53.2902510063899 9.034291753295808 50.60898042231813 L 9.034291753295808 11.56296729314399 C 9.034291753295808 9.775453570429477 8.866998454925595 8.37896909775695 8.476627564564959 7.37349256630184 C 8.086256674204323 6.368016034846729 7.249752704385086 5.585978385780549 5.91133825876278 5.027380326622865 C 4.5729238131404735 4.468782267465181 2.6210616746143334 4.189485381254435 0 4.189485381254435 L 0 0 L 31.1738834034931 0 L 31.1738834034931 4.189485381254435 C 28.608588945509045 4.189485381254435 26.600992830235697 4.468780977282442 25.31834560124367 4.971519243009998 C 23.979931155621365 5.474257508737553 23.143415260994075 6.256293867620995 22.697277112453307 7.261770399076106 C 22.25113896391254 8.267246930531217 22.08383374073427 9.663733900331623 22.08383374073427 11.56296729314399 L 22.08383374073427 47.31325107004499 C 22.08383374073427 50.106241324214615 22.19536657432546 52.11720454211155 22.474202927550902 53.346120247287175 C 22.753039280776346 54.5750359524628 23.478022300262595 55.468792855438856 24.704902229524635 56.1391105014568 C 25.931782158786675 56.80942814747474 27.93940212367613 57.088716959638674 30.671998397750436 57.088716959638674 C 34.185336369446304 57.088716959638674 37.2525447518713 56.80942136361067 39.87360642648563 56.30668309788311 C 42.49466810109996 55.74808503872543 44.948414331271984 54.35157796704559 47.17910515707553 52.06132597860353 C 49.40979598287908 49.77107399016146 50.80397768668153 46.19605936332221 51.361650393132415 41.4479757980537 L 55.54419562918929 41.4479757980537 L 55.711490631103516 41.33625363082797 Z" fill="currentColor"/>
<path transform="translate(398.401 170.819)" d="M 63.016983032226555 4.245346502660103 C 61.343965039363056 4.357066111324308 59.949783517142976 4.748079653750923 58.83443821626721 5.418397305736148 C 57.71909291539144 6.088714957721373 56.60375617378471 7.094189708519078 55.48841087290894 8.60240451912813 C 54.37306557203318 10.054759410953386 52.75583016364303 12.456745740693094 50.580906939119885 15.752474123454219 L 37.53134498886276 35.97371777718439 L 37.53134498886276 50.664852611370485 C 37.53134498886276 52.34064684538054 37.69866891344407 53.68126758277157 38.03327249124184 54.686744123177604 C 38.36787606903961 55.69222066358364 39.20435608445122 56.4742596097944 40.487003184613336 57.08871746785223 C 41.76965028477545 57.70317532591005 43.777281931275276 57.982473504789894 46.50987793088586 57.982473504789894 L 46.50987793088586 62.171958923339844 L 15.335997658517615 62.171958923339844 L 15.335997658517615 57.982473504789894 C 17.901291858841848 57.982473504789894 19.90888777247095 57.75903770020295 21.191534872633067 57.20043963607253 C 22.52994918382417 56.69770136586951 23.36646499443126 55.91566500002425 23.812603098161627 54.91018845961821 C 24.20297394931316 53.904711919212176 24.426046408266018 52.45235453025902 24.426046408266018 50.60898087284796 L 24.426046408266018 36.69990121620398 L 8.866974587251711 10.725083097664372 C 8.866974587251711 10.725083097664372 8.643907228542902 10.334061044193493 8.476605439644015 10.110621826865085 C 8.309303650745127 9.887182609536676 8.253561909773989 9.719614267140733 8.197794646807694 9.663754462808631 C 6.859380335616594 7.485222125070749 5.632461389624773 6.032864528023601 4.6286505939066735 5.362546876038376 C 3.5690725871595905 4.692229224053151 2.007621591436199 4.301205027214157 0 4.189485418549952 L 0 0 L 29.054739549218752 0 L 29.054739549218752 4.189485418549952 C 27.604790732869986 4.189485418549952 26.433662847520857 4.189487978106051 25.597153851089107 4.301207586770255 C 24.760644854657357 4.4129271954344595 24.035697703184358 4.636361730648052 23.533792305325306 5.0273803713774665 C 23.031886907466255 5.418399012106881 22.753011463063853 6.032857744159469 22.753011463063853 6.926614613473102 C 22.753011463063853 7.485212677603522 22.920347291677082 8.211396075004314 23.310718142828616 9.049293192009344 C 23.70108899398015 9.887190309014374 24.537580913423685 11.395393965785466 25.8202280135858 13.685645974615749 L 35.467983443098966 30.052570714456877 L 44.66954800057269 15.473158048491081 C 46.67716959200889 12.345008922655769 47.62524874336932 9.998908981255614 47.62524874336932 8.546554089430359 C 47.62524874336932 6.64732067971069 47.01178673583258 5.418396473360181 45.729139635670464 4.915658203157164 C 44.50225982963703 4.412919932954146 42.71769378636487 4.189485418549952 40.487003184613336 4.189485418549952 L 40.487003184613336 0 L 63.016983032226555 0 L 63.016983032226555 4.189485418549952 L 63.016983032226555 4.245346502660103 Z" fill="currentColor"/>
<path transform="translate(149.289 250.308)" d="M 96.81197890976031 6.088719244643247 C 92.57366667120695 6.088719244643247 89.56222831675088 6.535595068402465 87.72190843273727 7.373492128159471 C 85.88158854872366 8.211389187916478 84.76623986818473 9.496154413574327 84.32010174218436 11.116088618121085 C 83.873963616184 12.736022822667842 83.6509004948126 15.473157324261889 83.6509004948126 19.21576413568479 L 83.6509004948126 89.59910583496094 L 77.62802544789453 89.59910583496094 L 19.685838442251523 20.612259179788072 L 19.685838442251523 69.48958572340298 C 19.685838442251523 73.17633278633382 19.908912200384954 75.91346712145268 20.355050326385324 77.58926124096669 C 20.801188452385695 79.2650553604807 21.972296369165804 80.54982308326629 23.868383466992153 81.44357989151537 C 25.764470564818502 82.33733669976445 28.775908919274574 82.78422450973677 32.958453944015204 82.78422450973677 L 32.958453944015204 88.81707201967484 L 0 88.81707201967484 L 0 82.78422450973677 C 3.903708623278159 82.78422450973677 6.747832538941698 82.33733669976445 8.532385042943176 81.44357989151537 C 10.316937546944654 80.54982308326629 11.376516520679733 79.2650553604807 11.822654646680101 77.58926124096669 C 12.26879277268047 75.91346712145268 12.436097987405915 73.23219253482588 12.436097987405915 69.48958572340298 L 12.436097987405915 24.187283083280747 C 12.436097987405915 20.50053602034992 12.324567704378163 17.76340851071352 12.157265907128025 15.920034979248108 C 11.989964109877887 14.076661447782694 11.48805867657762 12.456723830494704 10.763084232214482 11.116088618121085 C 10.038109787851344 9.775453405747465 8.811221444405648 8.602406095559534 7.138203368029632 7.764509035802527 C 5.465185291653618 6.92661197604552 3.1229599847271974 6.312146522920601 0.16729499346191568 6.032847509938065 L 0.16729499346191568 0 L 25.987545569447484 0 L 76.45691794661293 59.71412041468 L 76.45691794661293 19.21576413568479 C 76.45691794661293 15.920035978099202 76.23385482524155 13.35049087696748 75.78771669924119 11.56297726046932 C 75.34157857324082 9.775463643971161 74.17046251268977 8.434830928725274 72.38591000868828 7.485214288746531 C 70.6013575046868 6.535597648767787 67.70145440885324 6.032847509938065 63.797745785575074 6.032847509938065 L 63.797745785575074 0 L 96.86773681640625 0 L 96.86773681640625 6.032847509938065 L 96.81197890976031 6.088719244643247 Z" fill="currentColor"/>
<path transform="translate(249.447 277.065)" d="M 55.76726464542378 41.615558148223506 L 55.26535841267403 62.060245513916016 L 0 62.060245513916016 L 0 57.87076022333293 C 3.792174035776673 57.87076022333293 6.245931921785667 57.31215705715271 7.361277231314083 56.250820796856345 C 8.476622540842499 55.133624702720006 8.978533011676939 53.23441007947068 8.978533011676939 50.553139553428565 L 8.978533011676939 11.507127269311564 C 8.978533011676939 9.719613585283492 8.811230359320767 8.378968916414294 8.476626778927198 7.373492406720308 C 8.142023198533629 6.368015897026321 7.305521903109565 5.585988919297522 6.022874792996902 5.0273908722293505 C 4.740227682884239 4.468792825161179 2.732596020809573 4.1894852905830895 0 4.1894852905830895 L 0 0 L 51.473182714903366 0 L 52.309700193994 16.143501219125756 L 48.12715534558721 16.143501219125756 C 47.179111836643045 12.56847385106961 46.063765696117635 9.998907510514934 44.836885880566285 8.490692745973954 C 43.610006065014936 6.982477981432974 42.215824448879346 5.977010940015324 40.6543410321595 5.641852124260061 C 39.092857615439655 5.306693308504798 36.80639047775482 5.139113037037126 33.73919085577675 5.139113037037126 L 22.139610871760663 5.139113037037126 L 22.139610871760663 27.09201766439844 L 28.441317733280044 27.09201766439844 C 30.61624097467586 27.09201766439844 32.233485785878315 26.924425469145405 33.29306380084542 26.533406840359564 C 34.35264181581252 26.142388211573724 35.133370768368486 25.416214158964582 35.52374162254845 24.354877898668214 C 35.96987972973987 23.293541638371845 36.24871521573752 21.61776027413804 36.41601700593431 19.327508335262973 L 40.82163601856835 19.327508335262973 L 40.82163601856835 39.99561872174693 L 36.639091170161564 39.99561872174693 C 36.52755664336371 37.70536678287186 36.192953893967136 36.02957351566208 35.74681578677571 34.91237742152574 C 35.24491038502297 33.851041161229375 34.46416959075975 33.124867108620236 33.460358787254265 32.73384847983439 C 32.40078077228716 32.34282985104855 30.78353596108471 32.17525896461962 28.608612719688892 32.17525896461962 L 22.19536877605588 32.17525896461962 L 22.19536877605588 46.81052161325247 C 22.19536877605588 49.268352970409865 22.251150509190065 51.05586157694469 22.362685035987923 52.17305767108103 C 22.47421956278578 53.29025376521737 22.808803573200006 54.23987044107139 23.366476227964213 54.966047864803095 C 23.92414888272842 55.6922252885348 24.760664658275207 56.25082847552441 25.987544473826553 56.58598729127967 C 27.2144242893779 56.921146107034936 28.88745326438077 57.08872637850261 31.1181438834376 57.08872637850261 L 36.081427033116604 57.08872637850261 C 38.2005830630508 57.08872637850261 40.20819353470198 56.809430788519286 42.10428055259031 56.30669253367229 C 44.000367570478645 55.803954278825294 45.896454588366986 54.40744985935372 47.68100701713269 52.17305767108103 C 49.4655594458984 49.93866548280835 50.80398747892317 46.47536377553893 51.528961892721775 41.72728031303128 L 55.82304382324219 41.72728031303128 L 55.76726464542378 41.615558148223506 Z" fill="currentColor"/>
<path transform="translate(309.843 276.897)" d="M 89.171875 4.301207100817467 C 86.94118414400468 4.468786494880559 85.32391805369639 4.859809346954124 84.32010714356858 5.4184073479738295 C 83.31629623344077 5.977005348993535 82.47978552122326 6.92661258233658 81.92211280722444 8.26724773484132 C 81.36444009322561 9.607882887346058 80.52794126426647 12.065721782985827 79.57989765462345 15.58488911033426 L 66.69762922121615 63.40086364746093 L 60.34016378012721 63.40086364746093 L 44.44650017740487 18.71302423178525 L 29.556649146804514 63.40086364746093 L 23.310720799676407 63.40086364746093 L 8.922754781611586 14.300116284192265 C 8.086245689838412 11.33954708271992 7.305514119814202 9.216863416799477 6.58053962901059 7.764508689062073 C 5.855565138206979 6.368013707322208 5.019051808348655 5.41839710975059 4.071008198705627 4.971518725582343 C 3.122964589062599 4.524640341414097 1.728785400931421 4.301207100817467 0 4.301207100817467 L 0 0.11172215559787159 L 26.8240435285779 0.11172215559787159 L 26.8240435285779 4.301207100817467 C 24.704887273552135 4.301207100817467 23.1991820437214 4.468787358470528 22.195371133593593 4.803946146596712 C 21.247327523950563 5.139104934722897 20.7454101856283 6.0328592267411665 20.7454101856283 7.485213954478571 C 20.7454101856283 8.43483055205019 21.080027450689816 10.110621183987018 21.805001941493426 12.456732680060915 L 30.83929381706584 43.45891701292145 L 45.39455483930917 0 L 51.361629814772485 0 L 66.75340840495929 43.45891701292145 L 74.50505561027038 14.300116284192265 C 75.0627283242692 12.289163430578775 75.34157317821385 10.725085714867628 75.34157317821385 9.496170137595554 C 75.34157317821385 7.261778133516735 74.67235061444889 5.865271248801883 73.27816885022673 5.250813460165846 C 71.88398708600458 4.636355671529809 70.09943945367063 4.3012164754507385 67.92451598125979 4.245356677429708 L 67.92451598125979 0.0558717322101124 L 89.171875 0.0558717322101124 L 89.171875 4.245356677429708 L 89.171875 4.301207100817467 Z" fill="currentColor"/>
<path transform="translate(404.536 275.78)" d="M 44.27922439575195 45.52574670052662 C 44.27922439575195 47.42497996960537 43.88884674556366 49.491784159441394 43.05233769253733 51.67031633585588 C 42.215828639510995 53.792988764098254 40.98891650778665 55.859804773672145 39.315898401733975 57.8707577055703 C 37.6428802956813 59.82585072282116 35.57950681016126 61.4457884140678 33.0142124362803 62.6747040391805 C 30.504685443400707 63.903619664293196 27.54902172930195 64.51806640625 24.258753064397375 64.51806640625 C 20.9684843994928 64.51806640625 17.6782034358319 63.791892343615466 14.44370198572928 62.33953755933914 C 11.20920053562666 60.88718277506282 8.4208609028541 58.764522998934204 6.190170150183675 55.91567317855367 C 5.186359286552071 58.150065269615446 4.5728972582860665 60.2727317047513 4.294060914202263 62.17196497383005 L 0.11151581526999388 62.17196497383005 L 0.11151581526999388 40.889372952425504 L 4.294060914202263 40.889372952425504 C 5.0748026693269415 43.96166209844485 6.1343790857663985 46.81051707955599 7.472793487508831 49.491787488945015 C 8.811207889251264 52.17305789833404 10.707318870326478 54.519178974825365 13.161078648404123 56.418412243904115 C 15.614838426481768 58.373505261154975 18.62624376067335 59.32312447605966 22.195348831986504 59.32312447605966 C 25.318315852485217 59.32312447605966 27.772097735084387 58.48521127300953 29.668184866544276 56.75355741492229 C 31.564271998004166 55.02190355683505 32.45654826583245 52.89923196096858 32.45654826583245 50.27382129975167 C 32.45654826583245 48.82146651547534 32.17769149999616 47.53669871681127 31.564251555476748 46.419502671280384 C 30.950811610957338 45.302306625749495 30.170086891272174 44.35269681669255 29.05474151493696 43.458940013562874 C 27.939396138601747 42.5651832104332 26.43369355460566 41.67142640730353 24.53760642314577 40.66594994135445 C 22.64151929168588 39.66047347540537 20.46656351113188 38.59912960342585 18.012803733054234 37.53779338930466 C 14.276396684936405 35.750279783045315 11.15345193515862 33.962771171041396 8.755459371882926 32.17525756478205 C 6.357466808607233 30.3877439585227 4.517128277615384 28.6002167012985 3.290248388576561 26.924422591383372 C 2.063368499537739 25.248628481468245 1.1710973007914527 23.62870027930693 0.7249591668773085 22.064625832211203 C 0.27882103296316435 20.556411133287586 0 18.992347840028998 0 17.42827339293327 C 0 14.635283320724845 0.724982933392927 11.898146171206102 2.2306992288403316 9.216875761817079 C 3.736415524287736 6.535605352428055 5.911340724150309 4.30122091922461 8.811238553042394 2.569567061137371 C 11.711136381934478 0.8379132030501322 15.001410365220167 0 18.79358462813995 0 C 21.693482457032033 0 24.42605487500264 0.6703303793174067 27.047116463685555 1.955105835839808 C 29.668178052368468 3.239881292362209 31.954642834016653 5.0273898211285335 33.850729965476546 7.317641660362422 C 34.40840265364415 6.032866203840021 34.91028934647648 4.245345688860655 35.35642748039063 1.899234101454657 L 39.65053094164183 1.899234101454657 L 39.65053094164183 19.215785334440806 L 35.35642748039063 19.215785334440806 C 32.28922767469387 9.775478570743978 26.991345924895406 5.083241079066408 19.462764613857793 5.083241079066408 C 16.730168429371567 5.083241079066408 14.499464214548935 5.809415141700947 12.826446108496263 7.261769925977271 C 11.153428002443592 8.714124710253595 10.316936067956478 10.557498231160237 10.316936067956478 12.847750070394124 C 10.316936067956478 14.635263676653473 10.818834685596473 16.199339039362695 11.878412764030028 17.539974244057206 C 12.937990842463583 18.880609448751716 14.276423941639631 19.99780890702382 15.949442047692303 20.947425541563195 C 17.622460153744974 21.89704217610257 20.3550629862076 23.237674883669367 24.147237249127382 25.025188489928716 C 28.72015318407214 27.2037206663432 32.28924811722129 29.04710617346288 34.85454249110225 30.667040368730717 C 37.41983686498321 32.286974563998555 39.59475009848826 34.24205659388746 41.37930263414484 36.699887844112865 C 43.16385516980142 39.10185934616616 44.056150218163026 42.00656724996699 44.056150218163026 45.46987496614147 L 44.27922439575195 45.52574670052662 Z" fill="currentColor"/>
</svg>
