<svg xmlns="http://www.w3.org/2000/svg" xmlns:xlink="http://www.w3.org/1999/xlink" viewBox="0 0 266.843 64" width="266.843" height="64" color="#FFFFFF" role="img" aria-label="Campbell Reporter">
<title>Campbell Reporter</title>
<defs>
<clipPath id="campbell-reporter-clip1">
  <path d="M 233 15 L 266.84375 15 L 266.84375 52 L 233 52 Z M 233 15 "/>
</clipPath>
</defs>
<g id="campbell-reporter-surface1">
<path style=" stroke:none;fill-rule:nonzero;fill:currentColor;fill-opacity:1;" d="M 156.664062 41.90625 C 156.664062 43.402344 157.074219 47.617188 154.761719 47.617188 C 153.605469 47.617188 152.585938 47.210938 151.632812 47.210938 C 150.277344 47.210938 149.320312 48.160156 149.320312 49.453125 C 149.320312 51.015625 150.816406 51.832031 152.382812 51.96875 C 154.761719 51.832031 157.140625 51.21875 159.589844 51.21875 C 161.96875 51.21875 164.277344 51.695312 166.589844 51.96875 C 168.019531 51.832031 169.511719 51.015625 169.511719 49.453125 C 169.511719 48.160156 168.5625 47.210938 167.203125 47.210938 C 166.25 47.210938 165.230469 47.617188 164.074219 47.617188 C 161.765625 47.617188 161.898438 43.402344 161.898438 41.90625 L 161.898438 36.128906 C 161.898438 29.671875 161.425781 19.949219 170.464844 19.949219 C 173.183594 19.949219 176.515625 21.648438 176.515625 24.707031 C 176.515625 25.320312 176.378906 25.726562 176.109375 26.269531 C 175.835938 26.203125 175.496094 26.066406 175.222656 26.066406 C 173.660156 26.066406 172.4375 27.496094 172.4375 28.992188 C 172.4375 30.960938 174.273438 32.253906 176.109375 32.253906 C 180.253906 32.253906 181.816406 28.71875 181.816406 25.25 C 181.816406 19.066406 176.582031 15.667969 170.871094 15.667969 C 166.796875 15.667969 163.394531 17.296875 161.152344 20.765625 L 161.152344 19.472656 C 161.152344 18.046875 161.015625 16.753906 159.246094 16.617188 C 157.957031 16.890625 156.664062 17.367188 155.375 17.367188 C 154.015625 17.367188 152.722656 16.753906 151.429688 16.617188 C 149.867188 16.753906 148.371094 17.570312 148.371094 19.132812 C 148.371094 20.425781 149.320312 21.375 150.683594 21.375 C 152.449219 21.375 153.46875 20.96875 154.625 20.96875 C 156.9375 20.96875 156.664062 25.183594 156.664062 26.679688 Z M 156.664062 41.90625 "/>
<path style=" stroke:none;fill-rule:nonzero;fill:currentColor;fill-opacity:1;" d="M 24.558594 23.050781 L 19.625 23.050781 L 18.851562 23.082031 C 17.855469 23.136719 16.828125 23.191406 16.199219 22.597656 C 15.863281 22.28125 15.695312 21.816406 15.691406 21.214844 L 15.769531 19.847656 L 15.765625 10.820312 L 15.75 9.890625 C 15.703125 7.953125 15.65625 6.121094 18.082031 5.191406 C 20.894531 4.101562 26.402344 4.046875 27.476562 4.046875 C 35.144531 4.046875 39.035156 7.207031 39.035156 13.4375 C 39.035156 17.222656 37.578125 20.140625 35.035156 21.445312 C 32.140625 22.929688 28.109375 23.050781 24.558594 23.050781 M 49.464844 46.90625 L 48 47.015625 C 47.390625 47.082031 46.761719 47.152344 46.125 47.121094 C 42.613281 46.953125 42.613281 43.15625 42.613281 41.332031 L 42.613281 37.742188 C 42.613281 30.628906 41.21875 26.59375 33.863281 25.667969 L 33.847656 24.992188 C 41.71875 23.597656 45.230469 19.875 45.230469 12.914062 C 45.230469 8.636719 43.25 4.800781 39.929688 2.660156 C 36.730469 0.679688 32.027344 0.191406 28.691406 0.394531 L 25.328125 0.621094 C 22.652344 0.832031 18.988281 1.121094 14.847656 1.21875 C 14.808594 1.214844 9.476562 0.851562 9.476562 0.851562 L 2.84375 0.390625 C 1.445312 0.394531 0 1.121094 0 2.746094 C 0 4.019531 0.863281 4.945312 2.050781 4.945312 C 2.625 4.945312 3.191406 4.855469 3.792969 4.761719 C 4.394531 4.667969 5.015625 4.574219 5.640625 4.574219 C 7.828125 4.574219 9.171875 5.59375 9.636719 7.605469 C 10.082031 9.453125 10.050781 13.003906 10.027344 15.597656 L 10.019531 16.953125 L 10.019531 35.273438 L 10.027344 36.625 C 10.050781 39.222656 10.082031 42.777344 9.636719 44.625 C 9.171875 46.632812 7.828125 47.65625 5.640625 47.65625 C 5.015625 47.65625 4.394531 47.558594 3.792969 47.464844 C 3.191406 47.371094 2.625 47.28125 2.050781 47.28125 C 0.863281 47.28125 0 48.207031 0 49.480469 C 0 51.105469 1.445312 51.832031 2.875 51.832031 C 3.703125 51.832031 4.929688 51.6875 6.347656 51.519531 C 8.273438 51.292969 10.667969 51.007812 12.894531 51.007812 C 15.121094 51.007812 17.515625 51.292969 19.441406 51.519531 C 20.859375 51.6875 22.082031 51.832031 22.914062 51.832031 C 24.34375 51.832031 25.789062 51.105469 25.789062 49.480469 C 25.789062 48.207031 24.925781 47.28125 23.738281 47.28125 C 23.164062 47.28125 22.597656 47.371094 21.996094 47.464844 C 21.394531 47.558594 20.773438 47.65625 20.148438 47.65625 C 17.960938 47.65625 16.613281 46.632812 16.152344 44.621094 C 15.703125 42.777344 15.738281 39.222656 15.757812 36.628906 L 15.765625 35.273438 L 15.765625 31.460938 C 15.765625 28.097656 18.085938 27.53125 23.289062 27.53125 C 23.296875 27.53125 25.253906 27.535156 25.253906 27.535156 C 28.203125 27.511719 31.542969 27.484375 33.863281 28.925781 C 36.792969 30.703125 36.792969 34.042969 36.789062 36.992188 L 36.789062 41.851562 C 36.789062 48.457031 39.128906 51.53125 44.152344 51.53125 L 46.476562 51.53125 L 49.617188 51.753906 C 51.015625 51.753906 52.117188 50.625 52.117188 49.183594 C 52.117188 47.503906 50.6875 46.90625 49.464844 46.90625 "/>
<path style=" stroke:none;fill-rule:nonzero;fill:currentColor;fill-opacity:1;" d="M 65.878906 20.019531 C 71.929688 20.019531 75.121094 24.367188 75.460938 29.941406 L 55.410156 29.941406 C 55.886719 24.230469 60.03125 20.019531 65.878906 20.019531 M 77.707031 38.371094 C 75.871094 38.371094 75.53125 39.9375 75.121094 41.363281 C 73.761719 45.78125 70.363281 48.089844 65.742188 48.089844 C 58.265625 48.089844 54.523438 41.769531 54.796875 34.835938 L 77.84375 34.835938 C 81.105469 34.835938 81.105469 34.566406 81.105469 31.097656 C 81.105469 21.988281 74.851562 15.394531 65.671875 15.394531 C 60.777344 15.394531 56.226562 17.5 53.164062 21.375 C 50.308594 25.046875 49.15625 30.007812 49.15625 34.632812 C 49.15625 44.761719 54.660156 52.714844 65.332031 52.714844 C 69.207031 52.714844 73.492188 51.421875 76.414062 48.773438 C 78.386719 46.9375 80.425781 43.742188 80.425781 40.953125 C 80.425781 39.390625 79.203125 38.371094 77.707031 38.371094 "/>
<path style=" stroke:none;fill-rule:nonzero;fill:currentColor;fill-opacity:1;" d="M 100.582031 48.09375 C 97.523438 48.09375 94.871094 47.003906 93.105469 44.421875 C 91.269531 41.839844 91.269531 38.914062 91.269531 35.925781 C 91.269531 33.207031 91.40625 28.378906 92.425781 25.929688 C 93.921875 22.261719 97.589844 20.289062 101.464844 20.289062 C 109.417969 20.289062 111.460938 27.496094 111.460938 34.023438 C 111.460938 41.160156 108.941406 48.09375 100.582031 48.09375 M 101.535156 15.667969 C 97.457031 15.667969 93.308594 17.367188 90.996094 20.96875 L 90.996094 19.542969 C 90.996094 18.179688 91.066406 16.617188 89.230469 16.617188 C 87.9375 16.617188 86.644531 17.367188 85.355469 17.367188 C 83.996094 17.367188 82.703125 16.617188 81.617188 16.617188 C 80.121094 16.617188 78.625 17.570312 78.625 19.132812 C 78.625 20.425781 79.578125 21.375 80.9375 21.375 C 81.886719 21.375 82.90625 20.96875 84.0625 20.96875 C 86.375 20.96875 86.035156 25.183594 86.035156 26.679688 L 86.035156 53.941406 C 86.035156 55.433594 86.375 59.648438 84.0625 59.648438 C 82.90625 59.648438 81.886719 59.242188 80.9375 59.242188 C 79.578125 59.242188 78.625 60.195312 78.625 61.484375 C 78.625 63.046875 80.121094 64 81.617188 64 C 83.65625 64 86.035156 63.253906 88.480469 63.253906 C 90.859375 63.253906 93.171875 64 95.6875 64 C 97.183594 64 98.679688 63.046875 98.679688 61.484375 C 98.679688 60.195312 97.726562 59.242188 96.367188 59.242188 C 95.417969 59.242188 94.394531 59.648438 93.242188 59.648438 C 90.929688 59.648438 91.269531 55.433594 91.269531 53.941406 L 91.269531 48.5 C 93.375 51.425781 97.183594 52.714844 100.855469 52.714844 C 105.886719 52.714844 110.710938 50.402344 113.632812 46.257812 C 116.085938 42.722656 117.113281 37.554688 117.113281 33.476562 C 117.113281 23.550781 112.207031 15.667969 101.535156 15.667969 "/>
<path style=" stroke:none;fill-rule:nonzero;fill:currentColor;fill-opacity:1;" d="M 134.128906 48.09375 C 126.175781 48.09375 123.59375 40.683594 123.59375 33.953125 C 123.59375 30.894531 124.339844 27.289062 125.90625 24.640625 C 127.878906 21.308594 130.730469 20.019531 134.539062 20.019531 C 137.800781 20.019531 140.925781 21.105469 142.765625 23.957031 C 144.53125 26.679688 145.210938 30.484375 145.210938 33.679688 C 145.210938 40.886719 142.492188 48.09375 134.128906 48.09375 M 134.128906 15.394531 C 123.1875 15.394531 117.953125 24.09375 117.953125 34.15625 C 117.953125 44.082031 123.253906 52.714844 134.0625 52.714844 C 145.074219 52.714844 150.855469 44.285156 150.855469 33.953125 C 150.855469 29.261719 149.5625 24.230469 146.570312 20.5625 C 143.445312 16.683594 139.023438 15.394531 134.128906 15.394531 "/>
<path style=" stroke:none;fill-rule:nonzero;fill:currentColor;fill-opacity:1;" d="M 219.59375 20.019531 C 225.644531 20.019531 228.839844 24.367188 229.179688 29.941406 L 209.125 29.941406 C 209.601562 24.230469 213.746094 20.019531 219.59375 20.019531 M 231.421875 38.371094 C 229.585938 38.371094 229.246094 39.9375 228.839844 41.363281 C 227.480469 45.78125 224.078125 48.089844 219.457031 48.089844 C 211.980469 48.089844 208.242188 41.769531 208.511719 34.835938 L 231.558594 34.835938 C 234.820312 34.835938 234.820312 34.566406 234.820312 31.097656 C 234.820312 21.988281 228.566406 15.394531 219.390625 15.394531 C 214.496094 15.394531 209.941406 17.5 206.882812 21.375 C 204.027344 25.046875 202.871094 30.007812 202.871094 34.632812 C 202.871094 44.761719 208.375 52.714844 219.046875 52.714844 C 222.925781 52.714844 227.207031 51.421875 230.128906 48.773438 C 232.101562 46.9375 234.140625 43.742188 234.140625 40.953125 C 234.140625 39.390625 232.917969 38.371094 231.421875 38.371094 "/>
<g clip-path="url(#campbell-reporter-clip1)" clip-rule="nonzero">
<path style=" stroke:none;fill-rule:nonzero;fill:currentColor;fill-opacity:1;" d="M 255.898438 15.667969 C 251.820312 15.667969 248.421875 17.296875 246.175781 20.765625 L 246.175781 19.472656 C 246.175781 18.046875 246.039062 16.753906 244.273438 16.617188 C 242.980469 16.890625 241.691406 17.367188 240.398438 17.367188 C 239.039062 17.367188 237.746094 16.753906 236.457031 16.617188 C 234.894531 16.753906 233.398438 17.570312 233.398438 19.132812 C 233.398438 20.425781 234.347656 21.375 235.707031 21.375 C 237.476562 21.375 238.496094 20.96875 239.652344 20.96875 C 241.960938 20.96875 241.691406 25.183594 241.691406 26.679688 L 241.691406 41.90625 C 241.691406 43.402344 242.097656 47.617188 239.789062 47.617188 C 238.632812 47.617188 237.613281 47.207031 236.660156 47.207031 C 235.300781 47.207031 234.347656 48.160156 234.347656 49.453125 C 234.347656 51.015625 235.84375 51.832031 237.40625 51.96875 C 239.789062 51.832031 242.164062 51.21875 244.613281 51.21875 C 246.992188 51.21875 249.304688 51.695312 251.617188 51.96875 C 253.042969 51.832031 254.539062 51.015625 254.539062 49.453125 C 254.539062 48.160156 253.585938 47.207031 252.226562 47.207031 C 251.277344 47.207031 250.257812 47.617188 249.101562 47.617188 C 246.789062 47.617188 246.925781 43.402344 246.925781 41.90625 L 246.925781 36.128906 C 246.925781 29.671875 246.449219 19.949219 255.488281 19.949219 C 258.210938 19.949219 261.539062 21.648438 261.539062 24.707031 C 261.539062 25.320312 261.40625 25.726562 261.132812 26.269531 C 260.863281 26.203125 260.519531 26.066406 260.25 26.066406 C 258.6875 26.066406 257.460938 27.496094 257.460938 28.992188 C 257.460938 30.960938 259.296875 32.253906 261.132812 32.253906 C 265.28125 32.253906 266.84375 28.71875 266.84375 25.25 C 266.84375 19.066406 261.609375 15.667969 255.898438 15.667969 "/>
</g>
<path style=" stroke:none;fill-rule:nonzero;fill:currentColor;fill-opacity:1;" d="M 201.625 45.0625 C 201.203125 45.0625 200.78125 45.171875 200.414062 45.378906 C 200.050781 45.582031 199.832031 45.882812 199.550781 46.179688 C 198.820312 46.9375 197.773438 47.414062 196.265625 47.414062 C 191.304688 47.414062 191.304688 43.0625 191.304688 39.324219 L 191.304688 23.890625 C 191.304688 21.851562 191.03125 21.511719 193.070312 21.511719 L 199.054688 21.511719 C 200.753906 21.511719 202.722656 21.308594 202.722656 19.066406 C 202.722656 16.820312 201.160156 16.550781 199.257812 16.550781 L 193.34375 16.550781 C 191.234375 16.550781 191.234375 16.6875 191.304688 14.644531 L 191.304688 11.964844 C 191.304688 10.195312 190.964844 8.566406 188.71875 8.566406 C 186.410156 8.566406 186.070312 10.128906 186.070312 12.03125 L 186.070312 14.375 C 186.070312 16.5 185.4375 16.550781 185.191406 16.550781 C 183.96875 16.550781 183.289062 16.347656 182.339844 17.160156 C 181.792969 17.636719 181.453125 18.316406 181.453125 18.996094 C 181.453125 21.109375 182.976562 21.460938 184.617188 21.507812 C 184.875 21.515625 184.921875 21.511719 185.179688 21.511719 C 186.027344 21.511719 186.109375 22.074219 186.070312 23.890625 L 186.070312 38.914062 C 186.070312 42.042969 185.933594 45.308594 187.429688 48.09375 C 188.992188 51.015625 192.253906 52.171875 195.449219 52.171875 C 199.21875 52.171875 201.699219 51.117188 203.332031 49.363281 C 203.789062 48.871094 204.117188 48.242188 204.117188 47.554688 C 204.117188 46.179688 203 45.0625 201.625 45.0625 "/>
<path style=" stroke:none;fill-rule:nonzero;fill:currentColor;fill-opacity:1;" d="M 58.457031 0.3125 C 58.449219 0.3125 55.699219 0.441406 55.699219 0.441406 L 54.523438 0.484375 L 53.355469 0.441406 L 50.605469 0.316406 C 50.246094 0.3125 50.007812 0.386719 49.847656 0.546875 C 49.703125 0.691406 49.632812 0.898438 49.632812 1.183594 L 49.757812 2.90625 L 49.632812 4.457031 C 49.632812 4.863281 49.941406 5.171875 50.347656 5.171875 C 50.539062 5.191406 50.707031 5.148438 50.828125 5.039062 C 51.058594 4.832031 51.078125 4.453125 51.078125 4.113281 C 51.078125 4.105469 51.027344 3.398438 51.027344 3.398438 L 50.984375 2.632812 C 50.984375 1.652344 51.371094 1.554688 52.320312 1.554688 C 52.773438 1.554688 53.191406 1.550781 53.410156 1.890625 C 53.601562 2.171875 53.597656 2.804688 53.597656 3.226562 L 53.597656 8.09375 C 53.601562 8.597656 53.609375 9.355469 53.519531 9.722656 C 53.441406 10.058594 53.242188 10.210938 52.867188 10.210938 L 52.117188 10.132812 C 51.765625 10.132812 51.496094 10.410156 51.496094 10.78125 C 51.496094 11.183594 51.828125 11.464844 52.304688 11.464844 L 53.054688 11.398438 L 54.402344 11.292969 L 55.75 11.398438 L 56.5 11.464844 C 56.886719 11.464844 57.277344 11.230469 57.277344 10.78125 C 57.277344 10.410156 57.011719 10.132812 56.65625 10.132812 L 55.90625 10.210938 C 55.53125 10.210938 55.332031 10.058594 55.253906 9.722656 C 55.167969 9.355469 55.171875 8.597656 55.179688 8.09375 L 55.179688 2.703125 C 55.179688 2.332031 55.222656 1.925781 55.546875 1.722656 C 55.824219 1.550781 56.117188 1.550781 56.457031 1.554688 L 56.53125 1.554688 C 57.449219 1.554688 57.886719 1.703125 57.886719 2.546875 L 57.832031 3.441406 L 57.792969 3.902344 L 57.792969 4.285156 C 57.792969 4.546875 57.816406 4.839844 58.007812 5.015625 C 58.125 5.132812 58.304688 5.183594 58.527344 5.171875 C 58.929688 5.171875 59.234375 4.863281 59.234375 4.457031 L 59.109375 2.90625 L 59.234375 1.183594 C 59.234375 0.628906 58.953125 0.3125 58.457031 0.3125 "/>
<path style=" stroke:none;fill-rule:nonzero;fill:currentColor;fill-opacity:1;" d="M 69.34375 10.132812 L 68.621094 10.226562 L 68.457031 10.160156 C 68.269531 9.96875 68.277344 9.4375 68.285156 9.152344 L 68.285156 5.976562 C 68.285156 5.253906 68.1875 4.34375 67.414062 3.679688 C 66.832031 3.171875 65.976562 2.867188 65.128906 2.867188 C 64.207031 2.867188 63.53125 3.136719 62.851562 3.746094 L 62.851562 1.136719 C 62.851562 1.132812 62.847656 1.003906 62.847656 1.003906 C 62.84375 0.710938 62.839844 0.273438 62.375 0.203125 C 62.332031 0.207031 62.09375 0.273438 62.09375 0.273438 L 61.542969 0.378906 L 61.101562 0.289062 L 60.710938 0.203125 C 59.832031 0.253906 59.703125 0.664062 59.703125 0.902344 C 59.703125 1.269531 59.976562 1.535156 60.355469 1.535156 L 61.074219 1.441406 L 61.238281 1.511719 C 61.425781 1.699219 61.417969 2.230469 61.410156 2.515625 L 61.410156 9.152344 C 61.417969 9.4375 61.425781 9.96875 61.238281 10.160156 L 61.074219 10.226562 L 60.355469 10.132812 C 59.976562 10.132812 59.703125 10.398438 59.703125 10.765625 C 59.703125 11.199219 60.09375 11.429688 60.484375 11.464844 C 60.5 11.464844 61.226562 11.382812 61.226562 11.382812 L 62.15625 11.292969 L 63.277344 11.402344 L 63.753906 11.464844 C 64.167969 11.429688 64.558594 11.199219 64.558594 10.765625 C 64.558594 10.398438 64.285156 10.132812 63.90625 10.132812 L 63.1875 10.226562 L 63.023438 10.160156 C 62.835938 9.96875 62.84375 9.4375 62.851562 9.152344 L 62.851562 6.929688 C 62.851562 6.265625 62.851562 5.511719 63.238281 4.945312 C 63.640625 4.371094 64.429688 4.167969 65.035156 4.167969 C 65.882812 4.167969 66.507812 4.59375 66.707031 5.304688 C 66.851562 5.808594 66.847656 6.617188 66.84375 7.210938 L 66.84375 9.152344 C 66.851562 9.4375 66.859375 9.96875 66.675781 10.160156 L 66.507812 10.226562 L 65.789062 10.132812 C 65.410156 10.132812 65.136719 10.398438 65.136719 10.765625 C 65.136719 11.199219 65.527344 11.429688 65.917969 11.464844 C 65.933594 11.464844 66.65625 11.382812 66.65625 11.382812 L 67.589844 11.292969 L 68.710938 11.402344 L 69.1875 11.464844 C 69.601562 11.429688 69.992188 11.199219 69.992188 10.765625 C 69.992188 10.398438 69.71875 10.132812 69.34375 10.132812 "/>
<path style=" stroke:none;fill-rule:nonzero;fill:currentColor;fill-opacity:1;" d="M 75.882812 6.15625 L 71.5625 6.15625 C 71.722656 4.949219 72.621094 4.105469 73.820312 4.105469 C 75.003906 4.105469 75.757812 4.875 75.882812 6.15625 M 73.773438 2.804688 C 72.597656 2.804688 71.511719 3.324219 70.796875 4.226562 C 70.1875 5.015625 69.851562 6.125 69.851562 7.351562 C 69.851562 9.957031 71.359375 11.636719 73.695312 11.636719 C 74.695312 11.636719 75.679688 11.285156 76.328125 10.699219 C 76.808594 10.253906 77.289062 9.496094 77.289062 8.808594 C 77.289062 8.402344 76.96875 8.097656 76.542969 8.097656 C 76.054688 8.097656 75.941406 8.496094 75.851562 8.820312 C 75.542969 9.8125 74.820312 10.335938 73.789062 10.335938 C 73.125 10.335938 72.554688 10.105469 72.132812 9.667969 C 71.652344 9.167969 71.382812 8.40625 71.382812 7.5625 C 71.382812 7.546875 71.382812 7.535156 71.382812 7.519531 L 76.574219 7.519531 C 77.421875 7.519531 77.445312 7.378906 77.445312 6.539062 C 77.445312 4.339844 75.9375 2.804688 73.773438 2.804688 "/>
<path style=" stroke:none;fill-rule:nonzero;fill:currentColor;fill-opacity:1;" d="M 91.953125 6.828125 C 91.222656 6.828125 91.222656 7.46875 91.222656 7.683594 C 91.222656 8.328125 91.140625 8.867188 90.730469 9.394531 C 90.253906 10.023438 89.410156 10.398438 88.476562 10.398438 C 85.375 10.398438 85.132812 6.894531 85.132812 5.820312 C 85.132812 4.46875 85.457031 1.332031 88.445312 1.332031 C 89.378906 1.332031 90.191406 1.734375 90.617188 2.40625 C 90.949219 2.929688 91.003906 3.425781 90.988281 4.109375 C 90.988281 4.109375 90.988281 4.175781 90.988281 4.175781 C 90.976562 4.503906 90.964844 4.8125 91.160156 5.011719 C 91.285156 5.140625 91.464844 5.203125 91.71875 5.203125 C 92.136719 5.203125 92.308594 4.953125 92.421875 4.710938 L 92.433594 4.683594 C 92.433594 4.683594 92.324219 2.730469 92.324219 2.726562 C 92.324219 2.726562 92.429688 0.832031 92.429688 0.832031 C 92.429688 0.339844 92.171875 0.03125 91.765625 0.03125 C 91.402344 0.03125 91.144531 0.296875 91.144531 0.683594 C 91.144531 0.683594 91.175781 1.113281 91.175781 1.117188 C 90.480469 0.378906 89.574219 0 88.382812 0 C 86.835938 0 85.445312 0.710938 84.574219 1.945312 C 83.601562 3.300781 83.457031 5.0625 83.457031 5.992188 C 83.457031 8.640625 84.742188 11.730469 88.367188 11.730469 C 90.933594 11.730469 92.730469 10.058594 92.730469 7.667969 C 92.730469 7.125 92.453125 6.828125 91.953125 6.828125 "/>
<path style=" stroke:none;fill-rule:nonzero;fill:currentColor;fill-opacity:1;" d="M 96.480469 10.335938 C 95.75 10.335938 94.96875 10.023438 94.96875 9.140625 C 94.96875 8.226562 95.839844 8.023438 96.691406 7.941406 C 96.695312 7.941406 96.90625 7.921875 96.90625 7.921875 C 97.527344 7.859375 98.210938 7.773438 98.75 7.382812 C 98.738281 7.652344 98.722656 8.101562 98.722656 8.101562 C 98.722656 8.695312 98.664062 9.121094 98.355469 9.554688 C 97.832031 10.234375 96.957031 10.335938 96.480469 10.335938 M 101.753906 8.019531 C 101.5625 8.019531 101.414062 8.070312 101.3125 8.175781 C 101.128906 8.363281 101.132812 8.667969 101.136719 8.933594 L 101.140625 9.21875 C 101.148438 9.554688 101.160156 10.058594 100.957031 10.265625 C 100.890625 10.335938 100.804688 10.367188 100.691406 10.367188 C 100.570312 10.367188 100.476562 10.328125 100.402344 10.253906 C 100.15625 9.992188 100.1875 9.34375 100.207031 8.960938 L 100.214844 8.796875 L 100.277344 5.996094 C 100.292969 5.085938 100.191406 4.15625 99.371094 3.515625 C 98.628906 2.949219 97.660156 2.867188 97.152344 2.867188 C 96.371094 2.867188 95.550781 3.09375 95.015625 3.464844 C 94.367188 3.925781 93.996094 4.546875 93.996094 5.175781 C 93.996094 5.804688 94.472656 6.296875 95.085938 6.296875 C 95.5625 6.296875 96.050781 6.003906 96.050781 5.445312 C 96.050781 4.984375 95.8125 4.835938 95.691406 4.765625 C 95.707031 4.714844 95.757812 4.632812 95.976562 4.496094 C 96.316406 4.292969 96.757812 4.167969 97.121094 4.167969 C 97.738281 4.167969 98.769531 4.335938 98.769531 5.457031 C 98.769531 6.398438 97.859375 6.476562 96.980469 6.550781 L 96.703125 6.578125 C 96.699219 6.578125 96.507812 6.601562 96.507812 6.601562 C 95.800781 6.6875 95.191406 6.757812 94.550781 7.160156 C 93.820312 7.589844 93.433594 8.296875 93.433594 9.203125 C 93.433594 10.003906 93.835938 10.71875 94.535156 11.164062 C 95.035156 11.480469 95.683594 11.636719 96.464844 11.636719 C 97.257812 11.636719 98.300781 11.421875 98.960938 10.546875 C 99.179688 11.1875 99.765625 11.574219 100.597656 11.574219 C 101.269531 11.574219 101.765625 11.371094 102.070312 10.964844 C 102.375 10.558594 102.382812 10.085938 102.386719 9.628906 L 102.390625 9.410156 L 102.398438 9.238281 C 102.421875 8.882812 102.449219 8.445312 102.214844 8.195312 C 102.105469 8.078125 101.949219 8.019531 101.753906 8.019531 "/>
<path style=" stroke:none;fill-rule:nonzero;fill:currentColor;fill-opacity:1;" d="M 117.425781 10.765625 C 117.425781 10.398438 117.152344 10.132812 116.773438 10.132812 L 116.054688 10.226562 L 115.886719 10.160156 C 115.699219 9.964844 115.710938 9.425781 115.714844 9.136719 L 115.71875 9.011719 L 115.71875 6.347656 C 115.71875 5.402344 115.71875 4.585938 115.0625 3.785156 C 114.375 3.023438 113.355469 2.867188 112.625 2.867188 C 111.542969 2.867188 110.714844 3.242188 110.140625 3.964844 C 109.671875 3.269531 108.851562 2.867188 107.832031 2.867188 C 106.894531 2.867188 106.195312 3.1875 105.585938 3.863281 C 105.585938 3.863281 105.585938 3.851562 105.585938 3.851562 C 105.585938 3.515625 105.5625 3.308594 105.4375 3.191406 C 105.328125 3.085938 105.175781 3.078125 105.039062 3.085938 C 105.019531 3.089844 104.746094 3.152344 104.746094 3.152344 L 104.152344 3.257812 L 103.589844 3.136719 L 103.425781 3.089844 C 103 3.125 102.609375 3.351562 102.609375 3.78125 C 102.609375 4.152344 102.882812 4.417969 103.257812 4.417969 L 103.980469 4.324219 L 104.144531 4.390625 C 104.332031 4.585938 104.320312 5.125 104.316406 5.414062 L 104.3125 5.539062 L 104.3125 9.011719 L 104.316406 9.136719 C 104.320312 9.425781 104.332031 9.964844 104.144531 10.160156 L 103.980469 10.226562 L 103.257812 10.132812 C 102.882812 10.132812 102.609375 10.398438 102.609375 10.765625 C 102.609375 11.195312 103 11.429688 103.390625 11.464844 C 103.40625 11.464844 104.152344 11.378906 104.152344 11.378906 L 105.074219 11.292969 L 106.210938 11.402344 L 106.65625 11.464844 C 107.070312 11.429688 107.464844 11.195312 107.464844 10.765625 C 107.464844 10.398438 107.191406 10.132812 106.8125 10.132812 L 106.09375 10.226562 L 105.929688 10.160156 C 105.738281 9.964844 105.75 9.425781 105.757812 9.136719 L 105.757812 7.085938 C 105.757812 6.375 105.757812 5.640625 106.132812 5.035156 C 106.449219 4.484375 107.046875 4.167969 107.769531 4.167969 C 108.417969 4.167969 108.988281 4.539062 109.191406 5.09375 C 109.304688 5.371094 109.300781 6.019531 109.296875 6.445312 L 109.292969 6.648438 L 109.292969 9.011719 L 109.296875 9.136719 C 109.300781 9.425781 109.3125 9.964844 109.121094 10.160156 L 108.960938 10.226562 L 108.238281 10.132812 C 107.863281 10.132812 107.585938 10.398438 107.585938 10.765625 C 107.585938 11.195312 107.980469 11.429688 108.367188 11.464844 C 108.386719 11.464844 109.171875 11.378906 109.171875 11.378906 L 110.085938 11.292969 L 111.242188 11.40625 L 111.636719 11.464844 C 112.050781 11.429688 112.445312 11.195312 112.445312 10.765625 C 112.445312 10.398438 112.171875 10.132812 111.792969 10.132812 L 111.070312 10.226562 L 110.910156 10.160156 C 110.71875 9.96875 110.730469 9.425781 110.734375 9.136719 L 110.738281 9.011719 L 110.738281 7.210938 C 110.738281 6.714844 110.738281 5.675781 111.007812 5.066406 C 111.289062 4.445312 111.972656 4.167969 112.527344 4.167969 C 113.285156 4.167969 113.855469 4.511719 114.09375 5.109375 C 114.277344 5.546875 114.277344 6.320312 114.273438 8.1875 L 114.273438 9.136719 C 114.28125 9.425781 114.289062 9.964844 114.101562 10.160156 L 113.9375 10.226562 L 113.21875 10.132812 C 112.839844 10.132812 112.566406 10.398438 112.566406 10.765625 C 112.566406 11.195312 112.960938 11.429688 113.347656 11.464844 C 113.367188 11.464844 114.109375 11.378906 114.109375 11.378906 L 115.035156 11.292969 L 116.171875 11.402344 L 116.617188 11.464844 C 117.03125 11.429688 117.425781 11.195312 117.425781 10.765625 "/>
<path style=" stroke:none;fill-rule:nonzero;fill:currentColor;fill-opacity:1;" d="M 122.277344 4.167969 C 124.179688 4.167969 124.460938 6.074219 124.460938 7.214844 C 124.460938 8.378906 124.152344 10.335938 122.074219 10.335938 C 121.355469 10.335938 120.808594 10.066406 120.449219 9.542969 C 120.046875 8.976562 120.046875 8.332031 120.046875 7.652344 C 120.046875 6.902344 120.09375 5.90625 120.304688 5.394531 C 120.613281 4.636719 121.371094 4.167969 122.277344 4.167969 M 122.292969 2.867188 C 121.351562 2.867188 120.523438 3.253906 119.984375 3.886719 L 119.984375 3.839844 C 119.984375 3.597656 119.976562 3.367188 119.832031 3.21875 C 119.742188 3.128906 119.617188 3.085938 119.460938 3.085938 L 118.980469 3.175781 L 118.566406 3.257812 L 117.707031 3.085938 C 117.308594 3.085938 116.898438 3.347656 116.898438 3.78125 C 116.898438 4.152344 117.171875 4.417969 117.550781 4.417969 L 118.269531 4.324219 L 118.433594 4.390625 C 118.621094 4.582031 118.613281 5.113281 118.605469 5.398438 L 118.605469 11.925781 C 118.613281 12.210938 118.621094 12.738281 118.433594 12.929688 L 118.269531 13 L 117.550781 12.902344 C 117.171875 12.902344 116.898438 13.171875 116.898438 13.539062 C 116.898438 13.976562 117.308594 14.238281 117.707031 14.238281 L 119.289062 14.0625 L 120.074219 14.148438 L 120.949219 14.238281 C 121.34375 14.238281 121.753906 13.976562 121.753906 13.539062 C 121.753906 13.171875 121.480469 12.902344 121.101562 12.902344 L 120.382812 13 L 120.21875 12.929688 C 120.066406 12.777344 120.042969 12.398438 120.042969 12.109375 C 120.042969 12.042969 120.046875 11.980469 120.046875 11.925781 L 120.046875 10.839844 C 120.535156 11.335938 121.28125 11.636719 122.136719 11.636719 C 123.363281 11.636719 124.5 11.0625 125.179688 10.097656 C 125.785156 9.226562 126 7.972656 126 7.085938 C 126 4.484375 124.578125 2.867188 122.292969 2.867188 "/>
<path style=" stroke:none;fill-rule:nonzero;fill:currentColor;fill-opacity:1;" d="M 130.789062 4.167969 C 132.816406 4.167969 133.035156 6.296875 133.035156 7.214844 C 133.035156 8.722656 132.421875 10.335938 130.710938 10.335938 C 129.894531 10.335938 129.214844 9.914062 128.941406 9.234375 C 128.644531 8.519531 128.621094 7.703125 128.621094 6.996094 C 128.621094 6.421875 128.699219 5.625 129.082031 5.074219 C 129.476562 4.515625 130.128906 4.167969 130.789062 4.167969 M 130.882812 2.867188 C 129.957031 2.867188 129.25 3.1875 128.621094 3.855469 L 128.621094 0.761719 C 128.621094 0.304688 128.511719 0.203125 128.015625 0.203125 L 127.585938 0.292969 L 127.203125 0.375 L 126.402344 0.203125 C 125.84375 0.203125 125.46875 0.484375 125.46875 0.902344 C 125.46875 1.269531 125.742188 1.539062 126.121094 1.539062 L 126.839844 1.441406 L 127.007812 1.511719 C 127.195312 1.703125 127.183594 2.230469 127.179688 2.515625 L 127.175781 2.640625 L 127.175781 10.546875 C 127.175781 10.882812 127.175781 11.140625 127.34375 11.308594 C 127.449219 11.414062 127.609375 11.464844 127.828125 11.464844 C 128.242188 11.464844 128.511719 11.203125 128.511719 10.796875 C 128.511719 10.796875 128.5 10.726562 128.492188 10.6875 C 128.976562 11.304688 129.71875 11.636719 130.742188 11.636719 C 133.386719 11.636719 134.570312 9.335938 134.570312 7.054688 C 134.570312 4.472656 133.15625 2.867188 130.882812 2.867188 "/>
<path style=" stroke:none;fill-rule:nonzero;fill:currentColor;fill-opacity:1;" d="M 141.496094 6.15625 L 137.171875 6.15625 C 137.332031 4.949219 138.234375 4.105469 139.429688 4.105469 C 140.613281 4.105469 141.367188 4.875 141.496094 6.15625 M 139.382812 2.804688 C 138.207031 2.804688 137.125 3.324219 136.410156 4.226562 C 135.796875 5.015625 135.460938 6.125 135.460938 7.351562 C 135.460938 9.957031 136.96875 11.636719 139.304688 11.636719 C 140.304688 11.636719 141.289062 11.285156 141.9375 10.699219 C 142.417969 10.253906 142.902344 9.496094 142.902344 8.808594 C 142.902344 8.402344 142.582031 8.097656 142.15625 8.097656 C 141.664062 8.097656 141.550781 8.496094 141.460938 8.820312 C 141.15625 9.8125 140.429688 10.335938 139.402344 10.335938 C 138.738281 10.335938 138.164062 10.105469 137.746094 9.667969 C 137.265625 9.167969 136.996094 8.40625 136.996094 7.5625 C 136.996094 7.546875 136.996094 7.535156 136.996094 7.519531 L 142.1875 7.519531 C 143.035156 7.519531 143.058594 7.378906 143.058594 6.539062 C 143.058594 4.339844 141.546875 2.804688 139.382812 2.804688 "/>
<path style=" stroke:none;fill-rule:nonzero;fill:currentColor;fill-opacity:1;" d="M 147.824219 10.132812 L 147.105469 10.226562 L 146.9375 10.160156 C 146.75 9.96875 146.761719 9.4375 146.765625 9.152344 L 146.769531 9.027344 L 146.769531 0.777344 L 146.773438 0.65625 C 146.78125 0.523438 146.789062 0.390625 146.699219 0.296875 L 146.445312 0.203125 C 146.417969 0.207031 146.214844 0.265625 146.214844 0.265625 L 145.554688 0.390625 L 144.277344 0.203125 C 143.871094 0.242188 143.476562 0.472656 143.476562 0.902344 C 143.476562 1.269531 143.753906 1.535156 144.128906 1.535156 L 144.644531 1.484375 L 144.988281 1.441406 L 145.15625 1.511719 C 145.34375 1.699219 145.332031 2.230469 145.328125 2.515625 L 145.324219 2.640625 L 145.324219 9.027344 L 145.328125 9.152344 C 145.332031 9.4375 145.34375 9.96875 145.15625 10.160156 L 144.988281 10.226562 L 144.269531 10.132812 C 143.894531 10.132812 143.617188 10.398438 143.617188 10.765625 C 143.617188 11.199219 144.011719 11.429688 144.398438 11.464844 C 144.417969 11.464844 145.140625 11.382812 145.140625 11.382812 L 146.070312 11.292969 L 147.195312 11.402344 L 147.667969 11.464844 C 148.082031 11.429688 148.476562 11.199219 148.476562 10.765625 C 148.476562 10.398438 148.199219 10.132812 147.824219 10.132812 "/>
<path style=" stroke:none;fill-rule:nonzero;fill:currentColor;fill-opacity:1;" d="M 152.992188 10.132812 L 152.273438 10.226562 L 152.105469 10.160156 C 151.917969 9.96875 151.929688 9.4375 151.933594 9.152344 L 151.9375 9.027344 L 151.9375 0.777344 L 151.941406 0.65625 C 151.949219 0.523438 151.957031 0.390625 151.867188 0.296875 L 151.613281 0.203125 C 151.582031 0.207031 151.382812 0.265625 151.382812 0.265625 L 150.722656 0.390625 L 149.445312 0.203125 C 149.035156 0.242188 148.644531 0.472656 148.644531 0.902344 C 148.644531 1.269531 148.917969 1.535156 149.296875 1.535156 L 149.8125 1.484375 L 150.15625 1.441406 L 150.324219 1.511719 C 150.511719 1.699219 150.5 2.230469 150.496094 2.515625 L 150.492188 2.640625 L 150.492188 9.027344 L 150.496094 9.152344 C 150.5 9.4375 150.511719 9.96875 150.324219 10.160156 L 150.15625 10.226562 L 149.4375 10.132812 C 149.058594 10.132812 148.785156 10.398438 148.785156 10.765625 C 148.785156 11.199219 149.175781 11.429688 149.566406 11.464844 C 149.585938 11.464844 150.308594 11.382812 150.308594 11.382812 L 151.238281 11.292969 L 152.363281 11.402344 L 152.835938 11.464844 C 153.25 11.429688 153.644531 11.199219 153.644531 10.765625 C 153.644531 10.398438 153.367188 10.132812 152.992188 10.132812 "/>
</g>
</svg>
