<svg xmlns="http://www.w3.org/2000/svg" xmlns:xlink="http://www.w3.org/1999/xlink" viewBox="0 0 474.856 64" width="474.856" height="64" color="#000000" role="img" aria-label="Main Line Media News">
<title>Main Line Media News</title>
<defs>
<clipPath id="main-line-media-news-clip1">
  <path d="M 441 21 L 474.855469 21 L 474.855469 64 L 441 64 Z M 441 21 "/>
</clipPath>
</defs>
<g id="main-line-media-news-surface1">
<path style=" stroke:none;fill-rule:nonzero;fill:currentColor;fill-opacity:1;" d="M 24.816406 16.421875 C 23.789062 16.421875 23.652344 17.175781 23.652344 17.792969 L 23.652344 60.777344 C 23.652344 61.394531 23.789062 62.148438 24.816406 62.148438 L 29.066406 62.21875 L 29.066406 63.039062 C 26.324219 63.039062 21.800781 62.972656 19.058594 62.972656 C 16.179688 62.972656 12.203125 63.039062 9.324219 63.039062 L 9.324219 62.21875 L 13.4375 62.148438 C 14.464844 62.148438 14.601562 61.394531 14.601562 60.777344 L 14.601562 17.792969 C 14.601562 17.175781 14.464844 16.421875 13.4375 16.421875 L 10.214844 16.421875 C 8.363281 16.421875 5.964844 18.960938 3.839844 22.386719 C 2.605469 24.445312 1.164062 27.460938 0.6875 28.761719 L 0 28.761719 L 0.824219 15.53125 L 37.429688 15.53125 L 38.253906 28.761719 L 37.566406 28.761719 C 37.019531 27.1875 35.855469 24.855469 34.414062 22.386719 C 32.222656 18.683594 29.890625 16.421875 28.039062 16.421875 Z M 24.816406 16.421875 "/>
<path style=" stroke:none;fill-rule:nonzero;fill:currentColor;fill-opacity:1;" d="M 48.769531 61.074219 C 48.769531 61.609375 48.886719 62.265625 49.78125 62.265625 L 52.464844 62.324219 L 52.464844 63.039062 C 50.082031 63.039062 47.160156 62.980469 44.777344 62.980469 C 42.273438 62.980469 39.828125 63.039062 37.324219 63.039062 L 37.324219 62.324219 L 39.886719 62.265625 C 40.78125 62.265625 40.902344 61.609375 40.902344 61.074219 L 40.902344 23.699219 C 40.902344 23.164062 40.78125 22.507812 39.886719 22.507812 L 37.324219 22.449219 L 37.324219 21.730469 C 39.828125 21.730469 42.273438 21.792969 44.777344 21.792969 C 47.160156 21.792969 50.082031 21.730469 52.464844 21.730469 L 52.464844 22.449219 L 49.78125 22.507812 C 48.886719 22.507812 48.769531 23.164062 48.769531 23.699219 Z M 48.769531 61.074219 "/>
<path style=" stroke:none;fill-rule:nonzero;fill:currentColor;fill-opacity:1;" d="M 58.289062 59.582031 C 58.289062 61.191406 59.003906 62.207031 60.496094 62.265625 L 62.519531 62.324219 L 62.519531 63.039062 C 61.269531 63.039062 59.363281 62.980469 57.871094 62.980469 C 56.261719 62.980469 54.832031 63.039062 53.640625 63.039062 L 53.640625 62.324219 L 55.011719 62.265625 C 56.5 62.207031 57.214844 61.253906 57.214844 59.582031 L 57.214844 23.699219 C 57.214844 23.160156 57.097656 22.507812 56.203125 22.507812 L 53.640625 22.445312 L 53.640625 21.730469 C 56.144531 21.730469 57.8125 21.792969 60.316406 21.792969 C 62.34375 21.792969 64.308594 21.730469 66.335938 21.730469 L 74.265625 51.714844 L 82.847656 21.730469 C 84.277344 21.730469 85.589844 21.792969 87.972656 21.792969 C 90.476562 21.792969 92.621094 21.730469 95.125 21.730469 L 95.125 22.445312 L 92.863281 22.507812 C 91.96875 22.507812 91.847656 23.160156 91.847656 23.699219 L 91.847656 61.074219 C 91.847656 61.609375 91.96875 62.265625 92.863281 62.265625 L 95.125 62.324219 L 95.125 63.039062 C 92.621094 63.039062 90.476562 62.980469 87.972656 62.980469 C 85.589844 62.980469 82.011719 63.039062 79.628906 63.039062 L 79.628906 62.324219 L 82.96875 62.265625 C 83.859375 62.265625 83.980469 61.609375 83.980469 61.074219 L 83.980469 23.519531 L 83.445312 23.519531 L 72.117188 63.039062 L 69.375 63.039062 L 58.824219 23.519531 L 58.289062 23.519531 Z M 58.289062 59.582031 "/>
<path style=" stroke:none;fill-rule:nonzero;fill:currentColor;fill-opacity:1;" d="M 115.542969 62.265625 C 118.585938 62.265625 121.027344 59.464844 122.519531 57.078125 C 124.007812 54.695312 125.675781 50.878906 125.976562 49.570312 L 126.691406 49.570312 L 125.855469 63.039062 L 103.980469 62.980469 C 101.476562 62.980469 99.03125 63.039062 96.53125 63.039062 L 96.53125 62.324219 L 99.09375 62.265625 C 99.984375 62.265625 100.105469 61.609375 100.105469 61.074219 L 100.105469 23.699219 C 100.105469 23.164062 99.984375 22.507812 99.09375 22.507812 L 96.53125 22.449219 L 96.53125 21.734375 C 99.03125 21.734375 101.476562 21.792969 103.980469 21.792969 L 124.902344 21.734375 L 125.320312 33.296875 L 124.605469 33.296875 C 124.246094 32.042969 123.175781 29.78125 121.980469 27.632812 C 120.671875 25.25 118.34375 22.507812 116.558594 22.507812 L 108.988281 22.507812 C 108.09375 22.507812 107.972656 23.164062 107.972656 23.699219 L 107.972656 41.042969 C 115.066406 41.042969 116.796875 39.257812 117.75 32.757812 L 118.464844 32.757812 L 118.464844 50.105469 L 117.691406 50.105469 C 116.558594 42.59375 113.816406 41.820312 107.972656 41.820312 L 107.972656 61.074219 C 107.972656 61.609375 108.09375 62.265625 108.988281 62.265625 Z M 115.542969 62.265625 "/>
<path style=" stroke:none;fill-rule:nonzero;fill:currentColor;fill-opacity:1;" d="M 140.972656 63.875 C 135.550781 63.875 131.617188 61.789062 130.183594 61.789062 C 129.527344 61.789062 129.230469 62.445312 128.992188 63.039062 L 128.277344 63.039062 L 128.277344 49.152344 L 129.050781 49.152344 C 130.246094 54.574219 133.820312 63.101562 141.332031 63.101562 C 147.648438 63.101562 149.558594 58.6875 149.558594 54.875 C 149.558594 52.667969 148.902344 49.511719 145.148438 47.722656 C 142.523438 46.527344 139.007812 45.8125 135.488281 44.265625 C 131.257812 42.355469 128.636719 39.136719 128.636719 33.414062 C 128.636719 26.738281 133.582031 20.898438 141.988281 20.898438 C 147.054688 20.898438 151.046875 22.984375 152.003906 22.984375 C 152.65625 22.984375 153.015625 22.328125 153.195312 21.730469 L 153.96875 21.730469 L 153.96875 34.667969 L 153.132812 34.667969 C 151.761719 29.304688 149.199219 21.613281 141.988281 21.613281 C 137.339844 21.613281 134.476562 25.488281 134.476562 29.363281 C 134.476562 31.863281 135.429688 34.667969 139.1875 36.453125 C 141.808594 37.648438 145.328125 38.363281 148.84375 39.910156 C 153.195312 41.878906 155.816406 44.980469 155.816406 50.226562 C 155.816406 57.914062 150.453125 63.875 140.972656 63.875 "/>
<path style=" stroke:none;fill-rule:nonzero;fill:currentColor;fill-opacity:1;" d="M 178.660156 15.257812 C 175.710938 15.257812 174.476562 17.792969 174.476562 22.042969 C 174.476562 24.582031 175.640625 28.078125 179.414062 33.492188 C 182.976562 32.054688 182.910156 27.941406 182.910156 23.894531 C 182.910156 19.164062 182.222656 15.257812 178.660156 15.257812 M 172.351562 37.675781 C 171.050781 39.113281 170.089844 42.128906 170.089844 47.273438 C 170.089844 55.222656 173.722656 61.394531 179.550781 61.394531 C 182.703125 61.394531 184.898438 59.820312 185.652344 58.859375 Z M 186.132812 59.679688 C 183.183594 62.5625 179.480469 64 174.339844 64 C 166.59375 64 161.039062 58.449219 161.039062 50.769531 C 161.039062 42.882812 165.425781 39.386719 171.941406 36.988281 C 167.828125 31.023438 166.523438 27.734375 166.523438 24.921875 C 166.523438 19.441406 170.570312 14.570312 178.660156 14.570312 C 184.484375 14.570312 190.246094 16.972656 190.246094 23.550781 C 190.246094 30.203125 184.347656 32.535156 179.753906 34.179688 L 191.546875 52.960938 C 194.835938 47.820312 196.414062 41.375 196.414062 37.605469 C 196.414062 36.988281 196.277344 36.234375 195.25 36.234375 L 191.203125 36.167969 L 191.203125 35.34375 C 193.945312 35.34375 193.742188 35.414062 196.484375 35.414062 C 199.363281 35.414062 199.703125 35.34375 202.585938 35.34375 L 202.585938 36.167969 L 198.949219 36.234375 C 197.921875 36.234375 197.785156 36.988281 197.785156 37.605469 C 197.785156 40.484375 196.621094 47.617188 192.164062 53.785156 L 196.550781 60.640625 C 197.101562 61.601562 198.058594 62.148438 199.15625 62.148438 L 202.308594 62.21875 L 202.308594 63.039062 C 199.566406 62.972656 198.058594 62.972656 195.316406 62.972656 C 193.191406 62.972656 190.3125 62.972656 188.1875 63.039062 Z M 186.132812 59.679688 "/>
<path style=" stroke:none;fill-rule:nonzero;fill:currentColor;fill-opacity:1;" d="M 222.894531 64 C 216.65625 64 212.132812 61.601562 210.484375 61.601562 C 209.730469 61.601562 209.386719 62.355469 209.113281 63.039062 L 208.292969 63.039062 L 208.292969 47.066406 L 209.183594 47.066406 C 210.554688 53.304688 214.667969 63.109375 223.304688 63.109375 C 230.570312 63.109375 232.765625 58.035156 232.765625 53.648438 C 232.765625 51.113281 232.011719 47.476562 227.691406 45.421875 C 224.675781 44.050781 220.632812 43.226562 216.585938 41.445312 C 211.71875 39.253906 208.703125 35.550781 208.703125 28.96875 C 208.703125 21.289062 214.394531 14.570312 224.058594 14.570312 C 229.886719 14.570312 234.480469 16.972656 235.578125 16.972656 C 236.332031 16.972656 236.742188 16.21875 236.949219 15.53125 L 237.839844 15.53125 L 237.839844 30.40625 L 236.878906 30.40625 C 235.300781 24.238281 232.355469 15.394531 224.058594 15.394531 C 218.710938 15.394531 215.421875 19.851562 215.421875 24.308594 C 215.421875 27.1875 216.519531 30.40625 220.835938 32.464844 C 223.855469 33.835938 227.898438 34.65625 231.941406 36.441406 C 236.949219 38.703125 239.964844 42.269531 239.964844 48.300781 C 239.964844 57.144531 233.792969 64 222.894531 64 "/>
<path style=" stroke:none;fill-rule:nonzero;fill:currentColor;fill-opacity:1;" d="M 269.515625 25.1875 C 269.515625 23.582031 268.800781 22.566406 267.308594 22.507812 L 265.878906 22.449219 L 265.878906 21.730469 C 267.132812 21.730469 268.441406 21.792969 269.933594 21.792969 C 271.542969 21.792969 272.734375 21.730469 273.925781 21.730469 L 273.925781 22.449219 L 272.792969 22.507812 C 271.304688 22.566406 270.589844 23.519531 270.589844 25.1875 L 270.589844 49.746094 C 270.589844 58.988281 266 63.875 257.238281 63.875 C 250.382812 63.875 243.050781 61.3125 243.050781 51.59375 L 243.050781 23.699219 C 243.050781 23.164062 242.929688 22.507812 242.035156 22.507812 L 239.472656 22.449219 L 239.472656 21.730469 C 241.976562 21.730469 244.421875 21.792969 246.925781 21.792969 C 249.308594 21.792969 252.464844 21.730469 254.851562 21.730469 L 254.851562 22.449219 L 251.933594 22.507812 C 251.035156 22.507812 250.917969 23.164062 250.917969 23.699219 L 250.917969 50.761719 C 250.917969 57.792969 253.0625 61.550781 258.964844 61.550781 C 266.175781 61.550781 269.515625 57.078125 269.515625 48.914062 Z M 269.515625 25.1875 "/>
<path style=" stroke:none;fill-rule:nonzero;fill:currentColor;fill-opacity:1;" d="M 291.734375 62.265625 C 297.8125 62.265625 298.050781 55.828125 298.050781 51.535156 C 298.050781 44.441406 296.5625 41.761719 289.347656 41.761719 L 286.84375 41.761719 L 286.84375 61.074219 C 286.84375 61.609375 286.964844 62.265625 287.859375 62.265625 Z M 287.859375 22.507812 C 286.964844 22.507812 286.84375 23.164062 286.84375 23.699219 L 286.84375 41.042969 L 289.347656 41.042969 C 295.367188 41.042969 296.5 38.363281 296.5 30.851562 C 296.5 24.472656 294.414062 22.507812 289.050781 22.507812 Z M 292.566406 21.734375 C 298.230469 21.734375 305.144531 24.054688 305.144531 31.210938 C 305.144531 36.394531 302.105469 40.390625 294.117188 41.164062 C 300.675781 40.925781 306.695312 45.039062 306.695312 51.476562 C 306.695312 59.882812 300.914062 63.039062 292.804688 63.039062 L 282.851562 62.980469 C 280.347656 62.980469 277.902344 63.039062 275.402344 63.039062 L 275.402344 62.324219 L 277.964844 62.265625 C 278.859375 62.265625 278.976562 61.609375 278.976562 61.074219 L 278.976562 23.699219 C 278.976562 23.164062 278.859375 22.507812 277.964844 22.507812 L 275.402344 22.449219 L 275.402344 21.734375 C 277.902344 21.734375 280.347656 21.792969 282.851562 21.792969 Z M 292.566406 21.734375 "/>
<path style=" stroke:none;fill-rule:nonzero;fill:currentColor;fill-opacity:1;" d="M 335.734375 25.1875 C 335.734375 23.582031 335.019531 22.566406 333.527344 22.507812 L 332.097656 22.449219 L 332.097656 21.730469 C 333.347656 21.730469 334.660156 21.792969 336.148438 21.792969 C 337.757812 21.792969 338.949219 21.730469 340.144531 21.730469 L 340.144531 22.449219 L 339.011719 22.507812 C 337.519531 22.566406 336.804688 23.519531 336.804688 25.1875 L 336.804688 49.746094 C 336.804688 58.988281 332.214844 63.875 323.453125 63.875 C 316.597656 63.875 309.265625 61.3125 309.265625 51.59375 L 309.265625 23.699219 C 309.265625 23.164062 309.148438 22.507812 308.253906 22.507812 L 305.691406 22.449219 L 305.691406 21.730469 C 308.195312 21.730469 310.636719 21.792969 313.140625 21.792969 C 315.523438 21.792969 318.683594 21.730469 321.070312 21.730469 L 321.070312 22.449219 L 318.148438 22.507812 C 317.253906 22.507812 317.132812 23.164062 317.132812 23.699219 L 317.132812 50.761719 C 317.132812 57.792969 319.28125 61.550781 325.179688 61.550781 C 332.394531 61.550781 335.734375 57.078125 335.734375 48.914062 Z M 335.734375 25.1875 "/>
<path style=" stroke:none;fill-rule:nonzero;fill:currentColor;fill-opacity:1;" d="M 352.8125 41.523438 C 360.917969 41.523438 362.945312 40.328125 362.945312 32.105469 C 362.945312 24.714844 360.261719 22.507812 355.3125 22.507812 L 353.824219 22.507812 C 352.929688 22.507812 352.8125 23.160156 352.8125 23.699219 Z M 359.070312 21.730469 C 363.898438 21.730469 371.648438 23.339844 371.648438 31.863281 C 371.648438 38.960938 365.984375 41.164062 360.023438 41.878906 C 363.71875 42.59375 367.234375 43.609375 369.382812 47.242188 C 370.457031 49.03125 370.691406 51.953125 370.875 54.398438 C 371.40625 60.714844 372.363281 62.324219 374.328125 62.324219 C 375.523438 62.324219 376.652344 61.789062 377.488281 61.3125 L 377.789062 61.96875 C 376 62.980469 373.613281 63.933594 371.109375 63.933594 C 366.582031 63.933594 362.46875 61.96875 362.109375 53.265625 C 361.992188 50.105469 361.929688 45.695312 360.320312 43.847656 C 359.367188 42.773438 357.9375 42.296875 356.683594 42.296875 L 352.8125 42.296875 L 352.8125 61.074219 C 352.8125 61.609375 352.929688 62.265625 353.824219 62.265625 L 356.386719 62.324219 L 356.386719 63.039062 C 354.003906 63.039062 351.203125 62.980469 348.816406 62.980469 C 346.3125 62.980469 343.871094 63.039062 341.367188 63.039062 L 341.367188 62.324219 L 343.929688 62.265625 C 344.824219 62.265625 344.941406 61.609375 344.941406 61.074219 L 344.941406 23.699219 C 344.941406 23.160156 344.824219 22.507812 343.929688 22.507812 L 341.367188 22.445312 L 341.367188 21.730469 C 343.871094 21.730469 346.3125 21.792969 348.816406 21.792969 Z M 359.070312 21.730469 "/>
<path style=" stroke:none;fill-rule:nonzero;fill:currentColor;fill-opacity:1;" d="M 394.316406 62.265625 C 400.398438 62.265625 400.636719 55.828125 400.636719 51.535156 C 400.636719 44.441406 399.148438 41.761719 391.933594 41.761719 L 389.429688 41.761719 L 389.429688 61.074219 C 389.429688 61.609375 389.550781 62.265625 390.445312 62.265625 Z M 390.445312 22.507812 C 389.550781 22.507812 389.429688 23.164062 389.429688 23.699219 L 389.429688 41.042969 L 391.933594 41.042969 C 397.953125 41.042969 399.085938 38.363281 399.085938 30.851562 C 399.085938 24.472656 397 22.507812 391.636719 22.507812 Z M 395.152344 21.734375 C 400.816406 21.734375 407.730469 24.054688 407.730469 31.210938 C 407.730469 36.394531 404.691406 40.390625 396.703125 41.164062 C 403.257812 40.925781 409.28125 45.039062 409.28125 51.476562 C 409.28125 59.882812 403.496094 63.039062 395.390625 63.039062 L 385.4375 62.980469 C 382.933594 62.980469 380.488281 63.039062 377.988281 63.039062 L 377.988281 62.324219 L 380.546875 62.265625 C 381.441406 62.265625 381.5625 61.609375 381.5625 61.074219 L 381.5625 23.699219 C 381.5625 23.164062 381.441406 22.507812 380.546875 22.507812 L 377.988281 22.449219 L 377.988281 21.734375 C 380.488281 21.734375 382.933594 21.792969 385.4375 21.792969 Z M 395.152344 21.734375 "/>
<path style=" stroke:none;fill-rule:nonzero;fill:currentColor;fill-opacity:1;" d="M 420.488281 30.972656 L 414.882812 48.316406 L 425.792969 48.316406 Z M 437.773438 61.253906 C 437.953125 61.90625 438.3125 62.265625 439.085938 62.265625 L 440.695312 62.324219 L 440.695312 63.039062 C 438.488281 63.039062 436.460938 62.980469 434.257812 62.980469 C 431.695312 62.980469 428.65625 63.039062 426.089844 63.039062 L 426.089844 62.324219 L 429.128906 62.265625 C 429.785156 62.265625 429.964844 61.789062 429.785156 61.253906 L 426.089844 49.269531 L 414.527344 49.269531 L 411.367188 59.523438 C 410.832031 61.132812 411.425781 62.265625 412.679688 62.265625 L 415.539062 62.324219 L 415.539062 63.039062 C 413.75 63.039062 411.964844 62.980469 410.175781 62.980469 C 408.6875 62.980469 408.089844 63.039062 406.601562 63.039062 L 406.601562 62.324219 L 407.375 62.265625 C 408.566406 62.265625 409.640625 61.371094 410.117188 59.582031 L 422.515625 21.554688 L 425.554688 21.554688 Z M 437.773438 61.253906 "/>
<g clip-path="url(#main-line-media-news-clip1)" clip-rule="nonzero">
<path style=" stroke:none;fill-rule:nonzero;fill:currentColor;fill-opacity:1;" d="M 471.28125 63.515625 L 467.882812 63.515625 L 446.542969 26.261719 L 446.542969 59.582031 C 446.542969 61.191406 447.257812 62.207031 448.75 62.265625 L 449.941406 62.324219 L 449.941406 63.039062 C 448.6875 63.039062 447.617188 62.980469 446.125 62.980469 C 444.515625 62.980469 443.085938 63.039062 441.894531 63.039062 L 441.894531 62.324219 L 443.265625 62.265625 C 444.753906 62.207031 445.472656 61.253906 445.472656 59.582031 L 445.472656 23.699219 C 445.472656 23.160156 445.351562 22.507812 444.457031 22.507812 L 441.894531 22.445312 L 441.894531 21.730469 C 444.398438 21.730469 445.113281 21.792969 447.617188 21.792969 C 449.644531 21.792969 451.3125 21.730469 452.800781 21.730469 L 470.207031 52.011719 L 470.207031 25.1875 C 470.207031 23.582031 469.492188 22.566406 468.003906 22.507812 L 466.453125 22.445312 L 466.453125 21.730469 C 467.707031 21.730469 469.136719 21.792969 470.625 21.792969 C 472.234375 21.792969 473.664062 21.730469 474.855469 21.730469 L 474.855469 22.445312 L 473.484375 22.507812 C 471.996094 22.566406 471.28125 23.519531 471.28125 25.1875 Z M 471.28125 63.515625 "/>
</g>
<path style=" stroke:none;fill-rule:nonzero;fill:currentColor;fill-opacity:1;" d="M 46.203125 13.3125 C 46.203125 13.875 46.453125 14.230469 46.972656 14.25 L 47.683594 14.269531 L 47.683594 14.519531 C 47.246094 14.519531 46.578125 14.5 46.054688 14.5 C 45.492188 14.5 44.699219 14.519531 44.285156 14.519531 L 44.285156 14.269531 L 45.054688 14.25 C 45.578125 14.230469 45.828125 13.894531 45.828125 13.3125 L 45.828125 0.75 C 45.828125 0.5625 45.785156 0.335938 45.472656 0.335938 L 44.285156 0.3125 L 44.285156 0.0625 C 45.160156 0.0625 46.035156 0.0859375 46.914062 0.0859375 C 47.621094 0.0859375 48.308594 0.0625 49.019531 0.0625 L 51.792969 10.558594 L 54.796875 0.0625 C 55.296875 0.0625 55.757812 0.0859375 56.59375 0.0859375 C 57.46875 0.0859375 58.511719 0.0625 59.386719 0.0625 L 59.386719 0.3125 L 58.304688 0.335938 C 57.992188 0.335938 57.949219 0.5625 57.949219 0.75 L 57.949219 13.832031 C 57.949219 14.019531 57.992188 14.25 58.304688 14.25 L 59.386719 14.269531 L 59.386719 14.519531 C 58.511719 14.519531 57.46875 14.5 56.59375 14.5 C 55.757812 14.5 54.507812 14.519531 53.671875 14.519531 L 53.671875 14.269531 L 54.839844 14.25 C 55.152344 14.25 55.195312 14.019531 55.195312 13.832031 L 55.195312 0.6875 L 55.007812 0.6875 L 51.042969 14.519531 L 50.082031 14.519531 L 46.390625 0.6875 L 46.203125 0.6875 Z M 46.203125 13.3125 "/>
<path style=" stroke:none;fill-rule:nonzero;fill:currentColor;fill-opacity:1;" d="M 64.898438 3.296875 L 62.9375 9.367188 L 66.753906 9.367188 Z M 70.945312 13.894531 C 71.011719 14.125 71.136719 14.25 71.40625 14.25 L 72.261719 14.269531 L 72.261719 14.523438 C 71.488281 14.523438 70.488281 14.5 69.714844 14.5 C 68.820312 14.5 67.464844 14.523438 66.566406 14.523438 L 66.566406 14.269531 L 67.921875 14.25 C 68.152344 14.25 68.214844 14.082031 68.152344 13.894531 L 66.859375 9.703125 L 62.808594 9.703125 L 61.703125 13.289062 C 61.515625 13.855469 61.726562 14.25 62.164062 14.25 L 63.457031 14.269531 L 63.457031 14.523438 C 62.832031 14.523438 61.914062 14.5 61.289062 14.5 C 60.765625 14.5 60.265625 14.523438 59.742188 14.523438 L 59.742188 14.269531 L 60.308594 14.25 C 60.722656 14.25 61.101562 13.9375 61.265625 13.3125 L 65.605469 0 L 66.671875 0 Z M 70.945312 13.894531 "/>
<path style=" stroke:none;fill-rule:nonzero;fill:currentColor;fill-opacity:1;" d="M 76.789062 13.832031 C 76.789062 14.019531 76.832031 14.25 77.144531 14.25 L 78.375 14.269531 L 78.375 14.519531 C 77.539062 14.519531 76.226562 14.5 75.390625 14.5 C 74.515625 14.5 73.367188 14.519531 72.492188 14.519531 L 72.492188 14.269531 L 73.679688 14.25 C 73.992188 14.25 74.035156 14.019531 74.035156 13.832031 L 74.035156 0.75 C 74.035156 0.5625 73.992188 0.332031 73.679688 0.332031 L 72.492188 0.3125 L 72.492188 0.0625 C 73.367188 0.0625 74.515625 0.0820312 75.390625 0.0820312 C 76.226562 0.0820312 77.539062 0.0625 78.375 0.0625 L 78.375 0.3125 L 77.144531 0.332031 C 76.832031 0.332031 76.789062 0.5625 76.789062 0.75 Z M 76.789062 13.832031 "/>
<path style=" stroke:none;fill-rule:nonzero;fill:currentColor;fill-opacity:1;" d="M 89.539062 14.6875 L 88.347656 14.6875 L 80.878906 1.648438 L 80.878906 13.3125 C 80.878906 13.875 81.128906 14.230469 81.652344 14.25 L 82.359375 14.269531 L 82.359375 14.519531 C 81.921875 14.519531 81.253906 14.5 80.734375 14.5 C 80.167969 14.5 79.378906 14.519531 78.960938 14.519531 L 78.960938 14.269531 L 79.730469 14.25 C 80.253906 14.230469 80.503906 13.894531 80.503906 13.3125 L 80.503906 0.75 C 80.503906 0.5625 80.460938 0.332031 80.148438 0.332031 L 78.960938 0.3125 L 78.960938 0.0625 C 79.835938 0.0625 80.378906 0.0820312 81.253906 0.0820312 C 81.964844 0.0820312 82.546875 0.0625 83.070312 0.0625 L 89.160156 10.660156 L 89.160156 1.273438 C 89.160156 0.710938 88.910156 0.355469 88.390625 0.332031 L 87.554688 0.3125 L 87.554688 0.0625 C 87.992188 0.0625 88.785156 0.0820312 89.308594 0.0820312 C 89.871094 0.0820312 90.664062 0.0625 91.082031 0.0625 L 91.082031 0.3125 L 90.308594 0.332031 C 89.789062 0.355469 89.539062 0.6875 89.539062 1.273438 Z M 89.539062 14.6875 "/>
<path style=" stroke:none;fill-rule:nonzero;fill:currentColor;fill-opacity:1;" d="M 102.472656 14.25 C 103.597656 14.25 104.457031 13.164062 104.976562 12.332031 C 105.5 11.496094 106 10.285156 106.144531 9.804688 L 106.394531 9.804688 L 106.105469 14.519531 L 98.949219 14.5 C 98.070312 14.5 96.921875 14.519531 96.046875 14.519531 L 96.046875 14.269531 L 97.238281 14.25 C 97.550781 14.25 97.589844 14.019531 97.589844 13.832031 L 97.589844 0.75 C 97.589844 0.5625 97.550781 0.332031 97.238281 0.332031 L 96.046875 0.3125 L 96.046875 0.0625 C 96.921875 0.0625 98.070312 0.0820312 98.949219 0.0820312 C 99.78125 0.0820312 101.054688 0.0625 101.890625 0.0625 L 101.890625 0.3125 L 100.699219 0.332031 C 100.386719 0.332031 100.34375 0.5625 100.34375 0.75 L 100.34375 13.832031 C 100.34375 14.019531 100.386719 14.25 100.699219 14.25 Z M 102.472656 14.25 "/>
<path style=" stroke:none;fill-rule:nonzero;fill:currentColor;fill-opacity:1;" d="M 111.152344 13.832031 C 111.152344 14.019531 111.195312 14.25 111.507812 14.25 L 112.738281 14.269531 L 112.738281 14.519531 C 111.902344 14.519531 110.589844 14.5 109.753906 14.5 C 108.878906 14.5 107.730469 14.519531 106.855469 14.519531 L 106.855469 14.269531 L 108.042969 14.25 C 108.355469 14.25 108.398438 14.019531 108.398438 13.832031 L 108.398438 0.75 C 108.398438 0.5625 108.355469 0.332031 108.042969 0.332031 L 106.855469 0.3125 L 106.855469 0.0625 C 107.730469 0.0625 108.878906 0.0820312 109.753906 0.0820312 C 110.589844 0.0820312 111.902344 0.0625 112.738281 0.0625 L 112.738281 0.3125 L 111.507812 0.332031 C 111.195312 0.332031 111.152344 0.5625 111.152344 0.75 Z M 111.152344 13.832031 "/>
<path style=" stroke:none;fill-rule:nonzero;fill:currentColor;fill-opacity:1;" d="M 123.878906 14.6875 L 122.691406 14.6875 L 115.222656 1.648438 L 115.222656 13.3125 C 115.222656 13.875 115.472656 14.230469 115.996094 14.25 L 116.703125 14.269531 L 116.703125 14.519531 C 116.265625 14.519531 115.597656 14.5 115.078125 14.5 C 114.511719 14.5 113.71875 14.519531 113.300781 14.519531 L 113.300781 14.269531 L 114.074219 14.25 C 114.597656 14.230469 114.847656 13.894531 114.847656 13.3125 L 114.847656 0.75 C 114.847656 0.5625 114.804688 0.332031 114.492188 0.332031 L 113.300781 0.3125 L 113.300781 0.0625 C 114.179688 0.0625 114.722656 0.0820312 115.597656 0.0820312 C 116.304688 0.0820312 116.890625 0.0625 117.414062 0.0625 L 123.503906 10.660156 L 123.503906 1.273438 C 123.503906 0.710938 123.253906 0.355469 122.734375 0.332031 L 121.898438 0.3125 L 121.898438 0.0625 C 122.335938 0.0625 123.128906 0.0820312 123.648438 0.0820312 C 124.214844 0.0820312 125.007812 0.0625 125.425781 0.0625 L 125.425781 0.3125 L 124.652344 0.332031 C 124.128906 0.355469 123.878906 0.6875 123.878906 1.273438 Z M 123.878906 14.6875 "/>
<path style=" stroke:none;fill-rule:nonzero;fill:currentColor;fill-opacity:1;" d="M 132.9375 14.25 C 134 14.25 134.855469 13.269531 135.375 12.433594 C 135.898438 11.601562 136.484375 10.265625 136.585938 9.804688 L 136.835938 9.804688 L 136.542969 14.519531 L 128.890625 14.5 C 128.011719 14.5 126.863281 14.519531 125.988281 14.519531 L 125.988281 14.269531 L 127.179688 14.25 C 127.492188 14.25 127.53125 14.019531 127.53125 13.832031 L 127.53125 0.75 C 127.53125 0.5625 127.492188 0.332031 127.179688 0.332031 L 125.988281 0.3125 L 125.988281 0.0625 C 126.863281 0.0625 128.011719 0.0820312 128.890625 0.0820312 L 136.210938 0.0625 L 136.359375 4.109375 L 136.105469 4.109375 C 135.980469 3.671875 135.605469 2.878906 135.1875 2.128906 C 134.730469 1.292969 133.914062 0.332031 133.289062 0.332031 L 130.640625 0.332031 C 130.328125 0.332031 130.285156 0.5625 130.285156 0.75 L 130.285156 6.820312 C 132.769531 6.820312 133.375 6.195312 133.707031 3.921875 L 133.957031 3.921875 L 133.957031 9.992188 L 133.6875 9.992188 C 133.289062 7.363281 132.332031 7.09375 130.285156 7.09375 L 130.285156 13.832031 C 130.285156 14.019531 130.328125 14.25 130.640625 14.25 Z M 132.9375 14.25 "/>
</g>
</svg>
