<svg xmlns="http://www.w3.org/2000/svg" xmlns:xlink="http://www.w3.org/1999/xlink" viewBox="0 0 215.944 64" width="215.944" height="64" color="#000000" role="img" aria-label="Cupertino Courier">
<title>Cupertino Courier</title>
<defs>
<clipPath id="cupertino-courier-clip1">
  <path d="M 187 20 L 215.945312 20 L 215.945312 53 L 187 53 Z M 187 20 "/>
</clipPath>
</defs>
<g id="cupertino-courier-surface1">
<path style=" stroke:none;fill-rule:nonzero;fill:currentColor;fill-opacity:1;" d="M 87.625 37.960938 C 87.625 42.816406 86.003906 47.550781 82.160156 49.910156 C 85.613281 47.453125 87.082031 42.941406 87.082031 38.324219 C 87.082031 30.992188 81.675781 21.917969 72.464844 21.917969 C 70.789062 21.917969 69.332031 22.171875 68.066406 22.632812 C 69.203125 22.285156 70.480469 22.097656 71.921875 22.097656 C 81.136719 22.097656 86.542969 31.171875 86.542969 38.503906 C 86.542969 43.449219 84.855469 48.269531 80.851562 50.582031 C 79.523438 51.140625 77.980469 51.457031 76.203125 51.457031 C 66.09375 51.457031 61.722656 41.253906 61.722656 34.4375 C 61.722656 27.621094 64.824219 21.554688 73.003906 21.554688 C 82.21875 21.554688 87.625 30.628906 87.625 37.960938 M 58.242188 36.222656 C 58.242188 43.371094 63.695312 52.582031 74.933594 52.582031 C 86.214844 52.582031 91.199219 44.542969 91.199219 36.082031 C 91.199219 29.96875 86.355469 20.003906 74.792969 20.003906 C 71.265625 20.003906 68.355469 20.78125 66.011719 22.078125 C 59.875 24.859375 57.160156 30.976562 57.160156 36.765625 C 57.160156 43.910156 62.613281 53.125 73.847656 53.125 C 76.234375 53.125 78.339844 52.765625 80.175781 52.117188 C 78.46875 52.648438 76.546875 52.945312 74.390625 52.945312 C 63.152344 52.945312 57.699219 43.730469 57.699219 36.585938 C 57.699219 31.421875 59.863281 25.996094 64.683594 22.910156 C 60.242188 26.046875 58.242188 31.257812 58.242188 36.222656 "/>
<path style=" stroke:none;fill-rule:nonzero;fill:currentColor;fill-opacity:1;" d="M 95.355469 42.460938 C 95.355469 36.539062 95.589844 28.59375 94.695312 22.808594 C 94.507812 21.777344 94.789062 21.539062 92.488281 21.539062 C 92.109375 21.539062 91.921875 21.351562 91.921875 21.117188 C 91.921875 21.0625 91.941406 21.015625 91.972656 20.96875 C 91.960938 20.96875 91.953125 20.96875 91.945312 20.96875 C 91.570312 20.96875 91.382812 21.109375 91.382812 21.296875 C 91.382812 21.535156 91.570312 21.722656 91.945312 21.722656 C 94.246094 21.722656 93.964844 21.957031 94.152344 22.992188 C 95.046875 28.773438 94.8125 36.71875 94.8125 42.640625 C 94.8125 50.304688 99.984375 53.125 106.046875 53.125 C 107.769531 53.125 109.394531 52.867188 110.84375 52.34375 C 109.535156 52.746094 108.101562 52.945312 106.589844 52.945312 C 100.527344 52.945312 95.355469 50.125 95.355469 42.460938 "/>
<path style=" stroke:none;fill-rule:nonzero;fill:currentColor;fill-opacity:1;" d="M 122.269531 20.425781 C 118.179688 20.660156 117.054688 20.660156 112.964844 20.425781 C 112.632812 20.425781 112.445312 20.566406 112.445312 20.753906 C 112.445312 20.992188 112.539062 21.179688 112.964844 21.179688 C 115.3125 21.179688 116.394531 21.414062 116.488281 22.449219 C 116.820312 25.738281 116.820312 34.058594 117.101562 41.066406 C 117.269531 45.316406 115.75 47.996094 113.328125 49.464844 C 115.429688 47.9375 116.714844 45.351562 116.558594 41.425781 C 116.277344 34.421875 116.277344 26.101562 115.945312 22.808594 C 115.851562 21.777344 114.769531 21.539062 112.421875 21.539062 C 111.996094 21.539062 111.902344 21.351562 111.902344 21.117188 C 111.902344 21.066406 111.917969 21.015625 111.949219 20.972656 C 111.925781 20.972656 111.902344 20.96875 111.878906 20.96875 C 111.546875 20.96875 111.359375 21.109375 111.359375 21.296875 C 111.359375 21.535156 111.457031 21.722656 111.878906 21.722656 C 114.226562 21.722656 115.308594 21.957031 115.402344 22.992188 C 115.734375 26.28125 115.734375 34.601562 116.015625 41.609375 C 116.183594 45.894531 114.640625 48.585938 112.179688 50.046875 C 110.785156 50.625 109.175781 50.890625 107.460938 50.890625 C 102.996094 50.890625 99.1875 49.246094 99.375 41.722656 C 99.515625 36.269531 99.421875 25.832031 99.5625 22.449219 C 99.578125 22.164062 99.582031 21.941406 99.636719 21.765625 C 99.972656 21.734375 100.40625 21.722656 100.972656 21.722656 C 101.230469 21.722656 101.367188 21.652344 101.433594 21.539062 C 100.574219 21.542969 100.027344 21.574219 99.675781 21.660156 C 99.863281 21.285156 100.390625 21.179688 102.054688 21.179688 C 102.480469 21.179688 102.574219 20.992188 102.574219 20.753906 C 102.574219 20.566406 102.386719 20.425781 102.054688 20.425781 C 98.011719 20.613281 97.074219 20.660156 93.03125 20.425781 C 92.65625 20.425781 92.464844 20.566406 92.464844 20.753906 C 92.464844 20.992188 92.65625 21.179688 93.03125 21.179688 C 95.332031 21.179688 95.050781 21.414062 95.238281 22.449219 C 96.132812 28.230469 95.898438 36.175781 95.898438 42.101562 C 95.898438 49.761719 101.070312 52.582031 107.132812 52.582031 C 113.339844 52.582031 118.277344 49.246094 118.464844 42.003906 C 118.699219 31.757812 118.933594 25.832031 119.355469 22.449219 C 119.390625 22.183594 119.449219 21.96875 119.550781 21.800781 C 119.953125 21.742188 120.480469 21.722656 121.1875 21.722656 C 121.445312 21.722656 121.582031 21.652344 121.648438 21.539062 C 120.652344 21.542969 120.011719 21.589844 119.597656 21.730469 C 119.914062 21.296875 120.613281 21.179688 122.269531 21.179688 C 122.695312 21.179688 122.789062 20.992188 122.789062 20.753906 C 122.789062 20.566406 122.601562 20.425781 122.269531 20.425781 "/>
<path style=" stroke:none;fill-rule:nonzero;fill:currentColor;fill-opacity:1;" d="M 124.921875 52.429688 C 124.546875 52.429688 124.449219 52.285156 124.449219 52.238281 C 124.449219 52.210938 124.464844 52.175781 124.492188 52.136719 C 124.453125 52.136719 124.417969 52.140625 124.378906 52.140625 C 124.050781 52.140625 123.90625 52.328125 123.90625 52.421875 C 123.90625 52.46875 124.003906 52.609375 124.378906 52.609375 C 125.882812 52.609375 127.011719 52.515625 128.140625 52.515625 C 129.410156 52.515625 131.054688 52.5625 132.605469 52.65625 C 132.859375 52.65625 133.027344 52.542969 133.09375 52.472656 C 131.558594 52.378906 129.9375 52.332031 128.683594 52.332031 C 127.554688 52.332031 126.425781 52.429688 124.921875 52.429688 "/>
<path style=" stroke:none;fill-rule:nonzero;fill:currentColor;fill-opacity:1;" d="M 135.570312 35.660156 C 134.867188 35.753906 131.339844 35.753906 131.339844 35.753906 C 131.339844 35.753906 131.257812 24.820312 131.480469 21.746094 C 132.746094 21.699219 134.734375 21.675781 135.613281 21.675781 C 138.859375 21.675781 141.726562 24.074219 141.726562 28.539062 C 141.726562 31.9375 140.703125 33.824219 138.988281 34.902344 C 137.996094 35.296875 136.839844 35.519531 135.570312 35.660156 M 136.699219 21.132812 C 139.941406 21.132812 142.8125 23.53125 142.8125 27.996094 C 142.8125 31.492188 141.726562 33.390625 139.921875 34.449219 C 141.398438 33.335938 142.269531 31.488281 142.269531 28.355469 C 142.269531 23.890625 139.402344 21.492188 136.15625 21.492188 C 135.140625 21.492188 132.640625 21.527344 131.496094 21.589844 C 131.503906 21.46875 131.515625 21.363281 131.527344 21.273438 C 132.09375 21.179688 135.476562 21.132812 136.699219 21.132812 M 151.648438 51.738281 C 150.238281 51.878906 148.828125 50.796875 147.980469 49.808594 C 145.589844 47.050781 141.265625 39.75 139.582031 36.089844 C 139.78125 36.027344 139.976562 35.964844 140.167969 35.894531 C 139.972656 35.953125 139.773438 36.011719 139.570312 36.0625 C 139.539062 35.988281 139.503906 35.917969 139.472656 35.847656 C 143.65625 35 146.667969 32.414062 146.667969 27.761719 C 146.667969 22.589844 143.046875 20.144531 137.921875 20.144531 C 135.996094 20.144531 131.199219 20.519531 128.378906 20.519531 C 127.296875 20.519531 126.167969 20.472656 124.851562 20.378906 C 124.523438 20.378906 124.289062 20.566406 124.289062 20.707031 C 124.289062 20.992188 124.429688 21.132812 124.851562 21.132812 C 127.15625 21.132812 127.109375 21.414062 127.203125 22.402344 C 127.765625 25.785156 127.957031 39.511719 127.859375 49.761719 C 127.859375 50.566406 127.816406 51.128906 127.050781 51.402344 C 127.296875 51.09375 127.316406 50.664062 127.316406 50.125 C 127.414062 39.875 127.222656 26.148438 126.660156 22.761719 C 126.566406 21.777344 126.613281 21.492188 124.308594 21.492188 C 123.886719 21.492188 123.746094 21.351562 123.746094 21.070312 C 123.746094 21.023438 123.773438 20.972656 123.816406 20.925781 C 123.800781 20.925781 123.785156 20.921875 123.765625 20.921875 C 123.4375 20.921875 123.203125 21.109375 123.203125 21.25 C 123.203125 21.535156 123.34375 21.675781 123.765625 21.675781 C 126.070312 21.675781 126.023438 21.957031 126.117188 22.945312 C 126.679688 26.328125 126.871094 40.054688 126.777344 50.304688 C 126.777344 50.8125 126.757812 51.222656 126.550781 51.527344 C 126.257812 51.574219 125.902344 51.597656 125.464844 51.597656 C 125.132812 51.597656 124.992188 51.785156 124.992188 51.878906 C 124.992188 51.925781 125.085938 52.066406 125.464844 52.066406 C 126.96875 52.066406 128.097656 51.972656 129.222656 51.972656 C 130.496094 51.972656 132.140625 52.019531 133.691406 52.113281 C 134.019531 52.113281 134.207031 51.925781 134.207031 51.878906 C 134.207031 51.785156 133.972656 51.691406 133.644531 51.644531 C 131.621094 51.5 131.152344 51.265625 131.152344 49.386719 L 131.332031 37.027344 L 134.957031 36.953125 C 137.023438 41.796875 140.550781 47.671875 143.558594 51.339844 C 144.546875 52.5625 146.757812 52.984375 148.214844 52.984375 C 149.058594 52.984375 149.859375 52.796875 150.609375 52.609375 C 150.746094 52.570312 150.832031 52.53125 150.886719 52.492188 C 150.214844 52.65625 149.503906 52.804688 148.757812 52.804688 C 147.296875 52.804688 145.089844 52.378906 144.101562 51.160156 C 141.09375 47.492188 137.566406 41.613281 135.5 36.773438 L 131.335938 36.855469 L 131.339844 36.503906 L 136.042969 36.410156 C 138.109375 41.253906 141.636719 47.128906 144.644531 50.796875 C 145.632812 52.019531 147.839844 52.441406 149.300781 52.441406 C 150.144531 52.441406 150.945312 52.253906 151.695312 52.066406 C 152.027344 51.972656 152.074219 51.878906 152.074219 51.785156 C 152.027344 51.691406 151.835938 51.738281 151.648438 51.738281 "/>
<path style=" stroke:none;fill-rule:nonzero;fill:currentColor;fill-opacity:1;" d="M 153.082031 52.429688 C 152.707031 52.476562 152.609375 52.285156 152.609375 52.238281 C 152.609375 52.210938 152.625 52.175781 152.652344 52.136719 C 152.613281 52.136719 152.578125 52.140625 152.539062 52.140625 C 152.210938 52.140625 152.066406 52.328125 152.066406 52.421875 C 152.066406 52.46875 152.164062 52.65625 152.539062 52.609375 C 154.183594 52.46875 155.972656 52.421875 157.285156 52.421875 C 158.417969 52.421875 160.484375 52.46875 161.894531 52.609375 C 162.320312 52.652344 162.398438 52.578125 162.410156 52.425781 C 161 52.285156 158.949219 52.238281 157.828125 52.238281 C 156.511719 52.238281 154.726562 52.285156 153.082031 52.429688 "/>
<path style=" stroke:none;fill-rule:nonzero;fill:currentColor;fill-opacity:1;" d="M 163.402344 21.179688 C 163.777344 21.179688 163.964844 20.992188 163.964844 20.804688 C 163.964844 20.566406 163.777344 20.378906 163.402344 20.425781 C 161.382812 20.566406 159.3125 20.613281 158.042969 20.566406 C 156.773438 20.566406 155.035156 20.566406 153.011719 20.425781 C 152.683594 20.425781 152.449219 20.566406 152.449219 20.757812 C 152.449219 20.992188 152.589844 21.179688 153.011719 21.179688 C 155.316406 21.179688 155.550781 21.414062 155.691406 22.449219 C 156.210938 25.832031 156.585938 39.371094 156.492188 49.574219 C 156.492188 50.359375 156.257812 50.964844 155.488281 51.304688 C 155.832031 50.957031 155.949219 50.492188 155.949219 49.9375 C 156.042969 39.734375 155.667969 26.195312 155.148438 22.808594 C 155.007812 21.777344 154.773438 21.539062 152.46875 21.539062 C 152.046875 21.539062 151.90625 21.351562 151.90625 21.117188 C 151.90625 21.0625 151.925781 21.015625 151.960938 20.972656 C 151.949219 20.972656 151.9375 20.96875 151.925781 20.96875 C 151.597656 20.96875 151.363281 21.109375 151.363281 21.300781 C 151.363281 21.53125 151.503906 21.722656 151.925781 21.722656 C 154.230469 21.722656 154.464844 21.957031 154.605469 22.992188 C 155.125 26.375 155.5 39.914062 155.40625 50.117188 C 155.40625 50.664062 155.292969 51.125 154.960938 51.472656 C 154.597656 51.554688 154.15625 51.597656 153.625 51.597656 C 153.292969 51.597656 153.152344 51.785156 153.152344 51.878906 C 153.152344 51.925781 153.246094 52.113281 153.625 52.066406 C 155.269531 51.925781 157.054688 51.878906 158.371094 51.878906 C 159.5 51.878906 161.570312 51.925781 162.980469 52.066406 C 163.449219 52.113281 163.496094 52.019531 163.496094 51.832031 C 163.496094 51.691406 163.214844 51.597656 162.980469 51.597656 C 160.675781 51.597656 159.78125 50.84375 159.78125 49.574219 C 159.640625 39.371094 159.921875 25.738281 160.160156 22.449219 C 160.171875 22.203125 160.230469 22.003906 160.339844 21.84375 C 160.832031 21.753906 161.480469 21.722656 162.316406 21.722656 C 162.558594 21.722656 162.71875 21.644531 162.804688 21.539062 C 161.671875 21.542969 160.886719 21.605469 160.378906 21.792969 C 160.765625 21.308594 161.699219 21.179688 163.402344 21.179688 "/>
<path style=" stroke:none;fill-rule:nonzero;fill:currentColor;fill-opacity:1;" d="M 166.136719 52.429688 C 165.757812 52.429688 165.664062 52.285156 165.664062 52.238281 C 165.664062 52.222656 165.671875 52.203125 165.679688 52.183594 C 165.652344 52.183594 165.625 52.1875 165.59375 52.1875 C 165.265625 52.1875 165.121094 52.328125 165.121094 52.421875 C 165.121094 52.46875 165.21875 52.609375 165.59375 52.609375 C 168.695312 52.609375 178.570312 52.421875 182.234375 52.5625 C 183.269531 52.5625 183.742188 53.453125 184.023438 52.890625 C 184.035156 52.863281 184.050781 52.839844 184.0625 52.8125 C 183.769531 52.667969 183.367188 52.378906 182.777344 52.378906 C 179.109375 52.238281 169.238281 52.429688 166.136719 52.429688 "/>
<path style=" stroke:none;fill-rule:nonzero;fill:currentColor;fill-opacity:1;" d="M 187.878906 46.472656 C 187.785156 46.378906 187.503906 46.425781 187.363281 46.660156 C 186.484375 47.765625 185.636719 48.683594 184.457031 49.40625 C 185.363281 48.75 186.074219 47.960938 186.808594 47.035156 C 186.804688 47.027344 186.800781 47.019531 186.796875 47.015625 C 186.703125 46.921875 186.417969 46.96875 186.277344 47.203125 C 185.371094 48.347656 184.492188 49.289062 183.246094 50.019531 C 181.300781 50.839844 178.519531 51.289062 173.964844 51.359375 C 173.449219 51.359375 172.648438 51.21875 172.367188 51.171875 C 172.324219 50.722656 172.320312 39.96875 172.320312 37.265625 C 174.492188 37.390625 177.898438 37.523438 180.074219 37.523438 C 181.84375 37.523438 182.460938 37.449219 182.699219 37.257812 C 182.296875 37.316406 181.65625 37.34375 180.617188 37.34375 C 178.25 37.34375 174.429688 37.1875 172.320312 37.050781 C 172.320312 36.796875 172.320312 36.65625 172.320312 36.65625 C 174.246094 36.792969 178.570312 36.980469 181.15625 36.980469 C 183.554688 36.980469 183.835938 36.839844 183.933594 36.464844 C 183.980469 36.277344 183.789062 36.089844 183.554688 35.949219 C 182.238281 35.101562 181.675781 34.351562 180.972656 34.257812 C 180.78125 34.210938 180.359375 34.585938 180.078125 34.773438 C 179.996094 34.828125 179.910156 34.878906 179.820312 34.925781 C 179.871094 34.890625 179.925781 34.851562 179.976562 34.816406 C 179.945312 34.808594 179.914062 34.800781 179.886719 34.796875 C 179.707031 34.753906 179.316406 35.09375 179.035156 35.289062 C 178.105469 35.632812 176.941406 35.847656 175.75 35.949219 L 172.367188 36.183594 C 172.367188 36.183594 172.539062 25.609375 172.757812 21.722656 C 173.828125 21.664062 175.496094 21.582031 177.019531 21.582031 C 179.933594 21.582031 182.375 22.894531 184.070312 25.105469 C 184.445312 25.578125 185.011719 25.53125 185.152344 25.433594 C 185.179688 25.40625 185.191406 25.355469 185.1875 25.289062 C 184.996094 25.246094 184.785156 25.140625 184.613281 24.925781 C 182.917969 22.714844 180.472656 21.398438 177.558594 21.398438 C 175.753906 21.398438 173.742188 21.519531 172.769531 21.566406 C 172.773438 21.445312 172.78125 21.332031 172.789062 21.226562 C 173.261719 21.226562 175.847656 21.039062 178.101562 21.039062 C 181.015625 21.039062 183.460938 22.355469 185.152344 24.5625 C 185.53125 25.035156 186.09375 24.984375 186.234375 24.890625 C 186.65625 24.46875 183.507812 20.191406 182.851562 19.957031 C 182.613281 19.910156 182.472656 20.050781 182.566406 20.238281 C 177.679688 20.238281 169.734375 20.332031 166.066406 20.519531 C 165.644531 20.519531 165.503906 20.753906 165.503906 20.941406 C 165.503906 21.085938 165.738281 21.273438 166.066406 21.273438 C 168.371094 21.273438 168.417969 21.507812 168.464844 22.542969 C 168.699219 26.019531 169.167969 39.609375 169.074219 49.855469 C 169.074219 50.65625 169.03125 51.191406 168.28125 51.457031 C 168.511719 51.160156 168.53125 50.746094 168.53125 50.21875 C 168.625 39.96875 168.15625 26.382812 167.921875 22.90625 C 167.875 21.871094 167.828125 21.632812 165.523438 21.632812 C 165.195312 21.632812 164.960938 21.445312 164.960938 21.304688 C 164.960938 21.222656 164.988281 21.136719 165.050781 21.058594 C 165.027344 21.0625 165.003906 21.0625 164.980469 21.0625 C 164.558594 21.0625 164.417969 21.296875 164.417969 21.484375 C 164.417969 21.628906 164.652344 21.816406 164.980469 21.816406 C 167.285156 21.816406 167.332031 22.050781 167.378906 23.085938 C 167.613281 26.5625 168.085938 40.148438 167.992188 50.398438 C 167.992188 50.890625 167.972656 51.285156 167.785156 51.574219 C 167.488281 51.621094 167.125 51.644531 166.679688 51.644531 C 166.347656 51.644531 166.207031 51.785156 166.207031 51.878906 C 166.207031 51.925781 166.300781 52.066406 166.679688 52.066406 C 169.78125 52.066406 179.652344 51.878906 183.320312 52.019531 C 184.355469 52.019531 184.824219 52.914062 185.105469 52.347656 C 186.046875 50.5625 186.65625 48.917969 187.691406 47.128906 C 187.878906 46.894531 187.976562 46.566406 187.878906 46.472656 "/>
<path style=" stroke:none;fill-rule:nonzero;fill:currentColor;fill-opacity:1;" d="M 188.792969 52.429688 C 188.414062 52.429688 188.320312 52.285156 188.320312 52.238281 C 188.320312 52.210938 188.335938 52.175781 188.363281 52.136719 C 188.324219 52.136719 188.289062 52.140625 188.25 52.140625 C 187.921875 52.140625 187.777344 52.328125 187.777344 52.421875 C 187.777344 52.46875 187.875 52.609375 188.25 52.609375 C 189.753906 52.609375 190.882812 52.515625 192.011719 52.515625 C 193.28125 52.515625 194.925781 52.5625 196.476562 52.65625 C 196.730469 52.65625 196.898438 52.542969 196.964844 52.472656 C 195.429688 52.378906 193.808594 52.332031 192.554688 52.332031 C 191.425781 52.332031 190.296875 52.429688 188.792969 52.429688 "/>
<g clip-path="url(#cupertino-courier-clip1)" clip-rule="nonzero">
<path style=" stroke:none;fill-rule:nonzero;fill:currentColor;fill-opacity:1;" d="M 199.441406 35.660156 C 198.738281 35.753906 195.210938 35.753906 195.210938 35.753906 C 195.210938 35.753906 195.128906 24.820312 195.355469 21.746094 C 196.617188 21.699219 198.609375 21.675781 199.484375 21.675781 C 202.730469 21.675781 205.597656 24.074219 205.597656 28.539062 C 205.597656 31.9375 204.574219 33.824219 202.859375 34.902344 C 201.867188 35.296875 200.710938 35.519531 199.441406 35.660156 M 200.570312 21.132812 C 203.816406 21.132812 206.679688 23.53125 206.679688 27.996094 C 206.679688 31.492188 205.597656 33.390625 203.792969 34.449219 C 205.269531 33.335938 206.140625 31.488281 206.140625 28.355469 C 206.140625 23.890625 203.273438 21.492188 200.027344 21.492188 C 199.011719 21.492188 196.511719 21.527344 195.367188 21.589844 C 195.375 21.46875 195.386719 21.363281 195.398438 21.273438 C 195.964844 21.179688 199.347656 21.132812 200.570312 21.132812 M 215.519531 51.738281 C 214.109375 51.878906 212.699219 50.796875 211.855469 49.808594 C 209.460938 47.050781 205.136719 39.75 203.453125 36.089844 C 203.652344 36.027344 203.847656 35.964844 204.039062 35.894531 C 203.84375 35.953125 203.644531 36.011719 203.441406 36.0625 C 203.410156 35.988281 203.375 35.917969 203.34375 35.847656 C 207.527344 35 210.535156 32.414062 210.535156 27.761719 C 210.535156 22.589844 206.917969 20.144531 201.792969 20.144531 C 199.867188 20.144531 195.070312 20.519531 192.25 20.519531 C 191.167969 20.519531 190.039062 20.472656 188.722656 20.378906 C 188.394531 20.378906 188.160156 20.566406 188.160156 20.707031 C 188.160156 20.992188 188.300781 21.132812 188.722656 21.132812 C 191.027344 21.132812 190.980469 21.414062 191.074219 22.402344 C 191.636719 25.785156 191.824219 39.511719 191.730469 49.761719 C 191.730469 50.566406 191.6875 51.128906 190.921875 51.402344 C 191.167969 51.097656 191.191406 50.664062 191.191406 50.125 C 191.285156 39.875 191.09375 26.148438 190.53125 22.761719 C 190.4375 21.777344 190.484375 21.492188 188.179688 21.492188 C 187.757812 21.492188 187.617188 21.351562 187.617188 21.070312 C 187.617188 21.023438 187.644531 20.972656 187.691406 20.925781 C 187.671875 20.925781 187.65625 20.921875 187.636719 20.921875 C 187.308594 20.921875 187.074219 21.109375 187.074219 21.25 C 187.074219 21.535156 187.214844 21.675781 187.636719 21.675781 C 189.941406 21.675781 189.894531 21.957031 189.988281 22.945312 C 190.550781 26.328125 190.742188 40.054688 190.648438 50.304688 C 190.648438 50.8125 190.628906 51.222656 190.421875 51.527344 C 190.128906 51.574219 189.773438 51.597656 189.335938 51.597656 C 189.003906 51.597656 188.863281 51.785156 188.863281 51.878906 C 188.863281 51.925781 188.957031 52.066406 189.335938 52.066406 C 190.839844 52.066406 191.964844 51.972656 193.09375 51.972656 C 194.367188 51.972656 196.011719 52.019531 197.5625 52.113281 C 197.890625 52.113281 198.078125 51.925781 198.078125 51.878906 C 198.078125 51.785156 197.84375 51.691406 197.515625 51.644531 C 195.492188 51.5 195.023438 51.265625 195.023438 49.386719 L 195.203125 37.027344 L 198.828125 36.953125 C 200.894531 41.796875 204.421875 47.671875 207.429688 51.339844 C 208.417969 52.5625 210.625 52.984375 212.085938 52.984375 C 212.929688 52.984375 213.730469 52.796875 214.480469 52.609375 C 214.617188 52.570312 214.703125 52.53125 214.757812 52.492188 C 214.085938 52.65625 213.375 52.804688 212.628906 52.804688 C 211.167969 52.804688 208.960938 52.378906 207.972656 51.160156 C 204.964844 47.492188 201.4375 41.613281 199.371094 36.773438 L 195.207031 36.855469 L 195.210938 36.503906 L 199.914062 36.410156 C 201.980469 41.253906 205.507812 47.128906 208.515625 50.796875 C 209.503906 52.019531 211.710938 52.441406 213.167969 52.441406 C 214.015625 52.441406 214.816406 52.253906 215.566406 52.066406 C 215.898438 51.972656 215.945312 51.878906 215.945312 51.785156 C 215.898438 51.691406 215.707031 51.738281 215.519531 51.738281 "/>
</g>
<path style=" stroke:none;fill-rule:nonzero;fill:currentColor;fill-opacity:1;" d="M 68.25 2.949219 C 67.332031 1.464844 65.769531 0.605469 64.089844 0.605469 C 60.90625 0.605469 57.917969 3.261719 57.917969 7.578125 C 57.917969 11.640625 60.613281 14.683594 63.5625 14.683594 C 64.988281 14.683594 66.609375 13.902344 67.664062 12.867188 C 67.859375 12.671875 68.074219 12.574219 68.132812 12.632812 C 68.191406 12.695312 68.113281 12.828125 67.859375 13.0625 C 67.605469 13.296875 65.691406 15.113281 62.703125 15.113281 C 58.835938 15.113281 56.472656 12.441406 56.472656 8.730469 C 56.472656 3.730469 60.320312 0 64.695312 0 C 66.902344 0 68.621094 0.898438 69.382812 1.855469 C 69.539062 2.089844 69.480469 2.34375 69.011719 2.753906 C 68.445312 3.222656 68.40625 3.164062 68.25 2.949219 "/>
<path style=" stroke:none;fill-rule:nonzero;fill:currentColor;fill-opacity:1;" d="M 74.574219 11.382812 C 74.183594 12.554688 73.832031 13.042969 73.050781 13.90625 C 72.445312 14.566406 71.585938 15.015625 71.429688 15.015625 C 70.707031 15.015625 69.769531 13.980469 70.003906 12.671875 C 70.277344 11.1875 70.355469 10.253906 70.746094 7.949219 C 70.804688 7.675781 70.6875 7.617188 70.21875 7.617188 C 70.0625 7.617188 70.0625 7.515625 70.121094 7.421875 C 70.296875 7.324219 70.863281 7.128906 71.351562 6.992188 C 71.566406 6.933594 72.367188 6.699219 72.40625 6.835938 C 72.464844 7.011719 72.308594 7.515625 72.171875 7.949219 C 71.9375 8.710938 71.507812 10.195312 71.332031 11.1875 C 70.960938 13.335938 71.332031 13.785156 71.839844 13.980469 C 72.347656 13.863281 72.816406 13.726562 73.460938 12.988281 C 74.417969 11.890625 74.808594 9.863281 74.867188 9.609375 C 75.042969 8.632812 75.160156 8.027344 75.292969 7.089844 C 75.316406 6.972656 75.375 6.851562 75.507812 6.851562 C 75.625 6.851562 75.839844 6.851562 76.117188 6.835938 C 76.390625 6.816406 76.527344 6.71875 76.660156 6.71875 C 76.875 6.71875 76.796875 6.914062 76.757812 7.03125 C 76.234375 8.882812 75.707031 11.503906 75.21875 13.628906 C 75.101562 14.15625 75.199219 14.46875 75.878906 14.351562 C 76.039062 14.3125 76.09375 14.332031 76.117188 14.390625 C 76.132812 14.429688 76.058594 14.46875 75.921875 14.507812 C 75.492188 14.664062 74.652344 14.917969 74.222656 14.917969 C 74.007812 14.917969 74.007812 14.117188 74.105469 13.652344 C 74.28125 12.808594 74.242188 12.964844 74.574219 11.382812 "/>
<path style=" stroke:none;fill-rule:nonzero;fill:currentColor;fill-opacity:1;" d="M 79.335938 13.570312 C 79.707031 13.828125 80.332031 13.980469 81.109375 13.980469 C 82.085938 13.980469 82.808594 13.589844 83.21875 13.101562 C 83.609375 12.632812 84 11.679688 84 10.390625 C 84 9.101562 83.726562 7.96875 82.59375 7.65625 C 81.367188 8.125 80.371094 9.433594 79.667969 11.851562 C 79.46875 12.5 79.335938 13.570312 79.335938 13.570312 M 78.535156 18.023438 C 78.925781 18.21875 79.351562 18.316406 79.683594 18.296875 C 79.804688 18.277344 79.921875 18.296875 79.898438 18.355469 C 79.898438 18.375 79.882812 18.433594 79.667969 18.433594 C 79.003906 18.433594 78.574219 18.472656 77.871094 18.570312 C 77.34375 18.648438 76.796875 18.765625 76.425781 18.824219 C 76.269531 18.84375 76.230469 18.804688 76.230469 18.765625 C 76.210938 18.726562 76.308594 18.6875 76.445312 18.667969 C 76.875 18.589844 77.34375 18.277344 77.5 17.535156 C 77.929688 15.445312 78.925781 9.882812 79.160156 7.949219 C 79.21875 7.636719 78.90625 7.519531 78.476562 7.519531 C 78.339844 7.519531 78.417969 7.050781 78.59375 7.050781 C 79.101562 7.050781 79.980469 6.855469 80.503906 6.601562 C 80.5625 6.5625 80.625 6.582031 80.625 6.738281 C 80.601562 6.953125 79.980469 9.707031 79.765625 10.878906 C 80.683594 8.105469 82.183594 6.992188 83.085938 6.5625 C 84.273438 6.445312 84.996094 7.929688 84.996094 9.375 C 84.996094 10.78125 84.253906 12.378906 83.375 13.238281 C 82.246094 14.351562 81.480469 14.46875 79.121094 14.605469 "/>
<path style=" stroke:none;fill-rule:nonzero;fill:currentColor;fill-opacity:1;" d="M 90.992188 8.535156 C 90.796875 7.886719 90.015625 7.34375 89.214844 7.34375 C 88.765625 7.34375 88.335938 7.460938 87.886719 7.8125 C 87.320312 8.261719 87.046875 8.882812 86.929688 10.859375 C 88.121094 10.527344 90.367188 9.0625 90.992188 8.535156 M 86.929688 11.089844 C 86.929688 11.835938 86.988281 12.417969 87.320312 13.003906 C 87.671875 13.628906 88.121094 14.097656 88.902344 14.15625 C 89.722656 14.078125 90.796875 13.296875 91.285156 12.632812 C 91.402344 12.480469 91.480469 12.402344 91.558594 12.457031 C 91.636719 12.519531 91.578125 12.65625 91.5 12.769531 C 90.933594 13.707031 88.921875 15.035156 88.101562 15.035156 C 86.949219 15.035156 85.757812 13.824219 85.757812 11.894531 C 85.757812 10 86.675781 8.496094 87.632812 7.65625 C 88.53125 6.855469 89.429688 6.484375 90.230469 6.484375 C 91.128906 6.484375 91.910156 7.363281 92.046875 8.066406 C 91.460938 8.769531 88.785156 10.566406 86.929688 11.089844 "/>
<path style=" stroke:none;fill-rule:nonzero;fill:currentColor;fill-opacity:1;" d="M 94.292969 12.769531 C 94.214844 13.140625 94.136719 13.710938 94 14.488281 C 93.941406 14.859375 93.863281 14.78125 93.394531 14.78125 C 93.238281 14.78125 93.003906 14.800781 92.925781 14.800781 C 92.574219 14.800781 92.847656 14.605469 92.886719 14.429688 C 93.316406 12.515625 93.707031 9.628906 93.882812 8.222656 C 93.921875 7.910156 93.746094 7.597656 93.316406 7.597656 C 93.253906 7.597656 93.355469 7.207031 93.414062 7.207031 C 93.902344 7.207031 94.800781 6.855469 95.34375 6.601562 C 95.382812 6.5625 95.425781 6.582031 95.445312 6.738281 C 95.484375 7.226562 94.859375 9.726562 94.507812 11.226562 C 95.308594 8.710938 97.082031 6.5625 97.667969 6.5625 C 98.742188 6.5625 99.445312 6.953125 99.09375 8.28125 C 98.78125 8.59375 98.492188 8.730469 97.960938 8.867188 C 97.941406 8.28125 97.921875 7.949219 97.84375 7.617188 C 97.375 7.617188 96.402344 8.066406 95.660156 9.199219 C 95.09375 10.058594 94.390625 12.304688 94.292969 12.769531 "/>
<path style=" stroke:none;fill-rule:nonzero;fill:currentColor;fill-opacity:1;" d="M 100.734375 7.597656 C 100.441406 7.597656 100.148438 7.617188 99.835938 7.617188 C 99.679688 7.617188 99.738281 7.324219 99.894531 7.324219 C 100.109375 7.324219 100.5 7.265625 100.792969 7.226562 C 100.988281 6.289062 100.949219 6.035156 100.988281 5.722656 C 100.988281 5.683594 101.925781 5.195312 102.394531 4.980469 C 102.472656 4.941406 102.589844 4.921875 102.644531 4.980469 C 102.6875 5.019531 102.707031 5.097656 102.6875 5.195312 C 102.550781 5.664062 102.355469 6.484375 102.234375 7.011719 C 103.191406 6.875 103.996094 6.835938 103.898438 7.304688 C 103.898438 7.398438 103.855469 7.480469 103.855469 7.480469 C 103.332031 7.480469 102.726562 7.519531 102.121094 7.558594 C 101.574219 9.898438 101.300781 11.015625 100.832031 13.394531 C 100.753906 13.726562 100.773438 13.980469 100.773438 14.175781 C 101.4375 14.175781 101.945312 13.609375 102.234375 13.457031 C 102.472656 13.316406 102.511719 13.589844 102.257812 13.804688 C 101.828125 14.199219 101.242188 14.707031 100.460938 14.9375 C 99.914062 14.9375 99.523438 14.527344 99.757812 13.394531 C 100.207031 11.015625 100.441406 9.453125 100.734375 7.597656 "/>
<path style=" stroke:none;fill-rule:nonzero;fill:currentColor;fill-opacity:1;" d="M 104.519531 13.652344 C 104.890625 11.855469 105.199219 9.804688 105.4375 8.105469 C 105.492188 7.695312 105.160156 7.558594 104.734375 7.5 C 104.558594 7.480469 104.675781 7.109375 104.851562 7.089844 C 105.238281 7.03125 106.433594 6.835938 107.019531 6.660156 C 107.074219 6.640625 107.132812 6.757812 107.132812 6.796875 C 106.902344 7.773438 106.703125 8.457031 106.488281 9.53125 C 106.140625 11.152344 105.941406 12.128906 105.6875 13.652344 C 105.613281 14.136719 105.613281 14.429688 106.292969 14.316406 C 106.453125 14.277344 106.6875 14.0625 106.6875 14.316406 C 106.6875 14.394531 106.488281 14.449219 106.316406 14.507812 C 105.902344 14.625 105.75 14.667969 105.238281 14.761719 C 104.851562 14.839844 104.558594 14.902344 104.34375 14.902344 C 104.128906 14.902344 104.382812 14.277344 104.519531 13.652344 M 106.804688 3.398438 C 107.195312 3.398438 107.582031 4.023438 107.738281 4.335938 C 107.777344 4.648438 107.019531 5.078125 106.765625 5.273438 C 106.453125 5.273438 106.101562 4.648438 105.847656 4.335938 C 105.867188 3.867188 106.433594 3.632812 106.804688 3.398438 "/>
<path style=" stroke:none;fill-rule:nonzero;fill:currentColor;fill-opacity:1;" d="M 109.515625 8.222656 C 109.535156 7.910156 109.417969 7.597656 109.007812 7.597656 C 108.949219 7.597656 109.046875 7.207031 109.105469 7.207031 C 109.59375 7.207031 110.492188 6.855469 111.039062 6.601562 C 111.078125 6.5625 111.136719 6.582031 111.136719 6.738281 C 111.117188 6.953125 110.746094 8.691406 110.199219 11.367188 C 110.453125 10.683594 111.058594 9.296875 111.371094 8.75 C 112.171875 7.363281 113.265625 6.640625 113.832031 6.542969 C 114.238281 6.582031 115.253906 6.953125 115.253906 8.007812 C 115.253906 8.554688 115 9.941406 114.824219 10.859375 C 114.628906 11.875 114.4375 12.886719 114.320312 13.652344 C 114.238281 14.179688 114.398438 14.53125 114.789062 14.449219 C 114.90625 14.429688 114.984375 14.414062 115 14.46875 C 115.023438 14.507812 114.960938 14.546875 114.789062 14.609375 C 114.417969 14.722656 113.734375 14.839844 113.300781 14.839844 C 113.167969 14.839844 113.109375 14.761719 113.109375 14.351562 C 113.109375 13.90625 113.402344 12.339844 113.519531 11.757812 C 113.75 10.585938 113.949219 8.59375 113.949219 8.203125 C 113.949219 7.597656 113.773438 7.519531 113.65625 7.519531 C 112.992188 7.519531 112.113281 8.261719 111.566406 9.082031 C 110.863281 10.136719 110.21875 11.5625 109.945312 12.773438 C 109.867188 13.140625 109.75 13.710938 109.613281 14.492188 C 109.554688 14.863281 109.4375 14.78125 108.96875 14.78125 C 108.8125 14.78125 108.695312 14.800781 108.617188 14.800781 C 108.265625 14.800781 108.519531 14.609375 108.558594 14.429688 C 108.988281 12.300781 109.242188 10.15625 109.515625 8.222656 "/>
<path style=" stroke:none;fill-rule:nonzero;fill:currentColor;fill-opacity:1;" d="M 117.398438 10.644531 C 117.398438 12.890625 118.726562 14.058594 120.074219 14.058594 C 121.285156 14.058594 122.515625 13.203125 122.515625 10.878906 C 122.515625 8.632812 121.207031 7.460938 119.839844 7.460938 C 118.628906 7.460938 117.398438 8.320312 117.398438 10.644531 M 120.640625 6.484375 C 121.695312 6.484375 123.570312 7.109375 123.570312 10.3125 C 123.570312 12.617188 120.679688 15.039062 119.273438 15.039062 C 118.296875 15.039062 116.34375 14.332031 116.34375 11.210938 C 116.34375 8.90625 119.234375 6.484375 120.640625 6.484375 "/>
<path style=" stroke:none;fill-rule:nonzero;fill:currentColor;fill-opacity:1;" d="M 44.515625 10.480469 C 44.445312 9.828125 44.007812 9.285156 43.574219 8.816406 C 43.613281 8.128906 43.539062 7.476562 43.105469 6.933594 C 42.890625 6.828125 42.601562 6.683594 42.382812 6.753906 C 42.707031 7.476562 42.417969 8.308594 42.273438 8.996094 C 40.9375 8.347656 39.308594 8.09375 37.824219 7.621094 C 37.898438 5.128906 36.703125 2.921875 34.898438 1.367188 C 39.742188 0.789062 44.480469 1.582031 48.203125 3.96875 L 50.085938 5.164062 C 49.578125 7.875 49.074219 10.734375 49.363281 13.695312 C 47.914062 12.433594 46.179688 11.273438 44.515625 10.480469 M 23.542969 35.722656 C 21.988281 36.046875 20.578125 36.949219 19.636719 38.144531 L 19.164062 37.203125 C 21.046875 34.09375 25.242188 35.035156 27.628906 32.609375 C 29.074219 31.851562 27.339844 30.65625 27.195312 29.679688 L 25.601562 26.425781 L 26.46875 26.753906 L 29.253906 32.429688 C 28.027344 34.417969 25.640625 35.070312 23.542969 35.722656 M 18.480469 36.878906 L 18.007812 35.972656 C 19.417969 33.875 21.734375 33.152344 24.046875 32.683594 C 24.988281 32.359375 26.035156 32.175781 26.578125 31.273438 L 23.976562 26.027344 L 24.625 26.175781 C 25.601562 27.910156 26.46875 29.828125 27.410156 31.597656 C 25.242188 34.601562 20.648438 33.875 18.480469 36.878906 M 17.359375 35.902344 L 15.296875 32.175781 C 15.441406 31.996094 15.730469 32.066406 15.800781 32.25 C 15.984375 32.683594 16.238281 33.117188 16.671875 33.441406 L 17.105469 33.441406 C 16.488281 32.03125 16.488281 30.078125 16.816406 28.523438 C 17.066406 28.597656 17.320312 28.777344 17.539062 28.921875 C 17.574219 28.125 17.792969 27.402344 18.296875 26.859375 C 18.585938 27.007812 18.984375 26.898438 19.3125 26.753906 C 19.5625 26.5 19.671875 26.175781 19.78125 25.8125 C 20.433594 25.992188 21.082031 26.246094 21.804688 26.246094 L 23.035156 26.027344 L 25.640625 31.238281 C 23.792969 32.828125 20.9375 32.285156 19.019531 33.839844 C 18.191406 34.347656 17.792969 35.140625 17.359375 35.902344 M 14.574219 27.078125 C 14.429688 27.835938 14.175781 28.5625 13.632812 29.140625 C 12.800781 27.765625 11.933594 26.28125 11.28125 24.765625 C 12.113281 22.125 15.007812 21.292969 17.320312 20.425781 C 18.152344 19.992188 18.875 19.449219 19.382812 18.726562 L 19.960938 19.882812 C 18.441406 21.183594 15.949219 21.328125 15.117188 23.390625 C 15.007812 24.621094 14.71875 25.777344 13.742188 26.570312 Z M 20.613281 18.722656 L 20.828125 18.542969 C 20.9375 18.652344 21.082031 18.832031 21.082031 19.050781 L 20.613281 19.375 C 20.613281 19.15625 20.105469 18.796875 20.613281 18.722656 M 50.917969 5.019531 C 49.363281 3.898438 47.808594 2.957031 46.105469 2.125 C 42.203125 0.460938 37.210938 -0.332031 32.945312 1.078125 C 33.992188 1.296875 34.75 2.089844 35.546875 2.777344 C 36.851562 4.261719 37.140625 6.210938 37.355469 8.164062 C 38.945312 8.597656 40.683594 9.140625 42.238281 9.902344 C 42.203125 10.625 42.09375 11.457031 42.5625 12.035156 C 42.707031 12.757812 42.527344 13.554688 42.382812 14.277344 C 42.164062 14.277344 41.910156 14.132812 41.730469 14.023438 C 42.058594 16.195312 41.550781 18.363281 40.03125 19.738281 L 39.996094 20.496094 C 39.667969 20.605469 39.453125 20.28125 39.128906 20.351562 C 38.585938 20.351562 38.695312 21.039062 38.40625 21.363281 C 37.101562 21.835938 35.402344 21.871094 33.992188 21.507812 C 33.484375 21.21875 32.691406 21.183594 32.507812 20.53125 C 32.402344 19.085938 33.777344 20.53125 34.390625 19.882812 L 35.367188 17.53125 C 35.800781 17.496094 36.269531 17.421875 36.632812 17.167969 C 35.980469 16.554688 35.945312 15.578125 36.054688 14.675781 C 36.632812 14.78125 37.210938 14.78125 37.824219 14.675781 L 37.789062 14.207031 L 36.886719 14.058594 C 36.5625 13.878906 36.34375 13.589844 36.234375 13.300781 C 36.488281 13.226562 36.632812 12.976562 36.777344 12.757812 C 36.851562 12.394531 36.992188 11.78125 36.523438 11.601562 C 34.96875 11.203125 33.8125 10.226562 32.546875 9.179688 C 32.183594 8.886719 31.824219 8.597656 31.316406 8.707031 C 31.027344 8.816406 30.738281 8.925781 30.628906 9.285156 C 30.304688 9.683594 29.761719 9.359375 29.292969 9.46875 C 28.894531 9.613281 28.75 10.046875 28.605469 10.40625 C 28.53125 11.058594 28.421875 11.890625 28.894531 12.359375 C 28.570312 13.300781 27.988281 14.167969 27.300781 14.820312 C 27.445312 14.964844 27.628906 15.070312 27.84375 15.144531 C 27.699219 15.324219 27.484375 15.324219 27.375 15.507812 C 27.628906 15.722656 28.097656 15.6875 28.421875 15.722656 C 28.207031 16.050781 27.988281 16.265625 27.628906 16.375 C 27.917969 16.988281 28.496094 17.496094 28.964844 17.929688 L 28.964844 18.183594 C 28.894531 18.507812 28.605469 18.6875 28.242188 18.726562 C 27.589844 18.652344 27.121094 18.21875 26.757812 17.710938 C 25.167969 18.183594 23.214844 17.964844 21.734375 18.6875 L 21.011719 17.3125 C 20.757812 17.640625 20.433594 18.074219 20.070312 18.292969 C 19.890625 18.074219 19.816406 17.785156 19.671875 17.566406 C 18.550781 19.121094 16.671875 20.246094 14.71875 20.75 C 12.65625 21.328125 11.175781 22.957031 10.449219 24.90625 L 13.019531 29.609375 C 11.96875 31.128906 13.234375 32.683594 13.851562 33.949219 C 13.742188 34.890625 13.488281 35.792969 13.453125 36.769531 C 13.273438 38.503906 13.667969 40.386719 13.234375 42.011719 C 13.054688 41.761719 12.800781 41.652344 12.511719 41.578125 C 12.152344 41.578125 11.863281 41.761719 11.714844 42.085938 C 11.570312 43.316406 12.875 44.253906 12.332031 45.449219 C 12.003906 44.472656 11.644531 43.496094 11.101562 42.664062 C 9.257812 42.300781 7.339844 42.628906 5.53125 42.734375 C 3.617188 42.988281 2.496094 41.398438 0.722656 41.472656 C 0.613281 42.445312 0.398438 43.425781 0.363281 44.363281 C 0.652344 44.363281 0.722656 44.617188 0.941406 44.796875 C 1.121094 45.449219 0.867188 46.171875 0.398438 46.605469 C -0.179688 47.871094 0.0742188 49.28125 0 50.765625 C 0.433594 50.765625 0.867188 50.726562 1.265625 50.65625 C 1.773438 50.4375 1.664062 49.789062 1.734375 49.316406 C 1.953125 47.726562 3.832031 47.257812 4.050781 45.628906 C 8.605469 46.714844 12.765625 48.921875 17.863281 48.378906 C 18.335938 46.097656 18.769531 43.820312 19.601562 41.652344 L 19.671875 41.542969 C 19.890625 41.796875 19.925781 42.121094 20.070312 42.339844 C 20.648438 43.605469 21.84375 44.617188 21.84375 46.0625 C 21.914062 46.53125 21.515625 46.785156 21.15625 47.003906 L 21.804688 48.015625 C 21.988281 48.523438 21.769531 48.992188 21.515625 49.355469 C 21.046875 51.089844 23.179688 51.414062 24.046875 52.246094 C 23.324219 52.066406 22.636719 51.847656 21.914062 51.597656 C 21.589844 52.464844 21.371094 53.441406 21.265625 54.417969 C 21.046875 55.972656 21.625 57.816406 20.757812 59.117188 C 20.070312 59.878906 19.273438 60.816406 19.601562 62.011719 L 21.734375 63.09375 C 21.988281 62.953125 22.203125 62.664062 22.566406 62.769531 L 23.6875 64 L 28.675781 63.855469 C 28.640625 63.3125 28.460938 62.84375 28.242188 62.445312 C 27.519531 62.410156 26.867188 62.082031 26.363281 61.722656 C 25.675781 61.070312 25.097656 60.273438 24.335938 59.804688 C 24.445312 58.070312 24.953125 56.515625 25.351562 54.886719 C 26.328125 51.777344 26.867188 48.449219 28.894531 45.808594 C 27.773438 43.027344 27.375 39.988281 26.578125 37.09375 L 26.90625 36.769531 C 27.15625 36.371094 27.339844 35.757812 27.121094 35.324219 L 27.589844 35.324219 C 28.710938 35.324219 29.4375 34.308594 29.90625 33.441406 C 30.59375 31.488281 31.640625 29.539062 33.414062 28.378906 C 36.308594 26.859375 39.742188 26.644531 42.492188 24.835938 C 43.574219 23.535156 43.464844 21.691406 44.335938 20.28125 C 44.625 19.554688 45.566406 19.015625 45.566406 18.144531 C 45.566406 17.75 45.3125 17.496094 45.058594 17.167969 C 44.914062 16.484375 45.277344 15.902344 45.492188 15.324219 C 45.277344 15.144531 44.878906 15.144531 44.695312 14.925781 C 44.914062 14.277344 44.984375 13.625 45.058594 12.9375 L 46.035156 12.105469 C 47.769531 12.976562 49.035156 14.421875 50.375 15.867188 C 49.757812 12.359375 49.796875 8.273438 50.917969 5.019531 "/>
<path style=" stroke:none;fill-rule:nonzero;fill:currentColor;fill-opacity:1;" d="M 59.234375 46.847656 C 59.09375 46.707031 58.578125 46.894531 58.105469 47.367188 C 57.660156 47.824219 57.125 48.242188 56.523438 48.613281 C 56.90625 48.335938 57.253906 48.042969 57.5625 47.726562 C 57.726562 47.566406 57.890625 47.441406 58.042969 47.347656 C 57.828125 47.324219 57.410156 47.519531 57.023438 47.90625 C 56.496094 48.445312 55.851562 48.925781 55.117188 49.34375 C 53.191406 50.1875 50.832031 50.65625 48.421875 50.65625 C 39.628906 50.65625 31.875 43.554688 31.875 31.992188 C 31.875 23.386719 37.609375 17.839844 44.566406 17.839844 C 48.09375 17.839844 52.890625 19.15625 56.320312 23.53125 C 56.742188 24.046875 56.886719 24.1875 58.152344 23.058594 C 59.234375 22.074219 59.28125 21.460938 58.765625 20.898438 C 56.554688 18.59375 51.855469 16.429688 46.261719 16.429688 C 42.914062 16.429688 39.851562 17.230469 37.230469 18.660156 C 33.066406 20.570312 29.878906 23.992188 28.261719 28.335938 C 28.328125 28.484375 28.417969 28.695312 28.527344 28.945312 C 29.789062 25.019531 32.289062 21.785156 35.636719 19.644531 C 32.300781 21.964844 29.875 25.410156 28.789062 29.542969 C 29.3125 30.75 29.96875 32.285156 29.945312 32.359375 C 29.910156 32.488281 28.703125 34.167969 28.160156 34.53125 C 28.160156 44.921875 35.492188 52.820312 46.308594 52.820312 C 53.875 52.820312 58.152344 48.445312 58.71875 47.882812 C 59.28125 47.316406 59.375 46.988281 59.234375 46.847656 "/>
<path style=" stroke:none;fill-rule:nonzero;fill:currentColor;fill-opacity:1;" d="M 27.617188 34.890625 C 27.617188 34.851562 27.617188 34.8125 27.617188 34.773438 C 27.449219 34.828125 27.261719 34.882812 27.078125 34.929688 C 27.078125 34.976562 27.074219 35.023438 27.074219 35.074219 C 27.074219 45.460938 34.410156 53.359375 45.222656 53.359375 C 47.578125 53.359375 49.617188 52.9375 51.324219 52.335938 C 49.730469 52.839844 47.875 53.179688 45.765625 53.179688 C 34.949219 53.179688 27.617188 45.28125 27.617188 34.890625 "/>
<path style=" stroke:none;fill-rule:nonzero;fill:currentColor;fill-opacity:1;" d="M 44.023438 18.203125 C 42.546875 18.203125 41.125 18.453125 39.800781 18.929688 C 40.96875 18.570312 42.207031 18.382812 43.480469 18.382812 C 47.007812 18.382812 51.804688 19.699219 55.234375 24.070312 C 55.539062 24.445312 55.699219 24.621094 56.234375 24.273438 C 56.070312 24.242188 55.945312 24.09375 55.777344 23.890625 C 52.34375 19.519531 47.550781 18.203125 44.023438 18.203125 "/>
</g>
</svg>
