<svg xmlns="http://www.w3.org/2000/svg" xmlns:xlink="http://www.w3.org/1999/xlink" viewBox="46.25 24.767 507.5 34.487" width="507.5" height="34.487" color="#000000" role="img" aria-label="Newspaper Town News (placeholder)">
<title>Newspaper Town News (placeholder)</title>
<path transform="translate(46.25 25.513)" d="M 11.729164482276243 0 L 28.062493552728043 20.435232305245012 L 28.062493552728043 6.279792148488052 C 28.062493552728043 4.310880269953766 27.770827237146154 2.963729390349902 27.20832723570323 2.2797915441521406 C 26.416660608397894 1.3471490883762094 25.12499522157335 0.8911908343635243 23.270828653630666 0.9119162223554429 L 23.270828653630666 0.020723886294596386 L 34.20832824707031 0.020723886294596386 L 34.20832824707031 0.9119162223554429 C 32.81249493085245 1.0984447258639234 31.874998188076468 1.326423843219255 31.395831530528675 1.5958538832537918 C 30.91666487298088 1.8652839232883287 30.541662978329764 2.341968020820655 30.27082966499775 2.984455067872153 C 29.999996351665732 3.6269421149236507 29.874999207400872 4.72538801435052 29.874999207400872 6.279792148488052 L 29.874999207400872 33.69947814941406 L 29.041662726129296 33.69947814941406 L 6.645830225276677 6.279792148488052 L 6.645830225276677 27.212435278817647 C 6.645830225276677 29.09844568259235 7.083332461573047 30.383420517892993 7.958332401729424 31.04663293363439 C 8.833332341885802 31.709845349375783 9.83332942630704 32.04145063074942 10.958329429192887 32.04145063074942 L 11.749998291672316 32.04145063074942 L 11.749998291672316 32.93264296681026 L 0 32.93264296681026 L 0 32.04145063074942 C 1.8333332552519677 32.04145063074942 3.083333072193955 31.647666340281962 3.8124996993389644 30.922277756704407 C 4.541666326483973 30.196889173126852 4.895829972434907 28.953367854697188 4.895829972434907 27.212435278817647 L 4.895829972434907 3.9792727649871815 L 4.187496347539769 3.1088082682750646 C 3.4791630330854777 2.238341980335294 2.8749976480245047 1.658029248125831 2.3333310213604697 1.3885992080912941 C 1.7916643946964346 1.1191691680567573 1.0208297762302627 0.9533674731690246 0.020829835753235826 0.932642085177106 L 0.020829835753235826 0.041449749116259496 L 11.77083210106839 0.041449749116259496 L 11.729164482276243 0 Z" fill="currentColor"/>
<path transform="translate(81.646 35.42)" d="M 8.812499312335685 1.3056978232191534 L 8.812499312335685 10.694300862843829 L 9.270835202635643 10.694300862843829 C 10.750001869248262 10.694300862843829 11.812499397925238 10.238342596743879 12.45833275572045 9.326425446879227 C 13.124999427609646 8.414508297014576 13.541667385869994 7.046630533923922 13.729167398980362 5.2642469744279845 L 14.375003612831556 5.2642469744279845 L 14.375003612831556 17.32642720629082 L 13.729167398980362 17.32642720629082 C 13.58333406062409 16.020727653610365 13.312501023968439 14.943004516254978 12.875001024421666 14.093263538506848 C 12.437501024874893 13.243522560758718 11.916668638186614 12.683937660258023 11.354168598855509 12.39378220067534 C 10.770835245430419 12.103626741092656 9.937503737170045 11.958550910620422 8.833337096778163 11.958550910620422 L 8.833337096778163 18.445596204328037 C 8.833337096778163 19.70984501677513 8.895832964523725 20.49741155186804 8.999999635886923 20.766841610450804 C 9.10416630725012 21.056997070033486 9.312501551426829 21.284976666332025 9.604168228139374 21.471505182681586 C 9.895834904851919 21.658033699031147 10.375006685905058 21.74093351180305 11.041673357794254 21.74093351180305 L 12.416673081407918 21.74093351180305 C 14.583339734003715 21.74093351180305 16.312506542273173 21.243525555499815 17.62500657195758 20.24870686340196 C 18.93750660164199 19.253888171304105 19.87500343860881 17.740933126229052 20.437503477939917 15.689119508150352 L 21.062501907348633 15.689119508150352 L 20.0208352092387 23.025909423828125 L 0 23.025909423828125 L 0 22.404145355536865 L 0.7708390786474214 22.404145355536865 C 1.4375057505366167 22.404145355536865 1.9791698991145388 22.27979285688764 2.3958365845673293 22.051813569421476 C 2.6875032612798737 21.886010454071833 2.9166658047587566 21.616581661701808 3.0833324727310556 21.243524629002685 C 3.20833247371028 20.974094570419922 3.270832796282292 20.248704516275904 3.270832796282292 19.108808048061853 L 3.270832796282292 3.9378232869603482 C 3.270832796282292 2.9015537928626562 3.250005500860629 2.2590660684743997 3.187505500371017 2.0103613954499364 C 3.083338829007819 1.6165789926341314 2.8541658003886337 1.3057009887510016 2.5624991236760892 1.0984470868431395 C 2.1249991241293156 0.787566226260537 1.5416689682451625 0.6217601152368529 0.7916689158036877 0.6217601152368529 L 0.020837784442476224 0.6217601152368529 L 0.020837784442476224 0 L 19.416666616986248 0 L 19.416666616986248 6.818651215574523 L 18.770838350421265 6.818651215574523 C 18.437505014476667 5.160620000311626 17.9791675098842 3.958548348244655 17.375000842365125 3.2331597147295654 C 16.77083417484605 2.507771081214476 15.937506143523397 1.9689099757853468 14.833339503131514 1.6373037450860624 C 14.187506145336302 1.4300498431782003 13.000003516688851 1.3264236874676358 11.250003518501757 1.3264236874676358 L 8.854166933934428 1.3264236874676358 L 8.812499312335685 1.3056978232191534 Z" fill="currentColor"/>
<path transform="translate(104.021 35.378)" d="M 34.41666030883789 0.020725863453862684 L 34.41666030883789 0.6424859548527271 C 33.9791603144153 0.6839367321009344 33.62500062240022 0.787563833498039 33.3333339491038 0.9948177274598847 C 33.041667275807384 1.2020716214217304 32.770839659516916 1.512954029688744 32.54167298985859 1.9274618176124354 C 32.479172990101006 2.0725395418415657 32.104164085783204 2.943006890921528 31.458330735552266 4.559587180439186 L 24.187501718384226 23.585494995117188 L 23.52083567518504 23.585494995117188 L 17.77083111848441 8.72539086136349 L 11.437495760806017 23.585494995117188 L 10.812497338717543 23.585494995117188 L 3.187497515751494 4.766841861923559 C 2.4166641582443606 2.8808314006200124 1.8750000470547235 1.7202060243315538 1.5625000288642408 1.3264236366131796 C 1.250000010673758 0.9326412488948056 0.7291666677190112 0.7046655989495332 0 0.6217640444531185 L 0 0 L 10.041666216384632 0 L 10.041666216384632 0.6217640444531185 C 9.22916623117755 0.6424894330772222 8.687502057899739 0.7668384487343399 8.416668729497378 0.9948177274598847 C 8.145835401095017 1.2227970061854294 8.020830302588656 1.4922302354117176 8.020830302588656 1.823836453397376 C 8.020830302588656 2.2590696106431483 8.291666797487828 3.1709860769973637 8.854166830230698 4.559587180439186 L 13.39583421657898 15.751296496998524 L 17.04166761726221 7.005183725235426 L 16.083336173574143 4.559587180439186 C 15.562502830619396 3.212436939174471 15.145832331624154 2.3212432479504823 14.874999003221793 1.88601009070471 C 14.583332329925371 1.4300515332536203 14.270829797163891 1.1191725993506971 13.895829775335311 0.9326440901525507 C 13.520829753506732 0.7461155809544041 12.979165642317096 0.6424859548527271 12.270832288448059 0.6424859548527271 L 12.270832288448059 0.020725863453862684 L 23.499997890986624 0.020725863453862684 L 23.499997890986624 0.6424859548527271 C 22.708331219629518 0.6424859548527271 22.145836278116814 0.7253878259023144 21.812502946076357 0.8290147728832372 C 21.58333627641803 0.9119163273796518 21.37500198152607 1.0362697631999738 21.250001982010897 1.2227982723981203 C 21.104168645362687 1.409326781596267 21.041663876457328 1.6165795637616036 21.041663876457328 1.8652842272508474 C 21.041663876457328 2.1347142755037902 21.291669603121612 2.9222788038746472 21.812502946076357 4.269429045139362 L 26.041667147737346 15.191710042906994 L 29.8124954644666 5.305698499506972 C 30.208328800145154 4.290154414461443 30.458325632678683 3.5854946987684366 30.541658965688796 3.2124376803721435 C 30.62499229869891 2.8393806619758504 30.687507560505473 2.487049074668111 30.687507560505473 2.1761682260045334 C 30.687507560505473 1.7202096685534438 30.520833909565805 1.3471512295282786 30.20833389137532 1.0777211812753356 C 29.895833873184838 0.8082911330223925 29.270831663717825 0.6632113434768308 28.3749982989345 0.6424859548527271 L 28.3749982989345 0.020725863453862684 L 34.395838419211714 0.020725863453862684 L 34.41666030883789 0.020725863453862684 Z" fill="currentColor"/>
<path transform="translate(139.583 34.86)" d="M 14.645830217182452 0.020725862814839045 L 14.833338475023584 7.709847032738311 L 14.124996904226768 7.709847032738311 C 13.79166359138571 5.782385892218441 12.979167440355484 4.227978299670336 11.687500814291278 3.0673565416218 C 10.395834188227072 1.8860094148901914 8.999996528564616 1.3057016859559347 7.499996527647601 1.3057016859559347 C 6.333329901659813 1.3057016859559347 5.416663896706552 1.6165801161420148 4.749997271024436 2.238341794298899 C 4.062497270604138 2.8601034724557826 3.729168428111263 3.5647681077402567 3.729168428111263 4.373058227577735 C 3.729168428111263 4.891192938786315 3.8541646097652738 5.326425773780544 4.083331266224012 5.740933548924055 C 4.4166645790650705 6.279793628815707 4.937502362368939 6.797928834156052 5.666668988089264 7.316063545364632 C 6.208335613694962 7.689120552258762 7.437499694106021 8.352331053021198 9.37499963320233 9.305698938939596 C 12.083332761230821 10.632123769985654 13.916660424965498 11.875649967557079 14.854160363450463 13.056997094288688 C 15.791660301935428 14.238344221020297 16.2500057220459 15.585492073623534 16.2500057220459 17.098445469883128 C 16.2500057220459 19.025906610403 15.499997525949055 20.68393684624645 13.979164212382027 22.07253790687467 C 12.458330898815 23.461138967502887 10.541659926196859 24.145076751708988 8.229159986871297 24.145076751708988 C 7.499993361150971 24.145076751708988 6.812497831078855 24.062177886610087 6.166664518046752 23.91710016685402 C 5.520831205014649 23.772022447097953 4.708335053984424 23.481863842054192 3.729168428111263 23.08808146647699 C 3.187501802505565 22.860102194780545 2.729165292047374 22.756475567547827 2.374998635512218 22.756475567547827 C 2.083331979015271 22.756475567547827 1.7708383428615706 22.860102194780545 1.4375050300205126 23.08808146647699 C 1.1041717171794545 23.316060738173434 0.8333396616620318 23.668392345501257 0.6250063333753493 24.12435088889415 L 0 24.12435088889415 L 0 15.419690112422488 L 0.6250063333753493 15.419690112422488 C 1.1250063026369364 17.865285840617997 2.0833383430526156 19.730568527962756 3.5208382818432526 21.01554262164267 C 4.958338220633889 22.300516715322583 6.5000073303777 22.943004379827247 8.145840644021147 22.943004379827247 C 9.41667395743534 22.943004379827247 10.43750528387528 22.59067280338266 11.187505284333788 21.906734957410087 C 11.937505284792296 21.222797111437515 12.333329036093504 20.414506806300626 12.333329036093504 19.48186435083177 C 12.333329036093504 18.94300427094012 12.187497617056234 18.404143666033463 11.895830960559287 17.90673435439119 C 11.60416430406234 17.409325042748918 11.166665576602346 16.91191807823254 10.562498950958439 16.455959534839646 C 9.979165637964545 16.000000991446754 8.916661291143148 15.398963014278234 7.416661290226133 14.652849000489972 C 5.31249472575338 13.616579578072812 3.791660791304659 12.746116255210245 2.874994165469707 12.020727671871528 C 1.9583275396347548 11.295339088532812 1.250001211483479 10.48704878339592 0.7500012422218919 9.59585706529321 C 0.2500012729603047 8.704665347190499 0 7.7098460444747765 0 6.632125884691472 C 0 4.787566342436834 0.6875070163834196 3.23316171467933 2.0416735803976653 1.9481876209994167 C 3.395840144411911 0.6632135273195037 5.10417153336032 0 7.166671472533047 0 C 7.916671472991555 0 8.645828537133822 0.08290376009171024 9.354161850204134 0.2694322635387754 C 9.895828475809832 0.41450998329484245 10.541666880071812 0.663212415523029 11.312500193180332 1.0362694224171594 C 12.083333506288852 1.4093264293112897 12.624993146975514 1.595855859255417 12.916659803472461 1.595855859255417 C 13.208326459969408 1.595855859255417 13.437501374154651 1.5129520991637069 13.625001374269278 1.3264235957166417 C 13.812501374383904 1.1398950922695765 13.958325792980098 0.7046637087874114 14.104159121228571 0.020725862814839045 L 14.624992434184255 0.020725862814839045 L 14.645830217182452 0.020725862814839045 Z" fill="currentColor"/>
<path transform="translate(157.479 35.42)" d="M 8.562501271565756 12.601036890105759 L 8.562501271565756 18.984456815625364 C 8.562501271565756 20.227980257955775 8.645835875843963 21.015543766491405 8.791669209798178 21.34714999719069 C 8.937502543752393 21.678756227889977 9.22916792333126 21.92746264581736 9.604167938232422 22.113991162166922 C 10.000001266598701 22.300519678516483 10.708336532115938 22.404145355536865 11.770836512247723 22.404145355536865 L 11.770836512247723 23.025909423828125 L 0 23.025909423828125 L 0 22.404145355536865 C 1.0624999801317851 22.404145355536865 1.7916730294624967 22.300519678516483 2.1875063578287763 22.113991162166922 C 2.5625063727299375 21.90673726025906 2.8333384233216448 21.658030857773294 3.000005086263021 21.34714999719069 C 3.145838420217236 21.036269136608087 3.229173024495443 20.248706122204258 3.229173024495443 19.005182679873847 L 3.229173024495443 4.041452608202761 C 3.229173024495443 2.7979291658723504 3.145838420217236 2.010361704282312 3.000005086263021 1.6787554735830275 C 2.854171752308806 1.347149242883743 2.583339686195056 1.098446778010764 2.1875063578287763 0.9119182616612025 C 1.7916730294624967 0.7253897453116409 1.0833377639452617 0.6217601152368529 0.020837783813476562 0.6217601152368529 L 0.020837783813476562 0 L 10.125001271565756 0 C 13.458334654569626 0 15.833339715997381 0.5803117221295426 17.291673024495445 1.7616589305769574 C 18.729173019528393 2.943006139024372 19.458341598510742 4.4145070467099305 19.458341598510742 6.1761652360891865 C 19.458341598510742 7.668393366885679 19.000012055039406 8.953368290647154 18.062512079874676 10.010363154861528 C 17.125012104709946 11.067358019075902 15.833348532517752 11.792745108429115 14.208348592122396 12.18652751124492 C 13.104181985060375 12.455957569827683 11.229176819324493 12.601036890105759 8.604176839192709 12.601036890105759 L 8.562501271565756 12.601036890105759 Z M 8.562501271565756 1.3056978232191534 L 8.562501271565756 11.274613202638122 C 8.937501286466917 11.295338592056828 9.229175560176373 11.316060978080682 9.416675567626953 11.316060978080682 C 10.812508935729662 11.316060978080682 11.875010778506597 10.901552834549344 12.62501080830892 10.093262658801052 C 13.375010838111242 9.28497248305276 13.750012715657553 8.000001882944542 13.750012715657553 6.279794557331599 C 13.750012715657553 4.559587231718657 13.375010838111242 3.3160609481303926 12.62501080830892 2.5284961424987826 C 11.875010778506597 1.7409313368671726 10.750005145867666 1.3471495517161185 9.250005086263021 1.3471495517161185 L 8.541679382324219 1.3471495517161185 L 8.562501271565756 1.3056978232191534 Z" fill="currentColor"/>
<path transform="translate(174.979 34.902)" d="M 14.291667938232424 16.9948201413347 L 6.104167302449545 16.9948201413347 L 5.124998092651367 19.23316193991035 C 4.812498080233733 19.979275955124194 4.645840326944987 20.60103630648994 4.645840326944987 21.07772025035993 C 4.645840326944987 21.720207298427475 4.916667938232423 22.1968923232107 5.437501271565756 22.507773162883137 C 5.75000128398339 22.6943016666866 6.500009571512541 22.818651616825633 7.708342870076498 22.92227856080951 L 7.708342870076498 23.544042587280273 L 0 23.544042587280273 L 0 22.92227856080951 C 0.8333333457509677 22.797926232661343 1.5208403269449868 22.445594647822755 2.0416736602783203 21.886009136412373 C 2.583340307076772 21.32642362500199 3.2291673123836517 20.16580130883764 4.020833969116211 18.40414323794933 L 12.312507629394531 0 L 12.645832697550457 0 L 21.000003814697266 18.901552087293457 C 21.791670471429825 20.68393552690444 22.458342245469492 21.823834080274363 22.95834223429362 22.279792624538445 C 23.3541755626599 22.63212423253946 23.895844134191673 22.839376059051244 24.604177474975586 22.88082683510063 L 24.604177474975586 23.502590861571395 L 13.395833969116213 23.502590861571395 L 13.395833969116213 22.88082683510063 L 13.854169845581056 22.88082683510063 C 14.750003193815552 22.88082683510063 15.395844137916963 22.756477819179466 15.75001080830892 22.507773162883137 C 16.000010802720986 22.321244659079674 16.125011444091797 22.072537794632012 16.125011444091797 21.720206186630996 C 16.125011444091797 21.512952298663244 16.08333841819937 21.30570000118212 16.020838419596355 21.09844611321437 C 16.000005086728684 20.994819169230492 15.833338412145775 20.580309671554616 15.500005086263021 19.8134702876181 L 14.270830154418947 16.932642552771384 L 14.291667938232424 16.9948201413347 Z M 13.7083371480306 15.730570178592869 L 10.250012079874676 7.792746545832966 L 6.687498092651368 15.730570178592869 L 13.687499364217123 15.730570178592869 L 13.7083371480306 15.730570178592869 Z" fill="currentColor"/>
<path transform="translate(201.479 35.42)" d="M 8.562501271565756 12.601036890105759 L 8.562501271565756 18.984456815625364 C 8.562501271565756 20.227980257955775 8.645835875843963 21.015543766491405 8.791669209798178 21.34714999719069 C 8.937502543752393 21.678756227889977 9.22916792333126 21.92746264581736 9.604167938232422 22.113991162166922 C 10.000001266598701 22.300519678516483 10.708336532115938 22.404145355536865 11.770836512247723 22.404145355536865 L 11.770836512247723 23.025909423828125 L 0 23.025909423828125 L 0 22.404145355536865 C 1.0624999801317851 22.404145355536865 1.7916730294624967 22.300519678516483 2.1875063578287763 22.113991162166922 C 2.5625063727299375 21.90673726025906 2.8333384233216448 21.658030857773294 3.000005086263021 21.34714999719069 C 3.145838420217236 21.036269136608087 3.229173024495443 20.248706122204258 3.229173024495443 19.005182679873847 L 3.229173024495443 4.041452608202761 C 3.229173024495443 2.7979291658723504 3.145838420217236 2.010361704282312 3.000005086263021 1.6787554735830275 C 2.854171752308806 1.347149242883743 2.583339686195056 1.098446778010764 2.1875063578287763 0.9119182616612025 C 1.7916730294624967 0.7253897453116409 1.0833377639452617 0.6217601152368529 0.020837783813476562 0.6217601152368529 L 0.020837783813476562 0 L 10.125001271565756 0 C 13.458334654569626 0 15.833339715997381 0.5803117221295426 17.291673024495445 1.7616589305769574 C 18.729173019528393 2.943006139024372 19.458341598510742 4.4145070467099305 19.458341598510742 6.1761652360891865 C 19.458341598510742 7.668393366885679 18.999996160467465 8.953368290647154 18.062496185302734 10.010363154861528 C 17.124996210138004 11.067358019075902 15.833332637945812 11.792745108429115 14.208332697550457 12.18652751124492 C 13.104166090488436 12.455957569827683 11.229160924752556 12.601036890105759 8.60416094462077 12.601036890105759 L 8.562501271565756 12.601036890105759 Z M 8.562501271565756 1.3056978232191534 L 8.562501271565756 11.274613202638122 C 8.937501286466917 11.295338592056828 9.229175560176373 11.316060978080682 9.416675567626953 11.316060978080682 C 10.812508935729662 11.316060978080682 11.874994883934658 10.901552834549344 12.62499491373698 10.093262658801052 C 13.374994943539303 9.28497248305276 13.749996821085613 8.000001882944542 13.749996821085613 6.279794557331599 C 13.749996821085613 4.559587231718657 13.374994943539303 3.3160609481303926 12.62499491373698 2.5284961424987826 C 11.874994883934658 1.7409313368671726 10.750005145867666 1.3471495517161185 9.250005086263021 1.3471495517161185 L 8.54166348775228 1.3471495517161185 L 8.562501271565756 1.3056978232191534 Z" fill="currentColor"/>
<path transform="translate(221.729 35.42)" d="M 8.812507259621896 1.3056978232191534 L 8.812507259621896 10.694300862843829 L 9.270827255349433 10.694300862843829 C 10.749993921962052 10.694300862843829 11.812507345211449 10.238342596743879 12.45834070300666 9.326425446879227 C 13.125007374895857 8.414508297014576 13.541659438583784 7.046630533923922 13.729159451694152 5.2642469744279845 L 14.375003612831556 5.2642469744279845 L 14.375003612831556 17.32642720629082 L 13.729159451694152 17.32642720629082 C 13.583326113337879 16.020727653610365 13.312501023968439 14.943004516254978 12.875001024421666 14.093263538506848 C 12.437501024874893 13.243522560758718 11.916660690900404 12.683937660258023 11.354160651569298 12.39378220067534 C 10.770827298144209 12.103626741092656 9.937495789883835 11.958550910620422 8.833329149491952 11.958550910620422 L 8.833329149491952 18.445596204328037 C 8.833329149491952 19.70984501677513 8.895832964523725 20.49741155186804 8.999999635886923 20.766841610450804 C 9.10416630725012 21.056997070033486 9.312501551426829 21.284976666332025 9.604168228139374 21.471505182681586 C 9.895834904851919 21.658033699031147 10.375006685905058 21.74093351180305 11.041673357794254 21.74093351180305 L 12.416665134121708 21.74093351180305 C 14.583331786717505 21.74093351180305 16.312498594986963 21.243525555499815 17.62499862467137 20.24870686340196 C 18.937498654355778 19.253888171304105 19.8749954913226 17.740933126229052 20.437495530653706 15.689119508150352 L 21.062501907348633 15.689119508150352 L 20.0208352092387 23.025909423828125 L 0 23.025909423828125 L 0 22.404145355536865 L 0.7708390786474214 22.404145355536865 C 1.4375057505366167 22.404145355536865 1.9791698991145388 22.27979285688764 2.3958365845673293 22.051813569421476 C 2.6875032612798737 21.886010454071833 2.9166737520449666 21.616581661701808 3.0833404200172656 21.243524629002685 C 3.20834042099649 20.974094570419922 3.270832796282292 20.248704516275904 3.270832796282292 19.108808048061853 L 3.270832796282292 3.9378232869603482 C 3.270832796282292 2.9015537928626562 3.2499975535744188 2.2590660684743997 3.187497553084807 2.0103613954499364 C 3.083330881721609 1.6165789926341314 2.854173747674844 1.3057009887510016 2.5625070709622992 1.0984470868431395 C 2.1250070714155256 0.787566226260537 1.5416610209589525 0.6217601152368529 0.7916609685174777 0.6217601152368529 L 0.020837784442476224 0.6217601152368529 L 0.020837784442476224 0 L 19.416666616986248 0 L 19.416666616986248 6.818651215574523 L 18.770838350421265 6.818651215574523 C 18.437505014476667 5.160620000311626 17.97915956259799 3.958548348244655 17.374992895078915 3.2331597147295654 C 16.77082622755984 2.507771081214476 15.937506143523397 1.9689099757853468 14.833339503131514 1.6373037450860624 C 14.187506145336302 1.4300498431782003 13.000003516688851 1.3264236874676358 11.250003518501757 1.3264236874676358 L 8.854166933934428 1.3264236874676358 L 8.812507259621896 1.3056978232191534 Z" fill="currentColor"/>
<path transform="translate(244.708 35.44)" d="M 8.64583629200572 12.51813317475671 L 8.64583629200572 18.984456423815228 C 8.64583629200572 20.22797984048122 8.729170894161081 21.015543332762746 8.875004224400373 21.347149556618184 C 9.020837554639664 21.678755780473622 9.291669613854301 21.927462193268088 9.687502932137216 22.113990705767986 C 10.08333625042013 22.300519218267883 10.7916714978934 22.404144893149592 11.854171450959312 22.404144893149592 L 11.854171450959312 23.025904995554267 L 0 23.025904995554267 L 0 22.404144893149592 C 1.0624999530659112 22.404144893149592 1.7916729838218401 22.300519218267883 2.187506302104755 22.113990705767986 C 2.562506307453254 21.906736808137527 2.833338351145849 21.658030410784683 3.0000050098415985 21.347149556618184 C 3.1458383400808896 21.036268702451686 3.2291729422362505 20.24870570430195 3.2291729422362505 19.00518228763596 L 3.2291729422362505 4.041448571739039 C 3.2291729422362505 2.7979251550730497 3.1458383400808896 2.0103616627915226 3.0000050098415985 1.6787554389360835 C 2.8541716796023073 1.3471492150806443 2.5833396203876697 1.0984467553405035 2.187506302104755 0.9119182428406051 C 1.7916729838218401 0.7253897303407066 1.083337736348571 0.6217601024046756 0.02083778328265977 0.6217601024046756 L 0.02083778328265977 0 L 10.791667027545156 0 C 13.60416700557073 0 15.645827202795203 0.18652598007447213 16.937493846492366 0.5803083747632108 C 18.22916049018953 0.9740907694519496 19.291673792212002 1.6787554389360833 20.12500711673483 2.7150249116467586 C 20.937507066235078 3.751294384357434 21.35416612269566 4.974092801933324 21.35416612269566 6.362693929954855 C 21.35416612269566 8.06217585037641 20.729167355544895 9.471503830482252 19.50000077482732 10.569949412259753 C 18.708334138261492 11.27461266111499 17.62499702279462 11.792743907664557 16.208330377314624 12.145075532092175 L 21.77084231549118 19.958548305063704 C 22.500008951165594 20.97409240808544 23.02084227123134 21.595853761261207 23.333342275688423 21.844558429152787 C 23.791675594862756 22.196890053580404 24.333339682247946 22.383419978988396 24.95833969116211 22.424870756970325 L 24.95833969116211 23.046630859375 L 17.66667321024164 23.046630859375 L 10.208336252202963 12.538859038577442 L 8.687495963999504 12.538859038577442 L 8.64583629200572 12.51813317475671 Z M 8.64583629200572 1.2020724302222106 L 8.64583629200572 11.295334880713767 L 9.625005476860771 11.295334880713767 C 11.20833874999243 11.295334880713767 12.395836842196074 11.150259053235677 13.187503478761903 10.86010359964136 C 13.979170115327731 10.569948146047041 14.58333550745591 10.05181344057494 15.041668826630241 9.305699390575345 C 15.500002145804572 8.559585340575751 15.708334840531537 7.564766483710013 15.708334840531537 6.362693929954855 C 15.708334840531537 4.601035776933528 15.291675784070954 3.316063412117395 14.47917583457071 2.4663224519066183 C 13.645842510047878 1.6373068613847832 12.312497133288725 1.2020724302222106 10.4791638565914 1.2020724302222106 L 8.64583629200572 1.2020724302222106 Z" fill="currentColor"/>
<path transform="translate(283.646 25.492)" d="M 29.729175567626957 0.020725863402903964 L 29.729175567626957 8.932643544358028 L 28.854179382324222 8.932643544358028 C 28.33334604899089 6.880830009989687 27.75000892579556 5.388601322408731 27.12500890096029 4.497409579019808 C 26.50000887612502 3.606217835630885 25.625008841355644 2.8808292934768396 24.52084223429362 2.3419691982958497 C 23.89584220945835 2.0518137505509952 22.812514007091522 1.9067359494704774 21.27084732055664 1.9067359494704774 L 18.812497456868492 1.9067359494704774 L 18.812497456868492 27.316061405929702 C 18.812497456868492 28.994817922818985 18.895840955277286 30.05181370129017 19.083340962727867 30.46632148819471 C 19.270840970178448 30.88082927509925 19.645838439464573 31.25388768232394 20.187505086263023 31.56476853022315 C 20.729171733061474 31.875649378122365 21.47918703655402 32.04145152932721 22.41668701171875 32.04145152932721 L 23.520851135253906 32.04145152932721 L 23.520851135253906 32.93264389038086 L 6.187502543131511 32.93264389038086 L 6.187502543131511 32.04145152932721 L 7.291666666666667 32.04145152932721 C 8.25000001738469 32.04145152932721 9.020834602415562 31.875648420742042 9.604167938232422 31.523316803417345 C 10.020834611107906 31.295337525252332 10.354190832003951 30.901556219415422 10.604190826416016 30.362696124234432 C 10.791690833866596 29.96891373748425 10.875002543131512 28.95336669014496 10.875002543131512 27.2953355425268 L 10.875002543131512 1.8860100860675735 L 8.47918192545573 1.8860100860675735 C 6.250015149513882 1.8860100860675735 4.625011421740056 2.3626946910999185 3.6250114440917973 3.2953371730310885 C 2.2083447625239696 4.601036672441316 1.3125254462162654 6.487047252640669 0.9375254313151042 8.911917680955122 L 0 8.911917680955122 L 0 0 L 29.729175567626957 0 L 29.729175567626957 0.020725863402903964 Z" fill="currentColor"/>
<path transform="translate(312.542 35.075)" d="M 12.145837461884629 0.012913805439554957 C 15.833337517434897 -0.13216392354077394 18.833321074535142 0.9455547963124906 21.145821164093533 3.225347719996107 C 23.458321253651924 5.505140643679724 24.604162216186523 8.34452102804455 24.604162216186523 11.784935660037847 C 24.604162216186523 14.707215547878773 23.749984048586327 17.277163404508013 22.020817372006572 19.49478021818916 C 19.749983910455104 22.437785476030907 16.52083886637065 23.909286499023438 12.375005406038856 23.909286499023438 C 8.229171945707062 23.909286499023438 4.979173222698323 22.499962574296973 2.7083397611468554 19.702034906460984 C 0.9166730183803731 17.484418092779837 0 14.85229387908223 0 11.805661524170468 C 0 8.385972262177994 1.166671793011131 5.525866507812344 3.520838510576442 3.2460735841287276 C 5.875005228141752 0.9662806604451113 8.749992626511629 -0.11143805844305188 12.166659351664213 0.03363967053727702 L 12.145837461884629 0.012913805439554957 Z M 12.354151727114571 1.0906349805101905 C 10.229151711940023 1.0906349805101905 8.625001434835116 2.168354097020035 7.520834799240921 4.323794553632815 C 6.62500142785768 6.085452733164059 6.166649024095143 8.63467620805607 6.166649024095143 11.950738620044431 C 6.166649024095143 15.888562626189279 6.854149007091084 18.790116279298733 8.24998241126277 20.676126802367865 C 9.208315786744567 21.981826347749205 10.583309481830948 22.645040411368633 12.312476158410702 22.645040411368633 C 13.479142860191626 22.645040411368633 14.458317186522194 22.354885293123584 15.249983863711785 21.795299747203092 C 16.249983867200505 21.069911117743068 17.041672213162556 19.90928860646921 17.583338873957924 18.31343363401045 C 18.145838910844926 16.71757866155169 18.416659513167094 14.645038202546809 18.416659513167094 12.075089851785773 C 18.416659513167094 9.02845749687401 18.12498523192064 6.748666302651686 17.562485195033638 5.235712810196216 C 16.999985158146636 3.7227593177407465 16.270812152061932 2.645036865841266 15.37497878067869 2.02327514815183 C 14.479145409295448 1.4015134304623937 13.479163225112451 1.0906349805101905 12.333329837334988 1.0906349805101905 L 12.354151727114571 1.0906349805101905 Z" fill="currentColor"/>
<path transform="translate(336.833 35.378)" d="M 34.437530517578125 0.020725863453862684 L 34.437530517578125 0.6424859548527271 C 34.000030515083346 0.6839367321009344 33.64583458808427 0.787563833498039 33.33333456412794 0.9948177274598847 C 33.04166788545005 1.2020716214217304 32.77085615873515 1.512954029688744 32.54168948484853 1.9274618176124354 C 32.47918948393777 2.0725395418415657 32.1041805727008 2.943006890921528 31.458347210553764 4.559587180439186 L 24.187502164661137 23.585494995117188 L 23.520852003734007 23.585494995117188 L 17.770863235514156 8.72539086136349 L 11.437511866408618 23.585494995117188 L 10.812505485502209 23.585494995117188 L 3.1875293637081836 4.766841861923559 C 2.4166959919786173 2.8808314006200124 1.8750000816498313 1.7202060243315538 1.562500057693497 1.3264236366131796 C 1.2500000337371628 0.9326412488948056 0.7291666811726638 0.7046655989495332 0 0.6217640444531185 L 0 0 L 10.041682296233168 0 L 10.041682296233168 0.6217640444531185 C 9.229182296034873 0.6424894330772222 8.68750667301692 0.7668384487343399 8.437506669373896 0.9948177274598847 C 8.166673335974464 1.2227970061854294 8.041668235161668 1.4922302354117176 8.041668235161668 1.823836453397376 C 8.041668235161668 2.2590696106431483 8.312520629630496 3.1709860769973637 8.875020672751898 4.559587180439186 L 13.416672248324703 15.751296496998524 L 17.062505716276195 7.005183725235426 L 16.10419014947875 4.559587180439186 C 15.583356796914252 3.212436939174471 15.166686290231137 2.3212432479504823 14.895852956831705 1.88601009070471 C 14.604186278153822 1.4300515332536203 14.291683739626444 1.1191725993506971 13.916683710878843 0.9326440901525507 C 13.541683682131241 0.7461155809544041 13.000019560947509 0.6424859548527271 12.291686194009209 0.6424859548527271 L 12.291686194009209 0.020725863453862684 L 23.520852003734007 0.020725863453862684 L 23.520852003734007 0.6424859548527271 C 22.729185317770074 0.6424859548527271 22.166690365878935 0.7253878259023144 21.833357027688237 0.8290147728832372 C 21.583357024045213 0.9119163273796518 21.395848107779475 1.0362697631999738 21.270848105957963 1.2227982723981203 C 21.12501476661902 1.409326781596267 21.062502049274144 1.6165795637616036 21.062502049274144 1.8652842272508474 C 21.062502049274144 2.1347142755037902 21.31252367512374 2.9222788038746472 21.833357027688237 4.269429045139362 L 26.062521307380365 15.191710042906994 L 29.83334969368413 5.305698499506972 C 30.229183036666097 4.290154414461443 30.479195768384777 3.5854946987684366 30.56252910293245 3.2124376803721435 C 30.645862437480126 2.8393806619758504 30.708345911295083 2.487049074668111 30.708345911295083 2.1761682260045334 C 30.708345911295083 1.7202096685534438 30.541688151852693 1.3471512295282786 30.229188127896357 1.0777211812753356 C 29.91668810394002 0.8082911330223925 29.291677935655006 0.6632113434768308 28.395844554342904 0.6424859548527271 L 28.395844554342904 0.020725863453862684 L 34.41667683842271 0.020725863453862684 L 34.437530517578125 0.020725863453862684 Z" fill="currentColor"/>
<path transform="translate(372.896 35.399)" d="M 8.270835876464844 0 L 19.70831553141276 14.300517763551731 L 19.70831553141276 4.393784251637315 C 19.70831553141276 3.0051831400496933 19.499996180335682 2.0725398782734614 19.104162851969402 1.5958559178207357 C 18.56249620517095 0.932643477958888 17.645814269781113 0.6217605698759895 16.35414759318034 0.6424859586216722 L 16.35414759318034 0.020725863575444554 L 23.999977111816406 0.020725863575444554 L 23.999977111816406 0.6424859586216722 C 23.020810447633266 0.7668382910957686 22.354150128861267 0.9326444044559841 22.020816802978516 1.1191729147483425 C 21.687483477095764 1.3057014250407009 21.41663997123639 1.6373062243427439 21.22913996378581 2.0932647844685732 C 21.041639956335228 2.5492233445944024 20.937474568684898 3.316064052303431 20.937474568684898 4.393784251637315 L 20.937474568684898 23.585491180419922 L 20.354143778483074 23.585491180419922 L 4.6875 4.393784251637315 L 4.6875 19.04663378986305 C 4.6875 20.373058669586747 4.999973314503829 21.26424884534968 5.604139963785808 21.740932805802405 C 6.208306613067786 22.196891365928234 6.916639953851701 22.44559635515041 7.6874732971191415 22.44559635515041 L 8.22916030883789 22.44559635515041 L 8.22916030883789 23.06735645019664 L 0 23.06735645019664 L 0 22.44559635515041 C 1.2708333631356559 22.44559635515041 2.166664134711027 22.176168034778186 2.6666641235351562 21.658033304554905 C 3.1666641123592854 21.139898574331625 3.4166653951009116 20.290157191812106 3.4166653951009116 19.04663378986305 L 3.4166653951009116 2.7772024702411344 L 2.9166539510091147 2.155442375194907 C 2.4166539621849856 1.533680674220379 1.999997471769651 1.1398984694914216 1.6249974568684897 0.9533699591990633 C 1.2499974419673285 0.766841448906705 0.708333340783914 0.6424854837919105 0 0.6217600950462278 L 0 0 L 8.22916030883789 0 L 8.270835876464844 0 Z" fill="currentColor"/>
<path transform="translate(410.938 25.513)" d="M 11.729176403204756 0 L 28.062501500013717 20.435232305245012 L 28.062501500013717 6.279792148488052 C 28.062501500013717 4.310880269953766 27.770827237146154 2.963729390349902 27.20832723570323 2.2797915441521406 C 26.416660608397894 1.3471490883762094 25.12499522157335 0.8911908343635243 23.270828653630666 0.9119162223554429 L 23.270828653630666 0.020723886294596386 L 34.20832824707031 0.020723886294596386 L 34.20832824707031 0.9119162223554429 C 32.81249493085245 1.0984447258639234 31.875014082647816 1.326423843219255 31.395847425100023 1.5958538832537918 C 30.91668076755223 1.8652839232883287 30.541662978329764 2.341968020820655 30.27082966499775 2.984455067872153 C 29.999996351665732 3.6269421149236507 29.874991260115195 4.72538801435052 29.874991260115195 6.279792148488052 L 29.874991260115195 33.69947814941406 L 29.04167067341497 33.69947814941406 L 6.645838172562352 6.279792148488052 L 6.645838172562352 27.212435278817647 C 6.645838172562352 29.09844568259235 7.083348356144397 30.383420517892993 7.958348296300774 31.04663293363439 C 8.833348236457152 31.709845349375783 9.833321479021365 32.04145063074942 10.95832148190721 32.04145063074942 L 11.749998291672316 32.04145063074942 L 11.749998291672316 32.93264296681026 L 0 32.93264296681026 L 0 32.04145063074942 C 1.8333332552519677 32.04145063074942 3.0833370458367924 31.647666340281962 3.812503672981802 30.922277756704407 C 4.541670300126811 30.196889173126852 4.895845867006256 28.953367854697188 4.895845867006256 27.212435278817647 L 4.895845867006256 3.9792727649871815 L 4.187488400254095 3.1088082682750646 C 3.4791550857998037 2.238341980335294 2.8749897007388303 1.658029248125831 2.3333230740747952 1.3885992080912941 C 1.7916564474107601 1.1191691680567573 1.0208218289445883 0.9533674731690246 0.020821888467561184 0.932642085177106 L 0.020821888467561184 0.041449749116259496 L 11.770820180139877 0.041449749116259496 L 11.729176403204756 0 Z" fill="currentColor"/>
<path transform="translate(447.979 25.554)" d="M 12.583350869316693 1.865284153237098 L 12.583350869316693 15.274612890631749 L 13.25000099153952 15.274612890631749 C 15.354167593868402 15.274612890631749 16.87500602602676 14.611398875048216 17.812505981378315 13.305699424237309 C 18.75000593672987 11.999999973426402 19.354162452871595 10.051813110861072 19.624995770547017 7.502590314738378 L 20.5624893929052 7.502590314738378 L 20.5624893929052 24.74611469523752 L 19.624995770547017 24.74611469523752 C 19.437495767059072 22.860104308770133 19.020836770878482 21.326426545660098 18.395836759251996 20.124354060880663 C 17.77083674762551 18.922281576101227 17.041663775793353 18.11399124723239 16.208330447654095 17.699483475756207 C 15.37499711951484 17.284975704280022 14.16667272509622 17.077719455974442 12.604172758118178 17.077719455974442 L 12.604172758118178 26.36269244995109 C 12.604172758118178 28.18652660738642 12.687507360635188 29.284973454113494 12.833340691507352 29.69948122558968 C 12.979174022379517 30.113988997065864 13.270836881223415 30.44559425995484 13.70833685831787 30.694298913575583 C 14.145836835412323 30.943003567196325 14.81249462552419 31.088082397465293 15.749994580875747 31.088082397465293 L 17.729154847885958 31.088082397465293 C 20.81248815579239 31.088082397465293 23.29167003878706 30.383417768415285 25.166669949490174 28.953365983073198 C 27.041669860193288 27.52331419773111 28.374987986032 25.367875009031067 29.18748793905826 22.445595332847777 L 30.083337783813473 22.445595332847777 L 28.604157161184585 32.91191482543945 L 0 32.91191482543945 L 0 32.02072645061089 L 1.1041641001996927 32.02072645061089 C 2.062497430664246 32.02072645061089 2.83333199940426 31.85492334819706 3.4166653228929227 31.502591743986468 C 3.833331986962551 31.27461247430705 4.166667851415602 30.88082723007294 4.395834511997285 30.34196715494881 C 4.58333451548523 29.94818478285557 4.666678012132639 28.93264172636996 4.666678012132639 27.27461064046522 L 4.666678012132639 5.6165802988698115 C 4.666678012132639 4.124352284495666 4.625016430746826 3.2124358852091746 4.541683101037309 2.880829680381521 C 4.375016441618275 2.3212441749912167 4.0833332333765515 1.88601081883268 3.645833256282097 1.5751299825047331 C 3.0208332446556123 1.119171443145901 2.1874973709013723 0.8911923278826606 1.1041641001996927 0.8911923278826606 L 0 0.8911923278826606 L 0 0 L 27.70833910557258 0 L 27.70833910557258 9.740934065760763 L 26.770845483214398 9.740934065760763 C 26.29167881798212 7.3575144647016 25.645831492448398 5.658032024132749 24.77083153825949 4.621762610883906 C 23.89583158407058 3.5854931976350626 22.70832013775692 2.8186530498674047 21.14582017077888 2.341969111125631 C 20.229153528452148 2.0518136741806257 18.520838127517038 1.906735878500035 16.0208380810111 1.906735878500035 L 12.604172758118178 1.906735878500035 L 12.583350869316693 1.865284153237098 Z" fill="currentColor"/>
<path transform="translate(479.854 25.513)" d="M 49.145824432373054 0 L 49.145824432373054 0.891190372082369 C 48.52082442370861 0.9326411486498623 47.99999113489505 1.1191696470639867 47.583324472800115 1.4093250907572488 C 47.16665781070518 1.6994805344505108 46.79167180638886 2.155439794728171 46.45833848913055 2.7357506821146953 C 46.35417182360681 2.922279188249629 45.854160369168916 4.186527252033052 44.91666041826042 6.5077708015791496 L 34.54166958765619 33.67875671386719 L 33.58332229189517 33.67875671386719 L 25.3749840846758 12.45595713478352 L 16.333325281341413 33.67875671386719 L 15.437507229974932 33.67875671386719 L 4.541651290369997 6.797926955586837 C 3.437484711876433 4.103626517303816 2.6666500536573547 2.4663209471187515 2.2291500786363305 1.8860100597322274 C 1.791650103615306 1.3056991723457032 1.04166663971529 0.9948173173615067 0 0.891190372082369 L 0 0 L 14.354165023710975 0 L 14.354165023710975 0.891190372082369 C 13.208331695188887 0.9326411486498623 12.437497130102065 1.0984442471990266 12.041663811977308 1.4093250907572488 C 11.645830493852552 1.720205934315471 11.45833303686819 2.1139896435462036 11.45833303686819 2.590673593374399 C 11.45833303686819 3.2124352804908436 11.85414983953972 4.51813352633947 12.645816475789232 6.5077708015791496 L 19.14583792422992 22.487045604573527 L 24.35417112280637 10.010360630149416 L 22.979163528987854 6.5077708015791496 C 22.229163518590525 4.601035002266368 21.645826410488063 3.3160621253994647 21.249993092363304 2.673575069301296 C 20.854159774238546 2.031088013203127 20.374996929699627 1.5751277955451561 19.854163609841983 1.305697751716854 C 19.33333028998434 1.0362677078885518 18.54167383619471 0.891190372082369 17.520840509405513 0.891190372082369 L 17.520840509405513 0 L 33.56250040319237 0 L 33.56250040319237 0.891190372082369 C 32.43750038759637 0.891190372082369 31.624992832619938 0.9948175567065847 31.145826169658562 1.1606206629765579 C 30.81249285240025 1.2642476082556957 30.541660793293822 1.4715009506365346 30.333327462246356 1.7409309944648368 C 30.12499413119889 2.010361038293139 30.0416620746918 2.321242993647852 30.0416620746918 2.652849206187798 C 30.0416620746918 3.025906218457665 30.416659534275492 4.165801759518385 31.145826169658562 6.072537558831167 L 37.16665807564721 21.65803084530456 L 42.56248363997808 7.544040238928909 C 43.124983647776084 6.093263051345835 43.4791502857215 5.098445216690128 43.60415027969337 4.559585129033524 C 43.72915027366524 4.020725041376919 43.79167443459085 3.5233155990340563 43.79167443459085 3.088082448935781 C 43.79167443459085 2.4248700238558882 43.56250395667279 1.9067348110492346 43.10417063768159 1.5129524297976438 C 42.64583731869039 1.119170048546053 41.77083736864834 0.9326411486498623 40.500004038393364 0.891190372082369 L 40.500004038393364 0 L 49.08332697712158 0 L 49.145824432373054 0 Z" fill="currentColor"/>
<path transform="translate(530.542 24.767)" d="M 20.895830217768196 0 L 21.166673716207914 10.984456328672922 L 20.16665085541958 10.984456328672922 C 19.687484193187164 8.227979562110566 18.54168647397371 6.010363001707494 16.68751988790358 4.331606523930764 C 14.833353301833451 2.652850046154035 12.83334309468999 1.8238344298933258 10.687509879745617 1.8238344298933258 C 9.020843233901406 1.8238344298933258 7.708312794499529 2.2590682862431155 6.749979470034698 3.1502600088685835 C 5.791646145569867 4.0414517314940515 5.291684323623483 5.056994307986671 5.291684323623483 6.196890703137058 C 5.291684323623483 6.922279290157089 5.458350981999088 7.564767452054118 5.812517642688778 8.145078334023438 C 6.291684304921193 8.911917720386446 7.041676646288551 9.65803000850001 8.083343284419142 10.404144026074766 C 8.854176606569885 10.943004108701109 10.604130682922271 11.875648298364274 13.374964029756606 13.243523997251327 C 17.249963953404723 15.129534409976468 19.854150913650937 16.93264347108154 21.20831749355017 18.61139994885827 C 22.541650760555 20.290156426635 23.208299636840817 22.217615600409573 23.208299636840817 24.393781299703196 C 23.208299636840817 27.150258066265554 22.124991704894768 29.512952949384047 19.979158489950397 31.502590206050453 C 17.833325275006025 33.49222746271686 15.083320274012493 34.48704528808594 11.770820295218465 34.48704528808594 C 10.729153657087876 34.48704528808594 9.750022596250021 34.38342309207163 8.812522646767759 34.17616920344807 C 7.8750226972854955 33.96891531482451 6.729141065910365 33.575131593828125 5.312474423151603 32.99482071185881 C 4.5208077881064614 32.663214502414405 3.895823054082644 32.518133770806614 3.374989735017349 32.518133770806614 C 2.958323073556296 32.518133770806614 2.4999910280698465 32.68393987120266 2.041657709775914 32.99482071185881 C 1.583324391481981 33.305701552514954 1.1874847099219916 33.80311095933126 0.895818050003663 34.46632337822007 L 0 34.46632337822007 L 0 22.031088269578834 L 0.895818050003663 22.031088269578834 C 1.6041513713830446 25.533679053715947 2.9999642742395 28.186529964600577 5.041630924711885 30.031089516216273 C 7.083297575184271 31.87564906783197 9.291658792664649 32.78756603571274 11.645825384905676 32.78756603571274 C 13.479158658081406 32.78756603571274 14.916651038977834 32.29015465236936 15.99998430289722 31.31606139282441 C 17.083317566816604 30.341968133279458 17.6249817152495 29.181346678173178 17.6249817152495 27.875647209183825 C 17.6249817152495 27.088082454032563 17.416673825146606 26.341968127625453 17.000007163685552 25.61657954060542 C 16.583340502224498 24.89119095358539 15.958332888710059 24.186527735353607 15.104166252893556 23.54404068525306 C 14.249999617077053 22.90155363515251 12.770825274613854 22.031087775447066 10.604158746775084 20.974092978982632 C 7.583325396855301 19.502590436154318 5.4375023643708 18.238342322406183 4.104169097365966 17.20207289473 C 2.770835830361132 16.16580346705382 1.7708218481811002 15.005181085450472 1.0624885268017186 13.720206985249373 C 0.3541552054223369 12.435232885048274 0 11.025908548644734 0 9.492229775918718 C 0 6.860105469151762 0.9583002314702522 4.64248779695221 2.8958001932943107 2.797928245336516 C 4.833300155118369 0.9533686937208221 7.270840852952806 0.020725862920021862 10.229174015836717 0.020725862920021862 C 11.312507279756103 0.020725862920021862 12.354173979974862 0.14507733445188536 13.354173930228487 0.41450737576505675 C 14.12500725237923 0.6010358801587457 15.041666314210364 0.9740938154431905 16.145832891024146 1.4922285292812805 C 17.249999467837927 2.0103632431193703 18.02080233574132 2.2797935314984263 18.45830231009677 2.2797935314984263 C 18.89580228445222 2.2797935314984263 19.208325183321694 2.155440083439487 19.4583251708851 1.8860100421263153 C 19.708325158448506 1.616580000813144 19.937463846874916 0.9948191224649722 20.14579717760544 0.020725862920021862 L 20.87497653995406 0.020725862920021862 L 20.895830217768196 0 Z" fill="currentColor"/>
</svg>
