<svg xmlns="http://www.w3.org/2000/svg" xmlns:xlink="http://www.w3.org/1999/xlink" viewBox="0 0 1977.2 226.637" width="1977.2" height="226.637" color="#000000" role="img" aria-label="Orlando Sentinel">
<title>Orlando Sentinel</title>
<defs>
<clipPath id="orlando-sentinel-clip1">
  <path d="M 391 82 L 522 82 L 522 226.710938 L 391 226.710938 Z M 391 82 "/>
</clipPath>
<clipPath id="orlando-sentinel-clip2">
  <path d="M 1902 4 L 1977.195312 4 L 1977.195312 223 L 1902 223 Z M 1902 4 "/>
</clipPath>
<clipPath id="orlando-sentinel-clip3">
  <path d="M 1016 7 L 1167 7 L 1167 226.710938 L 1016 226.710938 Z M 1016 7 "/>
</clipPath>
</defs>
<g id="orlando-sentinel-surface1">
<path style=" stroke:none;fill-rule:nonzero;fill:currentColor;fill-opacity:1;" d="M 683.84375 223.40625 L 610.335938 223.40625 L 610.335938 209.367188 C 623.964844 209.367188 626.855469 205.648438 626.855469 193.261719 L 626.855469 133.796875 C 626.855469 118.929688 621.902344 113.148438 613.226562 113.148438 C 602.492188 113.148438 592.992188 119.753906 585.148438 128.015625 L 585.148438 192.847656 C 585.148438 203.582031 588.453125 208.125 601.664062 208.125 L 601.664062 222.167969 L 527.746094 222.167969 L 527.746094 208.125 C 538.898438 208.125 544.679688 204.410156 544.679688 194.085938 L 544.679688 136.273438 C 544.679688 122.644531 542.203125 119.753906 533.941406 119.753906 L 527.746094 119.753906 L 527.746094 105.300781 C 545.503906 101.585938 565.738281 94.152344 583.910156 85.480469 L 585.972656 87.132812 L 585.972656 104.0625 C 595.472656 94.976562 612.402344 81.765625 629.746094 81.765625 C 654.523438 81.765625 667.738281 94.976562 667.738281 127.1875 L 667.738281 192.847656 C 667.738281 206.0625 671.042969 208.953125 684.253906 208.953125 Z M 683.84375 223.40625 "/>
<path style=" stroke:none;fill-rule:nonzero;fill:currentColor;fill-opacity:1;" d="M 391.476562 223.40625 L 317.558594 223.40625 L 317.558594 209.367188 C 329.53125 209.367188 334.074219 204.824219 334.074219 195.324219 L 334.074219 54.097656 C 334.074219 41.707031 331.597656 39.230469 322.925781 39.230469 L 316.730469 39.230469 L 316.730469 24.777344 C 336.964844 20.234375 353.898438 13.214844 372.890625 4.957031 L 374.957031 5.78125 L 374.957031 194.085938 C 374.957031 203.171875 379.5 208.125 391.476562 208.125 Z M 391.476562 223.40625 "/>
<path style=" stroke:none;fill-rule:nonzero;fill:currentColor;fill-opacity:1;" d="M 329.53125 91.675781 L 307.648438 121.820312 C 305.167969 116.863281 301.039062 114.386719 294.019531 114.386719 C 283.695312 114.386719 277.5 120.167969 271.308594 130.90625 L 271.308594 193.671875 C 271.308594 204.410156 275.023438 208.953125 287.824219 208.953125 L 287.824219 222.992188 L 215.558594 222.992188 L 215.558594 208.953125 C 227.535156 208.953125 232.078125 205.234375 232.078125 195.738281 L 232.078125 133.382812 C 232.078125 122.644531 229.597656 119.34375 220.515625 119.34375 L 214.734375 119.34375 L 214.734375 105.300781 C 233.730469 100.761719 252.3125 94.152344 269.65625 85.480469 L 271.71875 86.308594 L 271.71875 106.128906 L 272.132812 106.128906 C 280.804688 91.675781 291.128906 81.351562 305.167969 81.351562 C 317.96875 81.765625 325.402344 85.894531 329.53125 91.675781 "/>
<path style=" stroke:none;fill-rule:nonzero;fill:currentColor;fill-opacity:1;" d="M 913.027344 153.617188 C 913.027344 116.039062 901.878906 100.347656 886.601562 100.347656 C 871.320312 100.347656 860.585938 118.101562 860.585938 153.617188 C 860.585938 190.367188 871.320312 206.886719 886.601562 206.886719 C 901.878906 206.886719 913.027344 190.367188 913.027344 153.617188 M 953.910156 153.617188 C 953.910156 196.152344 924.59375 225.46875 886.601562 225.46875 C 849.433594 225.46875 818.875 196.152344 818.875 153.617188 C 818.875 106.542969 848.195312 81.765625 886.601562 81.765625 C 923.765625 81.765625 953.910156 106.953125 953.910156 153.617188 "/>
<path style=" stroke:none;fill-rule:nonzero;fill:currentColor;fill-opacity:1;" d="M 766.433594 190.78125 L 766.433594 107.78125 C 761.890625 104.476562 754.871094 101.585938 747.023438 101.585938 C 726.375 101.585938 720.59375 124.296875 720.59375 152.378906 C 720.59375 184.589844 728.441406 202.34375 745.785156 202.34375 C 753.21875 201.519531 761.890625 196.152344 766.433594 190.78125 M 823.417969 223.40625 L 773.453125 223.40625 C 770.972656 218.449219 768.910156 212.667969 768.496094 208.125 C 761.0625 216.386719 750.328125 225.058594 732.15625 225.058594 C 701.1875 225.058594 678.886719 203.171875 678.886719 155.269531 C 678.886719 106.953125 704.488281 82.589844 740.417969 82.589844 C 752.804688 82.589844 761.476562 85.066406 766.433594 87.546875 L 766.433594 54.507812 C 766.433594 42.535156 763.953125 39.644531 753.21875 39.644531 L 748.675781 39.644531 L 748.675781 24.777344 C 766.84375 20.234375 788.316406 13.214844 804.835938 4.957031 L 807.3125 5.78125 L 807.3125 194.085938 C 807.3125 203.582031 811.855469 208.125 823.832031 208.125 L 823.832031 222.992188 L 823.417969 222.992188 Z M 823.417969 223.40625 "/>
<g clip-path="url(#orlando-sentinel-clip1)" clip-rule="nonzero">
<path style=" stroke:none;fill-rule:nonzero;fill:currentColor;fill-opacity:1;" d="M 462.089844 193.671875 L 462.089844 155.683594 C 451.765625 155.683594 431.945312 166.832031 431.945312 183.761719 C 431.945312 194.5 437.726562 200.28125 445.984375 200.28125 C 451.351562 199.867188 456.308594 198.628906 462.089844 193.671875 M 521.96875 209.777344 C 514.53125 218.035156 502.972656 226.296875 488.105469 226.296875 C 471.585938 226.296875 467.042969 218.035156 463.742188 209.363281 C 452.589844 220.101562 444.746094 226.296875 424.925781 226.296875 C 405.101562 226.296875 391.0625 211.84375 391.0625 192.019531 C 391.0625 167.65625 402.625 148.660156 461.675781 138.339844 L 461.675781 123.886719 C 461.675781 113.148438 456.722656 107.367188 446.398438 107.367188 C 432.769531 107.367188 423.683594 111.082031 412.121094 120.992188 L 401.386719 107.78125 C 417.492188 92.914062 434.835938 82.175781 458.375 82.175781 C 492.234375 82.175781 502.144531 99.933594 502.144531 126.773438 L 502.144531 194.085938 C 502.144531 200.28125 504.625 202.34375 507.925781 202.34375 C 510.816406 202.34375 513.296875 201.519531 514.53125 199.867188 Z M 521.96875 209.777344 "/>
</g>
<path style=" stroke:none;fill-rule:nonzero;fill:currentColor;fill-opacity:1;" d="M 156.921875 113.148438 C 156.921875 49.554688 131.730469 21.886719 104.0625 21.886719 C 75.570312 21.886719 50.378906 49.554688 50.378906 112.734375 C 50.378906 177.980469 75.980469 203.996094 104.0625 203.996094 C 133.382812 203.996094 156.921875 175.917969 156.921875 113.148438 M 207.714844 112.734375 C 207.714844 187.066406 155.679688 225.46875 103.652344 225.46875 C 50.378906 225.058594 0 187.480469 0 112.734375 C 0 35.925781 54.921875 0 104.0625 0 C 152.378906 0.414062 207.714844 36.339844 207.714844 112.734375 "/>
<g clip-path="url(#orlando-sentinel-clip2)" clip-rule="nonzero">
<path style=" stroke:none;fill-rule:nonzero;fill:currentColor;fill-opacity:1;" d="M 1976.371094 222.578125 L 1902.867188 222.578125 L 1902.867188 208.125 C 1914.84375 208.125 1919.382812 203.582031 1919.382812 194.085938 L 1919.382812 53.683594 C 1919.382812 41.296875 1916.492188 38.816406 1907.820312 38.816406 L 1902.039062 38.816406 L 1902.039062 24.777344 C 1922.273438 19.410156 1940.859375 13.214844 1958.199219 4.957031 L 1960.679688 5.78125 L 1960.679688 194.085938 C 1960.679688 203.171875 1964.394531 208.125 1977.195312 208.125 Z M 1976.371094 222.578125 "/>
</g>
<path style=" stroke:none;fill-rule:nonzero;fill:currentColor;fill-opacity:1;" d="M 1788.480469 222.578125 L 1714.972656 222.578125 L 1714.972656 208.539062 C 1728.601562 208.539062 1731.492188 204.824219 1731.492188 192.433594 L 1731.492188 133.796875 C 1731.492188 118.929688 1726.539062 113.148438 1717.867188 113.148438 C 1707.128906 113.148438 1698.457031 119.34375 1689.785156 128.015625 L 1689.785156 192.847656 C 1689.785156 203.582031 1693.089844 208.125 1706.300781 208.125 L 1706.300781 222.167969 L 1631.972656 222.167969 L 1631.972656 208.125 C 1643.121094 208.125 1648.492188 204.410156 1648.492188 194.085938 L 1648.492188 135.859375 C 1648.492188 122.644531 1646.839844 119.34375 1637.753906 119.34375 L 1631.558594 119.34375 L 1631.558594 104.890625 C 1650.554688 100.347656 1669.550781 93.328125 1687.71875 85.066406 L 1689.785156 86.71875 L 1689.785156 104.0625 C 1699.28125 94.976562 1717.453125 81.765625 1733.558594 81.765625 C 1758.335938 81.765625 1771.546875 95.390625 1771.546875 127.1875 L 1771.546875 192.847656 C 1771.546875 206.0625 1774.851562 208.953125 1788.066406 208.953125 L 1788.066406 222.992188 Z M 1788.480469 222.578125 "/>
<path style=" stroke:none;fill-rule:nonzero;fill:currentColor;fill-opacity:1;" d="M 1586.546875 14.453125 C 1600.003906 14.453125 1610.910156 25.363281 1610.910156 38.816406 C 1610.910156 52.273438 1600.003906 63.179688 1586.546875 63.179688 C 1573.089844 63.179688 1562.183594 52.273438 1562.183594 38.816406 C 1562.183594 25.363281 1573.089844 14.453125 1586.546875 14.453125 "/>
<path style=" stroke:none;fill-rule:nonzero;fill:currentColor;fill-opacity:1;" d="M 1623.714844 222.578125 L 1549.796875 222.578125 L 1549.796875 208.539062 C 1561.769531 208.539062 1566.3125 204.824219 1566.3125 194.5 L 1566.3125 134.207031 C 1566.3125 120.996094 1563.835938 119.34375 1555.164062 119.34375 L 1548.96875 119.34375 L 1548.96875 105.300781 C 1569.617188 99.933594 1586.960938 93.738281 1605.128906 85.480469 L 1607.609375 86.304688 L 1607.609375 194.085938 C 1607.609375 203.171875 1612.148438 208.125 1624.125 208.125 Z M 1623.714844 222.578125 "/>
<path style=" stroke:none;fill-rule:nonzero;fill:currentColor;fill-opacity:1;" d="M 1544.839844 205.234375 C 1532.863281 218.449219 1519.648438 225.46875 1503.957031 225.46875 C 1477.527344 225.46875 1467.207031 211.015625 1467.207031 189.128906 L 1467.207031 108.605469 L 1445.320312 108.605469 L 1451.101562 86.71875 L 1466.378906 86.71875 L 1466.378906 57.398438 C 1482.898438 51.207031 1503.957031 36.339844 1503.957031 36.339844 L 1506.4375 37.164062 L 1506.4375 87.546875 L 1538.644531 87.546875 L 1533.691406 108.605469 L 1506.023438 108.605469 L 1506.023438 187.066406 C 1506.023438 197.390625 1509.324219 200.695312 1516.347656 200.695312 C 1522.128906 200.695312 1528.320312 198.214844 1535.753906 192.023438 Z M 1544.839844 205.234375 "/>
<path style=" stroke:none;fill-rule:nonzero;fill:currentColor;fill-opacity:1;" d="M 1456.46875 222.578125 L 1382.964844 222.578125 L 1382.964844 208.539062 C 1396.59375 208.539062 1399.480469 204.824219 1399.480469 192.433594 L 1399.480469 133.796875 C 1399.480469 118.929688 1394.527344 113.148438 1385.855469 113.148438 C 1375.117188 113.148438 1366.859375 118.515625 1357.363281 128.015625 L 1357.363281 192.847656 C 1357.363281 203.582031 1360.664062 208.125 1373.878906 208.125 L 1373.878906 222.167969 L 1299.960938 222.167969 L 1299.960938 208.125 C 1311.109375 208.125 1316.894531 204.410156 1316.894531 194.085938 L 1316.894531 135.859375 C 1316.894531 122.644531 1315.242188 119.34375 1305.742188 119.34375 L 1299.550781 119.34375 L 1299.550781 104.890625 C 1318.542969 100.347656 1337.539062 93.738281 1355.710938 85.066406 L 1357.773438 86.71875 L 1357.773438 104.0625 C 1367.273438 94.976562 1385.441406 81.765625 1401.546875 81.765625 C 1426.324219 81.765625 1440.363281 95.390625 1440.363281 127.1875 L 1440.363281 192.847656 C 1440.363281 206.0625 1443.667969 208.953125 1456.882812 208.953125 Z M 1456.46875 222.578125 "/>
<g clip-path="url(#orlando-sentinel-clip3)" clip-rule="nonzero">
<path style=" stroke:none;fill-rule:nonzero;fill:currentColor;fill-opacity:1;" d="M 1166.992188 159.8125 C 1166.992188 204.410156 1136.019531 225.882812 1089.769531 225.882812 C 1064.992188 225.882812 1048.0625 217.210938 1040.628906 217.625 C 1040.628906 217.625 1032.785156 218.039062 1032.371094 226.710938 L 1016.265625 226.710938 L 1016.265625 154.445312 L 1031.546875 154.445312 C 1040.628906 205.648438 1068.296875 207.714844 1085.640625 207.714844 C 1112.070312 207.714844 1127.347656 196.976562 1127.347656 177.570312 C 1127.347656 159.398438 1116.199219 148.660156 1075.730469 130.492188 C 1043.519531 116.039062 1018.332031 97.457031 1018.332031 64.832031 C 1018.332031 27.253906 1048.476562 7.019531 1088.117188 7.019531 C 1109.179688 7.019531 1125.285156 17.34375 1130.652344 17.34375 C 1133.542969 17.34375 1136.433594 14.867188 1138.085938 9.910156 L 1155.015625 9.910156 L 1155.015625 74.746094 L 1139.738281 74.746094 C 1136.847656 44.597656 1119.503906 26.429688 1088.117188 26.429688 C 1067.882812 26.429688 1054.671875 35.101562 1054.671875 49.140625 C 1054.671875 66.484375 1064.167969 71.851562 1108.765625 90.847656 C 1139.324219 104.0625 1166.992188 121.820312 1166.992188 159.8125 "/>
</g>
<path style=" stroke:none;fill-rule:nonzero;fill:currentColor;fill-opacity:1;" d="M 1864.875 136.6875 C 1864.875 115.625 1860.332031 99.519531 1846.703125 99.519531 C 1833.078125 99.519531 1826.058594 113.972656 1826.058594 136.6875 Z M 1906.996094 154.03125 L 1825.230469 154.03125 C 1825.230469 185.414062 1838.859375 201.105469 1858.679688 201.105469 C 1875.613281 201.105469 1885.933594 192.433594 1890.890625 185.828125 L 1902.453125 196.5625 C 1886.347656 214.320312 1873.132812 224.644531 1843.816406 224.644531 C 1809.539062 224.644531 1784.761719 197.390625 1784.761719 156.507812 C 1784.761719 110.671875 1813.253906 82.175781 1847.117188 82.175781 C 1887.585938 81.765625 1906.996094 110.257812 1906.996094 154.03125 "/>
<path style=" stroke:none;fill-rule:nonzero;fill:currentColor;fill-opacity:1;" d="M 1253.710938 136.6875 C 1253.710938 115.625 1249.167969 99.519531 1235.542969 99.519531 C 1221.914062 99.519531 1214.894531 113.972656 1214.894531 136.6875 Z M 1295.417969 154.03125 L 1214.066406 154.03125 C 1214.066406 186.238281 1228.519531 201.105469 1247.515625 201.105469 C 1264.859375 201.105469 1274.769531 192.433594 1279.726562 185.828125 L 1291.289062 196.5625 C 1275.183594 214.320312 1261.96875 224.644531 1232.652344 224.644531 C 1198.375 224.644531 1173.1875 197.390625 1173.1875 156.507812 C 1173.1875 110.671875 1201.679688 82.175781 1235.953125 82.175781 C 1276.421875 81.765625 1295.417969 110.257812 1295.417969 154.03125 "/>
</g>
</svg>
