<svg xmlns="http://www.w3.org/2000/svg" xmlns:xlink="http://www.w3.org/1999/xlink" viewBox="0 0 513.82 64" width="513.82" height="64" color="#000000" role="img" aria-label="El Cerrito Journal">
<title>El Cerrito Journal</title>
<defs>
<clipPath id="el-cerrito-journal-clip1">
  <path d="M 468 0 L 513.820312 0 L 513.820312 49 L 468 49 Z M 468 0 "/>
</clipPath>
</defs>
<g id="el-cerrito-journal-surface1">
<path style=" stroke:none;fill-rule:nonzero;fill:currentColor;fill-opacity:1;" d="M 0 0.984375 L 0 21.074219 L 8.992188 21.074219 L 8.992188 12.433594 L 14.472656 12.433594 L 14.472656 37.234375 L 10.257812 37.234375 L 10.257812 48.683594 L 37.164062 48.683594 L 37.164062 37.234375 L 32.949219 37.234375 L 32.949219 12.433594 L 38.429688 12.433594 L 38.429688 21.074219 L 47.421875 21.074219 L 47.421875 0.984375 Z M 0 0.984375 "/>
<path style=" stroke:none;fill-rule:nonzero;fill:currentColor;fill-opacity:1;" d="M 79.945312 0.984375 L 79.945312 12.433594 L 82.96875 12.433594 L 82.96875 19.742188 L 71.9375 19.742188 L 71.9375 12.433594 L 74.960938 12.433594 L 74.960938 0.984375 L 49.808594 0.984375 L 49.808594 12.433594 L 53.460938 12.433594 L 53.460938 37.234375 L 49.808594 37.234375 L 49.808594 48.683594 L 74.960938 48.683594 L 74.960938 37.234375 L 71.9375 37.234375 L 71.9375 29.4375 L 82.96875 29.4375 L 82.96875 37.234375 L 79.945312 37.234375 L 79.945312 48.683594 L 105.097656 48.683594 L 105.097656 37.234375 L 101.445312 37.234375 L 101.445312 12.433594 L 105.097656 12.433594 L 105.097656 0.984375 Z M 79.945312 0.984375 "/>
<path style=" stroke:none;fill-rule:nonzero;fill:currentColor;fill-opacity:1;" d="M 107.976562 0.984375 L 107.976562 12.433594 L 111.699219 12.433594 L 111.699219 37.234375 L 107.976562 37.234375 L 107.976562 48.683594 L 153.5 48.683594 L 153.5 33.441406 L 140.996094 33.441406 L 140.996094 37.234375 L 130.175781 37.234375 L 130.175781 29.4375 L 139.589844 29.4375 L 139.589844 19.742188 L 130.175781 19.742188 L 130.175781 12.433594 L 140.996094 12.433594 L 140.996094 16.226562 L 153.5 16.226562 L 153.5 0.984375 Z M 107.976562 0.984375 "/>
<path style=" stroke:none;fill-rule:nonzero;fill:currentColor;fill-opacity:1;" d="M 201.484375 0.984375 L 201.484375 12.433594 L 197.40625 12.433594 L 197.40625 45.523438 C 197.40625 51.425781 196.707031 55.851562 193.964844 59.011719 C 191.296875 62.105469 188.203125 64 181.179688 64 C 179.144531 64 176.332031 63.929688 173.523438 63.4375 L 173.523438 51.707031 C 174.367188 51.917969 174.996094 51.988281 175.558594 51.988281 C 178.371094 51.988281 178.933594 50.441406 178.933594 45.3125 L 178.933594 12.433594 L 174.574219 12.433594 L 174.574219 0.984375 Z M 201.484375 0.984375 "/>
<path style=" stroke:none;fill-rule:nonzero;fill:currentColor;fill-opacity:1;" d="M 227.617188 38.289062 C 232.183594 38.289062 233.796875 34.984375 233.796875 24.730469 C 233.796875 14.191406 231.972656 11.171875 227.617188 11.171875 C 223.261719 11.171875 221.433594 14.050781 221.433594 24.730469 C 221.433594 34.914062 222.980469 38.289062 227.617188 38.289062 M 254.523438 24.730469 C 254.523438 39.128906 243.210938 49.457031 227.476562 49.457031 C 212.019531 49.457031 200.710938 38.917969 200.710938 24.730469 C 200.710938 10.539062 211.808594 0 227.617188 0 C 243.703125 0 254.523438 10.890625 254.523438 24.730469 "/>
<path style=" stroke:none;fill-rule:nonzero;fill:currentColor;fill-opacity:1;" d="M 279.109375 0.984375 L 279.109375 12.433594 L 276.792969 12.433594 L 276.792969 30.351562 C 276.792969 36.179688 278.40625 38.289062 281.78125 38.289062 C 285.222656 38.289062 286.347656 36.039062 286.347656 30.070312 L 286.347656 12.433594 L 283.957031 12.433594 L 283.957031 0.984375 L 301.871094 0.984375 L 301.871094 12.433594 L 298.148438 12.433594 L 298.148438 31.332031 C 298.148438 42.785156 291.472656 49.457031 278.476562 49.457031 C 264.355469 49.457031 258.316406 42.714844 258.316406 30.070312 L 258.316406 12.433594 L 254.664062 12.433594 L 254.664062 0.984375 Z M 279.109375 0.984375 "/>
<path style=" stroke:none;fill-rule:nonzero;fill:currentColor;fill-opacity:1;" d="M 332.429688 20.515625 C 336.011719 20.515625 338.050781 18.828125 338.050781 16.019531 C 338.050781 13.207031 335.941406 11.453125 332.570312 11.453125 L 327.019531 11.453125 L 327.019531 20.515625 Z M 333.273438 0.984375 C 339.246094 0.984375 345.078125 1.476562 348.589844 2.808594 C 354.839844 5.199219 357.371094 10.328125 357.371094 15.246094 C 357.371094 20.023438 354.628906 24.519531 350.414062 26.34375 L 357.019531 37.234375 L 360.460938 37.234375 L 360.460938 48.683594 L 343.25 48.683594 L 332.851562 29.226562 L 327.019531 29.226562 L 327.019531 37.234375 L 330.605469 37.234375 L 330.605469 48.683594 L 304.679688 48.683594 L 304.679688 37.234375 L 308.546875 37.234375 L 308.546875 12.433594 L 304.679688 12.433594 L 304.679688 0.984375 Z M 333.273438 0.984375 "/>
<path style=" stroke:none;fill-rule:nonzero;fill:currentColor;fill-opacity:1;" d="M 382.730469 0.984375 L 400.082031 25.921875 L 400.222656 25.921875 L 400.222656 12.433594 L 396.21875 12.433594 L 396.21875 0.984375 L 415.46875 0.984375 L 415.46875 12.433594 L 411.324219 12.433594 L 411.324219 49.457031 L 395.585938 49.457031 L 375.5625 20.445312 L 375.421875 20.445312 L 375.421875 37.234375 L 379.710938 37.234375 L 379.710938 48.683594 L 360.109375 48.683594 L 360.109375 37.234375 L 364.324219 37.234375 L 364.324219 12.433594 L 360.109375 12.433594 L 360.109375 0.984375 Z M 382.730469 0.984375 "/>
<path style=" stroke:none;fill-rule:nonzero;fill:currentColor;fill-opacity:1;" d="M 436.964844 13.066406 L 432.609375 26.273438 L 441.109375 26.273438 L 437.105469 13.066406 Z M 456.773438 0.984375 L 456.773438 12.433594 L 452.910156 12.433594 L 462.042969 37.234375 L 465.558594 37.234375 L 465.558594 48.683594 L 440.617188 48.683594 L 440.617188 38.21875 L 444.761719 38.21875 L 442.9375 32.246094 L 430.710938 32.246094 L 428.675781 38.21875 L 432.609375 38.21875 L 432.609375 48.683594 L 413.710938 48.683594 L 413.710938 37.234375 L 417.292969 37.234375 L 426.285156 12.433594 L 422.421875 12.433594 L 422.421875 0.984375 Z M 456.773438 0.984375 "/>
<g clip-path="url(#el-cerrito-journal-clip1)" clip-rule="nonzero">
<path style=" stroke:none;fill-rule:nonzero;fill:currentColor;fill-opacity:1;" d="M 495.625 0.984375 L 495.625 12.433594 L 491.128906 12.433594 L 491.128906 37.234375 L 502.367188 37.234375 L 502.367188 29.574219 L 513.820312 29.574219 L 513.820312 48.683594 L 468.367188 48.683594 L 468.367188 37.234375 L 472.652344 37.234375 L 472.652344 12.433594 L 468.367188 12.433594 L 468.367188 0.984375 Z M 495.625 0.984375 "/>
</g>
</g>
</svg>
